<svg width="48" height="51" viewBox="0 0 48 51" fill="none" xmlns="http://www.w3.org/2000/svg">
<path d="M43.144 14.4726C42.3458 14.4726 41.5656 14.2374 40.9019 13.7969C40.2383 13.3563 39.721 12.7302 39.4156 11.9976C39.1101 11.265 39.0302 10.4589 39.1859 9.68117C39.3417 8.90346 39.726 8.18908 40.2904 7.62838C40.8548 7.06768 41.5739 6.68584 42.3567 6.53114C43.1395 6.37644 43.951 6.45584 44.6884 6.75929C45.4258 7.06274 46.0561 7.57661 46.4995 8.23592C46.9429 8.89524 47.1796 9.67039 47.1796 10.4633C47.1786 11.5263 46.7531 12.5455 45.9965 13.2972C45.2399 14.0488 44.214 14.4715 43.144 14.4726ZM43.144 8.00295C42.6533 8.00295 42.1735 8.14757 41.7655 8.41852C41.3575 8.68947 41.0396 9.07456 40.852 9.52506C40.6644 9.97557 40.6155 10.4712 40.7115 10.9494C40.8075 11.4275 41.0442 11.8666 41.3914 12.2111C41.7387 12.5555 42.1811 12.7899 42.6625 12.8846C43.1439 12.9792 43.6428 12.9299 44.0959 12.7428C44.5491 12.5557 44.9362 12.2392 45.2083 11.8335C45.4804 11.4277 45.6252 10.9509 45.6245 10.4633C45.6234 9.81045 45.3617 9.18465 44.8966 8.72335C44.4315 8.26204 43.8012 8.00295 43.144 8.00295Z" fill="white"/>
<path d="M3.3669 26.5429C2.70159 26.5437 2.05101 26.3484 1.49745 25.9817C0.943893 25.6151 0.512243 25.0935 0.257108 24.4831C0.00197279 23.8727 -0.0651739 23.2008 0.0641494 22.5524C0.193473 21.9041 0.513458 21.3084 0.983629 20.8408C1.4538 20.3731 2.05303 20.0545 2.70549 19.9253C3.35796 19.7961 4.03435 19.862 4.64909 20.1148C5.26383 20.3676 5.78928 20.7958 6.15899 21.3453C6.5287 21.8948 6.72604 22.5409 6.72604 23.2019C6.72501 24.087 6.37089 24.9356 5.74126 25.5618C5.11164 26.1881 4.25784 26.5408 3.3669 26.5429ZM3.3669 21.4097C3.00901 21.4089 2.65894 21.5137 2.36105 21.7108C2.06315 21.9078 1.83083 22.1883 1.69352 22.5166C1.5562 22.845 1.52007 23.2064 1.5897 23.5552C1.65933 23.9039 1.8316 24.2243 2.08467 24.4757C2.33773 24.7271 2.66022 24.8983 3.01128 24.9674C3.36233 25.0366 3.72615 25.0007 4.05665 24.8643C4.38716 24.7279 4.66946 24.4971 4.86782 24.2011C5.06617 23.9052 5.17165 23.5574 5.17088 23.2019C5.16986 22.7269 4.97945 22.2716 4.64137 21.9357C4.30328 21.5999 3.84503 21.4107 3.3669 21.4097Z" fill="white"/>
<path d="M23.9458 10.4634H22.3906V40.4515H23.9458V10.4634Z" fill="white"/>
<path d="M23.1258 36.199L22.7604 35.9749C15.9488 31.8421 12.1776 26.3729 11.8743 20.1659C11.5089 13.1671 15.5639 5.75893 22.7098 0.343759L23.1647 0L23.6313 0.328311C30.7578 5.31088 34.6534 12.9277 34.0508 20.7028C33.5298 27.4003 29.6925 32.9815 23.5263 36.0097L23.1258 36.199ZM23.1958 1.92737C16.8314 6.92925 13.0873 13.8469 13.4217 20.0809C13.7094 25.6429 17.0957 30.5945 23.2153 34.4222C25.8389 33.113 28.0743 31.1478 29.7015 28.7199C31.3287 26.292 32.2917 23.4851 32.4956 20.5753C33.0322 13.5147 29.5642 6.58936 23.1958 1.92737Z" fill="white"/>
<path d="M23.1958 14.2873C21.2013 14.2873 19.2185 13.171 17.2979 10.9656L18.4642 9.95361C20.0855 11.8076 21.6717 12.7423 23.1958 12.7423C24.7159 12.7423 26.3061 11.8037 27.8962 9.95747L29.0626 10.9656C27.1575 13.1672 25.1747 14.2873 23.188 14.2873H23.1958Z" fill="white"/>
<path d="M23.1446 19.5208C19.7816 19.5208 16.3836 17.6784 13.0361 14.0399L14.2025 12.9971C17.2389 16.3033 20.2559 17.9758 23.1446 17.9758H23.2185C26.0877 17.9487 29.0114 16.2763 31.904 13.0087L33.0704 14.0283C29.8745 17.6397 26.5659 19.4899 23.2301 19.5208H23.1446Z" fill="white"/>
<path d="M23.1137 26.2297C19.4552 26.2297 15.7267 24.2135 12.041 20.2352L13.1841 19.1885C16.6093 22.881 19.9995 24.7388 23.2342 24.6848C26.3912 24.6384 29.587 22.796 32.7284 19.2039L33.8948 20.2198C30.4501 24.1556 26.8694 26.1757 23.2498 26.2297H23.1137Z" fill="white"/>
<path d="M30.4618 50.1849H15.9483C15.1001 50.1866 14.2638 49.986 13.5096 49.6002C12.7555 49.2143 12.1056 48.6543 11.6143 47.9673C11.1231 47.2802 10.805 46.4861 10.6866 45.6516C10.5683 44.8171 10.6532 43.9666 10.9341 43.1714C11.2151 42.3763 11.684 41.6597 12.3014 41.0818C12.9189 40.5039 13.6668 40.0816 14.4825 39.8504C15.2983 39.6191 16.1579 39.5856 16.9893 39.7527C17.8208 39.9198 18.5997 40.2826 19.2608 40.8107C20.1961 40.0622 21.3598 39.6519 22.5608 39.647C23.7617 39.6421 24.9287 40.0429 25.8702 40.7837C26.4838 40.0178 27.2826 39.4187 28.1923 39.0426C29.1019 38.6664 30.0926 38.5253 31.072 38.6325C32.0514 38.7397 32.9874 39.0916 33.7928 39.6555C34.5982 40.2194 35.2467 40.9768 35.6777 41.857C36.1087 42.7372 36.3082 43.7116 36.2575 44.6892C36.2069 45.6667 35.9078 46.6156 35.3881 47.4472C34.8684 48.2788 34.1451 48.9661 33.2857 49.4448C32.4262 49.9236 31.4587 50.1782 30.4735 50.1849H30.4618ZM15.9483 41.197C15.4463 41.1809 14.9461 41.2652 14.4774 41.445C14.0088 41.6248 13.5814 41.8964 13.2205 42.2435C12.8596 42.5907 12.5727 43.0064 12.3767 43.4659C12.1807 43.9254 12.0797 44.4194 12.0797 44.9184C12.0797 45.4175 12.1807 45.9115 12.3767 46.371C12.5727 46.8305 12.8596 47.2462 13.2205 47.5933C13.5814 47.9405 14.0088 48.212 14.4774 48.3918C14.9461 48.5716 15.4463 48.656 15.9483 48.6399H30.4618C31.2219 48.6425 31.9692 48.4448 32.6272 48.0668C33.2853 47.6888 33.8306 47.1441 34.2075 46.4883C34.5844 45.8325 34.7795 45.0891 34.7727 44.334C34.766 43.5788 34.5577 42.839 34.169 42.19C33.7804 41.5409 33.2254 41.006 32.5607 40.6397C31.896 40.2733 31.1454 40.0888 30.3854 40.1049C29.6254 40.1209 28.8834 40.337 28.2349 40.7311C27.5865 41.1252 27.0549 41.6831 26.6945 42.348L26.1618 43.3329L25.4231 42.487C25.0795 42.0907 24.6555 41.771 24.1789 41.5489C23.7022 41.3268 23.1837 41.2072 22.6573 41.1981C22.1309 41.189 21.6085 41.2905 21.1243 41.496C20.6402 41.7015 20.2052 42.0063 19.8479 42.3905L19.2764 43.0007L18.7087 42.3905C18.3583 42.0107 17.9316 41.7082 17.4561 41.5026C16.9806 41.297 16.4669 41.1929 15.9483 41.197Z" fill="white"/>
</svg>
