<svg width="46" height="55" viewBox="0 0 46 55" fill="none" xmlns="http://www.w3.org/2000/svg">
<path d="M23.5608 33.986C21.1186 33.986 18.7313 33.2665 16.7007 31.9186C14.6701 30.5707 13.0874 28.6548 12.1528 26.4133C11.2182 24.1717 10.9737 21.7052 11.4502 19.3256C11.9266 16.946 13.1026 14.7602 14.8295 13.0446C16.5564 11.329 18.7566 10.1607 21.1518 9.68738C23.5471 9.21404 26.0298 9.45698 28.2861 10.3854C30.5424 11.3139 32.4709 12.8862 33.8277 14.9036C35.1845 16.9209 35.9087 19.2926 35.9087 21.7188C35.9046 24.971 34.6023 28.0889 32.2875 30.3885C29.9727 32.6882 26.8344 33.9819 23.5608 33.986ZM23.5608 10.9966C21.4262 10.9966 19.3395 11.6255 17.5647 12.8037C15.7898 13.9818 14.4065 15.6564 13.5896 17.6156C12.7727 19.5749 12.559 21.7307 12.9754 23.8106C13.3919 25.8905 14.4198 27.801 15.9292 29.3006C17.4386 30.8001 19.3616 31.8213 21.4552 32.235C23.5488 32.6487 25.7189 32.4364 27.691 31.6248C29.6631 30.8133 31.3487 29.439 32.5346 27.6758C33.7206 25.9125 34.3535 23.8395 34.3535 21.7188C34.3505 18.8761 33.2124 16.1506 31.189 14.1405C29.1656 12.1304 26.4223 10.9997 23.5608 10.9966Z" fill="white"/>
<path d="M23.5603 27.7208C22.3654 27.7208 21.1973 27.3688 20.2037 26.7093C19.2101 26.0497 18.4357 25.1123 17.9785 24.0155C17.5212 22.9188 17.4015 21.7119 17.6346 20.5476C17.8678 19.3833 18.4432 18.3138 19.2881 17.4743C20.1331 16.6349 21.2096 16.0632 22.3816 15.8316C23.5536 15.6 24.7684 15.7189 25.8724 16.1732C26.9764 16.6275 27.92 17.3968 28.5839 18.3839C29.2477 19.371 29.6021 20.5314 29.6021 21.7186C29.6 23.3098 28.9628 24.8354 27.8302 25.9605C26.6976 27.0857 25.1621 27.7188 23.5603 27.7208ZM23.5603 17.2613C22.673 17.2613 21.8055 17.5227 21.0677 18.0125C20.3299 18.5023 19.7548 19.1984 19.4152 20.0128C19.0757 20.8273 18.9868 21.7235 19.1599 22.5881C19.333 23.4528 19.7603 24.247 20.3878 24.8703C21.0153 25.4937 21.8147 25.9182 22.685 26.0902C23.5553 26.2622 24.4575 26.1739 25.2773 25.8366C26.0971 25.4992 26.7978 24.9279 27.2908 24.1949C27.7838 23.4619 28.0469 22.6001 28.0469 21.7186C28.0459 20.5364 27.573 19.4029 26.7319 18.5666C25.8909 17.7303 24.7503 17.2595 23.5603 17.2574V17.2613Z" fill="white"/>
<path d="M40.687 47.4272C39.8885 47.4279 39.1077 47.1933 38.4434 46.7531C37.7792 46.3128 37.2613 45.6867 36.9554 44.954C36.6495 44.2212 36.5692 43.4148 36.7248 42.6367C36.8804 41.8586 37.2648 41.1439 37.8295 40.583C38.3941 40.022 39.1135 39.6401 39.8967 39.4855C40.6799 39.331 41.4917 39.4107 42.2292 39.7146C42.9668 40.0185 43.5971 40.533 44.0402 41.1929C44.4833 41.8528 44.7195 42.6285 44.7187 43.4218C44.7177 44.4838 44.2926 45.5019 43.5367 46.2529C42.7808 47.0038 41.7559 47.4261 40.687 47.4272ZM40.687 40.9575C40.1962 40.9568 39.7163 41.1006 39.3078 41.371C38.8994 41.6413 38.5809 42.0259 38.3925 42.4761C38.2042 42.9263 38.1545 43.4219 38.2498 43.9002C38.3451 44.3784 38.581 44.8179 38.9278 45.1629C39.2745 45.5079 39.7165 45.743 40.1977 45.8384C40.679 45.9338 41.1779 45.8852 41.6314 45.6988C42.0849 45.5124 42.4725 45.1966 42.7452 44.7912C43.018 44.3859 43.1635 43.9093 43.1635 43.4218C43.1635 42.7689 42.9028 42.1427 42.4384 41.6807C41.9741 41.2186 41.3442 40.9586 40.687 40.9575Z" fill="white"/>
<path d="M3.36302 44.1943C2.69788 44.1943 2.04767 43.9983 1.49463 43.6312C0.941582 43.2641 0.510536 42.7423 0.255998 42.1318C0.00145894 41.5213 -0.0651424 40.8495 0.0646203 40.2014C0.194383 39.5533 0.514681 38.958 0.985007 38.4908C1.45533 38.0235 2.05456 37.7053 2.70693 37.5764C3.35929 37.4475 4.03548 37.5137 4.64999 37.7665C5.2645 38.0194 5.78973 38.4476 6.15926 38.9971C6.52879 39.5465 6.72603 40.1924 6.72603 40.8532C6.72603 41.292 6.63905 41.7264 6.47004 42.1318C6.30103 42.5371 6.05331 42.9055 5.74103 43.2157C5.42874 43.5259 5.05801 43.772 4.64999 43.9399C4.24197 44.1079 3.80465 44.1943 3.36302 44.1943ZM3.36302 39.0572C3.00545 39.0572 2.65592 39.1625 2.35862 39.3599C2.06132 39.5572 1.8296 39.8377 1.69277 40.1659C1.55594 40.4941 1.52013 40.8552 1.58989 41.2036C1.65965 41.552 1.83183 41.8721 2.08466 42.1232C2.3375 42.3744 2.65963 42.5455 3.01032 42.6148C3.36101 42.6841 3.72451 42.6485 4.05486 42.5126C4.3852 42.3766 4.66755 42.1464 4.8662 41.8511C5.06485 41.5557 5.17088 41.2085 5.17088 40.8532C5.17088 40.3769 4.98041 39.9201 4.64137 39.5832C4.30233 39.2464 3.84249 39.0572 3.36302 39.0572Z" fill="white"/>
<path d="M32.4837 54.2021L23.53 49.1191L14.1641 54.1712V39.8994H15.7192V51.5718L23.5494 47.354L30.9286 51.5409V39.8994H32.4837V54.2021Z" fill="white"/>
<path d="M24.3852 41.9541H22.8301V48.2383H24.3852V41.9541Z" fill="white"/>
<path d="M23.3354 43.4411C22.2773 43.4406 21.2559 43.056 20.4632 42.3596C19.6706 41.6632 19.1615 40.703 19.0316 39.6598C18.5689 39.5478 18.114 39.4164 17.6669 39.2735C17.5414 39.4344 17.405 39.5867 17.2587 39.7293C16.5302 40.4321 15.5764 40.8585 14.5638 40.9341C13.5512 41.0097 12.544 40.7298 11.7179 40.1431C10.8918 39.5564 10.2992 38.7002 10.0435 37.7239C9.78782 36.7476 9.88526 35.7131 10.3188 34.8008C9.97281 34.4609 9.63845 34.1056 9.31575 33.7386C8.38756 34.1631 7.3382 34.2478 6.35318 33.9779C5.36817 33.708 4.51094 33.1007 3.93303 32.2636C3.35512 31.4264 3.09375 30.4132 3.19513 29.4031C3.2965 28.393 3.75409 27.451 4.48701 26.7437C4.73253 26.5029 5.00671 26.2928 5.30346 26.118C5.2257 25.8167 5.15572 25.5154 5.09352 25.2103C3.99877 25.1037 2.98578 24.5875 2.25981 23.7665C1.53384 22.9455 1.14918 21.881 1.18379 20.7888C1.21839 19.6965 1.66967 18.6581 2.44618 17.8841C3.22268 17.1101 4.26634 16.6583 5.36567 16.6202C5.46675 16.234 5.57561 15.8786 5.70003 15.5155C5.47358 15.3623 5.26148 15.189 5.0663 14.998C4.32582 14.2604 3.87952 13.2813 3.81007 12.2419C3.74063 11.2025 4.05275 10.1733 4.68862 9.34499C5.32448 8.51669 6.24099 7.94544 7.26834 7.73705C8.29569 7.52867 9.36425 7.69727 10.2761 8.21164C10.451 8.03783 10.6337 7.86788 10.8165 7.70179C10.3965 6.89032 10.2455 5.9677 10.3852 5.06585C10.5248 4.16401 10.948 3.32913 11.594 2.68059C11.9963 2.28072 12.4739 1.9635 12.9995 1.74708C13.5252 1.53065 14.0887 1.41925 14.6577 1.41925C15.2267 1.41925 15.7902 1.53065 16.3159 1.74708C16.8415 1.9635 17.3191 2.28072 17.7213 2.68059C17.9648 2.92126 18.1788 3.18963 18.359 3.48013C18.6933 3.38743 19.0277 3.30245 19.3659 3.2252C19.6063 2.30201 20.1486 1.48431 20.9075 0.900537C21.6665 0.316764 22.5991 0 23.559 0C24.5189 0 25.4515 0.316764 26.2105 0.900537C26.9694 1.48431 27.5117 2.30201 27.7521 3.2252C28.0994 3.30245 28.4454 3.39129 28.7901 3.49171C29.1816 2.85149 29.7342 2.32355 30.3934 1.95987C31.0526 1.59619 31.7957 1.4093 32.5497 1.41757C33.1189 1.4231 33.6813 1.54064 34.2045 1.7634C34.7277 1.98615 35.2012 2.30971 35.5978 2.71536C36.2353 3.36986 36.649 4.20724 36.7802 5.10859C36.9114 6.00995 36.7534 6.92946 36.3287 7.73656L36.7992 8.18074C37.7676 7.66423 38.8974 7.5325 39.9599 7.8122C41.0224 8.09189 41.9383 8.76212 42.5222 9.68726C43.1062 10.6124 43.3146 11.7234 43.1052 12.7954C42.8959 13.8674 42.2844 14.8204 41.3946 15.4615C41.5268 15.8477 41.6474 16.234 41.7562 16.6202C42.8554 16.659 43.8986 17.1114 44.6745 17.8857C45.4505 18.6601 45.9012 19.6985 45.9353 20.7906C45.9694 21.8827 45.5844 22.9469 44.8582 23.7675C44.1321 24.5882 43.1191 25.1039 42.0245 25.2103C41.9467 25.5966 41.8573 25.9828 41.7523 26.3691C41.9271 26.4957 42.0909 26.6365 42.2422 26.7901C42.9338 27.4838 43.3673 28.3905 43.4716 29.3613C43.5758 30.3322 43.3447 31.3094 42.816 32.1324C42.2874 32.9555 41.4927 33.5754 40.5625 33.8905C39.6323 34.2055 38.6219 34.1969 37.6973 33.8661C37.3746 34.2292 37.0363 34.5806 36.6903 34.9167C37.1004 35.8371 37.1728 36.8712 36.8948 37.8391C36.6168 38.807 36.006 39.6474 35.1688 40.2142C34.3315 40.781 33.3207 41.0382 32.3123 40.9412C31.3038 40.8441 30.3615 40.3989 29.6494 39.6829C29.5283 39.5617 29.4153 39.4326 29.3111 39.2967C28.7551 39.4744 28.1875 39.625 27.6121 39.7486C27.463 40.7711 26.9492 41.7064 26.1642 42.3841C25.3793 43.0619 24.3754 43.437 23.3354 43.4411ZM16.9904 37.3848L17.6203 37.6127C18.3812 37.8883 19.1607 38.1103 19.953 38.277L20.5906 38.4083L20.5673 39.1268C20.565 39.4889 20.6345 39.848 20.7719 40.1834C20.9093 40.5189 21.1118 40.8242 21.368 41.0819C21.6241 41.3396 21.9288 41.5447 22.2648 41.6854C22.6007 41.8261 22.9612 41.8996 23.3257 41.9019C23.6903 41.9042 24.0517 41.8351 24.3894 41.6987C24.727 41.5622 25.0343 41.361 25.2937 41.1065C25.5531 40.852 25.7595 40.5493 25.9012 40.2156C26.0428 39.8818 26.1169 39.5237 26.1192 39.1615V38.4779L26.7529 38.3581C27.6467 38.195 28.5257 37.9599 29.3811 37.6552L29.9993 37.4389L30.322 38.0028C30.4434 38.2178 30.5938 38.4153 30.7691 38.5899C31.2902 39.1064 31.9963 39.3965 32.7324 39.3965C33.4686 39.3965 34.1747 39.1064 34.6958 38.5899C35.1403 38.1462 35.4206 37.5662 35.4912 36.9442C35.5618 36.3222 35.4185 35.6947 35.0846 35.1639L34.7347 34.6154L35.2168 34.1789C35.819 33.6347 36.3816 33.0487 36.9002 32.4254L37.289 31.9349L37.8528 32.24C38.4395 32.5594 39.1227 32.6575 39.7764 32.5163C40.4302 32.3751 41.0107 32.004 41.411 31.4715C41.8113 30.9389 42.0045 30.2806 41.9551 29.6177C41.9056 28.9548 41.6169 28.332 41.1419 27.8638C40.9474 27.6706 40.7246 27.5079 40.481 27.381L39.9172 27.0797L40.1039 26.4733C40.317 25.7634 40.4858 25.041 40.6093 24.3104L40.7259 23.619L41.4296 23.6653H41.624C41.9976 23.6792 42.3701 23.6181 42.7193 23.4857C43.0685 23.3532 43.3873 23.1522 43.6565 22.8946C43.9257 22.6369 44.1399 22.328 44.2861 21.9863C44.4324 21.6445 44.5078 21.277 44.5078 20.9056C44.5078 20.5343 44.4324 20.1667 44.2861 19.825C44.1399 19.4832 43.9257 19.1743 43.6565 18.9166C43.3873 18.659 43.0685 18.458 42.7193 18.3255C42.3701 18.1931 41.9976 18.132 41.624 18.1459C41.5017 18.1467 41.3796 18.1557 41.2586 18.1729L40.5549 18.2656L40.3993 17.582C40.2233 16.8302 39.9973 16.0908 39.7229 15.3688L39.474 14.716L40.1039 14.4032C40.3634 14.2765 40.6009 14.1097 40.8076 13.9088C41.3071 13.4145 41.5989 12.75 41.6239 12.05C41.6489 11.35 41.4052 10.6667 40.9422 10.1385C40.4792 9.61025 39.8314 9.27654 39.1301 9.20492C38.4287 9.13331 37.7261 9.32914 37.1646 9.75276L36.6087 10.1854L36.1227 9.67551C35.71 9.23782 35.2726 8.82387 34.8125 8.43566L34.2604 7.98761L34.7075 7.40825C35.1084 6.88112 35.3064 6.22899 35.2657 5.56958C35.2251 4.91016 34.9485 4.2869 34.4859 3.8123C34.1629 3.48199 33.7617 3.23742 33.319 3.10096C32.8762 2.96451 32.4062 2.94053 31.9517 3.03121C31.4972 3.12189 31.0729 3.32434 30.7176 3.62004C30.3622 3.91574 30.0872 4.29525 29.9176 4.72384L29.6494 5.39977L28.9534 5.17188C28.292 4.95672 27.6182 4.7813 26.9356 4.64659L26.3835 4.5114L26.3174 3.95521C26.2336 3.28814 25.9074 2.67446 25.4002 2.22953C24.8929 1.7846 24.2396 1.53905 23.5629 1.53905C22.8862 1.53905 22.2328 1.7846 21.7256 2.22953C21.2183 2.67446 20.8921 3.28814 20.8083 3.95521L20.7383 4.5114L20.1863 4.61955C19.5158 4.75215 18.8537 4.92368 18.2034 5.13326L17.5114 5.35728L17.2393 4.68521C17.0922 4.32083 16.8685 3.99184 16.5832 3.72023C16.2979 3.44863 15.9574 3.24068 15.5847 3.11028C15.212 2.97989 14.8155 2.93006 14.4219 2.96411C14.0282 2.99817 13.6464 3.11534 13.3019 3.30778C12.9575 3.50022 12.6584 3.7635 12.4246 4.08001C12.1908 4.39652 12.0278 4.75897 11.9463 5.14312C11.8649 5.52728 11.8669 5.92428 11.9524 6.30758C12.0378 6.69088 12.2046 7.05165 12.4416 7.36576L12.8809 7.94513L12.325 8.41635C11.8415 8.82778 11.3808 9.26488 10.9448 9.72572L10.4471 10.2549L9.88727 9.79524C9.5827 9.54282 9.22722 9.35818 8.84478 9.25374C8.46233 9.1493 8.0618 9.1275 7.67016 9.18979C7.27851 9.25209 6.90485 9.39704 6.57435 9.61488C6.24384 9.83273 5.96416 10.1184 5.75415 10.4527C5.54413 10.7869 5.40866 11.162 5.35686 11.5527C5.30505 11.9434 5.33812 12.3405 5.45383 12.7174C5.56954 13.0943 5.7652 13.4422 6.02764 13.7377C6.29008 14.0331 6.61321 14.2693 6.97525 14.4302L7.63619 14.7315L7.37959 15.4074C7.11054 16.1138 6.891 16.8378 6.72254 17.5742L6.56313 18.2579L5.86332 18.1652C5.47077 18.1096 5.07077 18.1388 4.69062 18.2509C4.31047 18.3629 3.95913 18.555 3.66056 18.8143C3.36199 19.0735 3.12323 19.3936 2.96057 19.7529C2.79791 20.1121 2.71518 20.502 2.71802 20.896C2.71802 21.6277 3.01036 22.3296 3.53084 22.8474C4.05132 23.3652 4.75739 23.6566 5.49397 23.6576H5.65337L6.35708 23.6074L6.5087 24.2988C6.62328 24.9725 6.77646 25.6392 6.96748 26.2957L7.16964 26.9755L6.50482 27.2342C6.156 27.3668 5.83838 27.5693 5.57173 27.8291C5.08287 28.3123 4.79256 28.959 4.75734 29.6432C4.72212 30.3274 4.94451 31.0001 5.38119 31.5304C5.81788 32.0606 6.43761 32.4104 7.11966 32.5116C7.8017 32.6128 8.49725 32.4581 9.07082 32.0778L9.66177 31.6915L10.1128 32.24C10.6386 32.8922 11.213 33.5042 11.8312 34.0708L12.3211 34.5227L11.9323 35.0712C11.5748 35.5981 11.4107 36.2311 11.4673 36.8641C11.5239 37.497 11.7979 38.0913 12.2433 38.5474C12.7583 39.0701 13.4609 39.3686 14.1971 39.3773C14.9332 39.386 15.6428 39.1042 16.1701 38.5937C16.3668 38.405 16.5333 38.1875 16.6638 37.9487L16.9904 37.3848Z" fill="white"/>
</svg>
