<svg width="15" height="15" viewBox="0 0 15 15" fill="none" xmlns="http://www.w3.org/2000/svg">
<g clip-path="url(#clip0)">
<path d="M14.9999 7.49291C15.004 11.6279 11.6425 14.9929 7.50691 14.9999C3.37137 15.007 0.00398324 11.6425 -0.000118321 7.50697C-0.00421988 3.37143 3.3573 0.00404428 7.49285 -5.72858e-05C11.6284 -0.00415885 14.9958 3.35736 14.9999 7.49291ZM13.7471 7.50404C13.748 6.26798 13.3821 5.05945 12.6958 4.0314C12.0095 3.00335 11.0337 2.20199 9.89182 1.72873C8.74995 1.25547 7.49334 1.13158 6.28103 1.37273C5.06872 1.61389 3.95519 2.20926 3.08136 3.0835C2.20754 3.95774 1.61269 5.07154 1.3721 6.28397C1.13151 7.49639 1.25599 8.75294 1.72979 9.8946C2.20359 11.0363 3.00541 12.0117 4.03378 12.6975C5.06215 13.3833 6.27085 13.7486 7.50691 13.7472C9.162 13.7458 10.7489 13.0875 11.9189 11.9169C13.089 10.7463 13.7465 9.15914 13.7471 7.50404Z" fill="#CC2128"/>
<path d="M6.87717 5.55176C6.87717 4.82461 6.87366 4.09747 6.87717 3.37032C6.88069 2.89219 7.35237 2.59102 7.76956 2.79786C8.01096 2.91797 8.12112 3.12129 8.12112 3.39083C8.12112 4.30879 8.12112 5.22676 8.12112 6.14473C8.12112 6.50098 8.12522 6.85723 8.12112 7.21348C8.11641 7.25598 8.12632 7.29881 8.14922 7.33492C8.17213 7.37103 8.20664 7.39825 8.24709 7.41211C8.92092 7.74414 9.59221 8.07891 10.261 8.41641C10.3792 8.47105 10.4775 8.56118 10.5422 8.67428C10.6069 8.78737 10.6348 8.91781 10.6219 9.04746C10.5862 9.32754 10.4004 9.55371 10.1262 9.58945C9.97777 9.60746 9.82727 9.58393 9.69143 9.52148C8.87112 9.12481 8.05784 8.71231 7.2428 8.30449C7.12829 8.25318 7.03202 8.16839 6.96664 8.06129C6.90127 7.95418 6.86988 7.82979 6.87659 7.70449C6.87835 6.98672 6.87717 6.26953 6.87717 5.55176Z" fill="#CC2128"/>
</g>
<defs>
<clipPath id="clip0">
<rect width="15" height="15" fill="white"/>
</clipPath>
</defs>
</svg>
