<svg width="22" height="18" viewBox="0 0 22 18" fill="none" xmlns="http://www.w3.org/2000/svg">
<path d="M2.90425 5.02716C2.87521 4.99811 2.84617 4.94003 2.78808 4.91099C2.41053 4.53343 2.41053 4.01067 2.78808 3.60407C2.96234 3.42982 3.19468 3.31365 3.39798 3.19748C5.11149 2.26811 6.85404 1.33875 8.56755 0.409392C8.88702 0.235137 9.20649 0.148009 9.52596 0.264179C9.93255 0.380349 10.1939 0.670774 10.2811 1.04833C10.3391 1.3678 10.3682 1.68726 10.3972 2.03577C10.4553 2.64567 10.5134 3.2846 10.5715 3.92354C10.5715 3.98162 10.6005 4.01067 10.6586 4.01067C11.0362 4.01067 11.4137 4.01067 11.7622 4.01067C11.7622 4.01067 11.7913 4.01067 11.8203 4.01067C11.7913 3.92354 11.7622 3.86545 11.7041 3.77833C11.3556 3.05226 11.0071 2.35524 10.6586 1.62918C10.5134 1.33875 10.4844 1.01929 10.6005 0.72886C10.7748 0.351306 11.1523 0.148008 11.588 0.206093C11.9946 0.264178 12.4302 0.322263 12.8368 0.380348C13.2724 0.438433 13.7081 0.49652 14.1728 0.554605C14.4922 0.61269 14.8407 0.641732 15.1602 0.699817C15.6249 0.757903 16.0896 0.815987 16.5252 0.903114C17.0189 0.9612 17.5127 1.01928 18.0064 1.10641C18.8196 1.28067 19.1681 2.03577 18.7615 2.76184C18.4711 3.31365 18.1226 3.83641 17.8031 4.35918C17.745 4.47535 17.6579 4.59152 17.5998 4.70769C17.5707 4.76577 17.5707 4.79482 17.6288 4.82386C18.1806 4.96907 18.7324 5.14333 19.2843 5.37567C19.8361 5.60801 20.3588 5.86939 20.7945 6.30503C21.0558 6.56641 21.2301 6.85684 21.3172 7.20535C21.3172 7.23439 21.3172 7.23439 21.3172 7.26343C21.2882 7.67003 21.2882 8.07663 21.2591 8.48322C21.2011 8.88982 21.143 9.29641 21.0268 9.67396C20.8235 10.5162 20.504 11.2713 20.0974 12.0264C19.0229 13.8851 17.5127 15.2501 15.6249 16.1795C14.9569 16.499 14.2599 16.7603 13.5338 16.9636C12.256 17.2831 10.949 17.3993 9.64213 17.2831C8.91606 17.225 8.21904 17.0798 7.52202 16.8765C6.44745 16.557 5.46 16.1214 4.53064 15.4825C3.48511 14.7855 2.61383 13.9432 1.85872 12.9558C1.30692 12.2007 0.871277 11.3875 0.551809 10.4872C0.319468 9.81918 0.145214 9.09311 0.0580864 8.39609C0.0290439 8.01854 0 7.64098 0 7.26343C0 6.97301 0.145212 6.74067 0.319468 6.50833C0.609893 6.13077 0.987447 5.86939 1.42309 5.63705C1.82968 5.40471 2.26532 5.23045 2.70096 5.08524C2.84617 5.0562 2.87521 5.02716 2.90425 5.02716ZM20.3879 8.9479C20.3588 8.9479 20.3588 8.9479 20.3588 8.9479C20.3298 8.9479 20.3007 8.97694 20.3007 8.97694C19.9232 9.20928 19.5456 9.38354 19.139 9.52875C18.1806 9.9063 17.1641 10.1386 16.1477 10.3129C15.4506 10.4291 14.7536 10.5162 14.0566 10.5743C13.1563 10.6614 12.256 10.6905 11.3266 10.7195C10.3101 10.7485 9.29362 10.7195 8.24808 10.6324C7.60915 10.5743 6.99925 10.5162 6.36032 10.4291C5.80851 10.371 5.2567 10.2839 4.70489 10.1677C4.12404 10.0515 3.54319 9.87726 2.99138 9.73205C2.38149 9.55779 1.7716 9.29641 1.24883 8.9479C1.21979 8.9479 1.21979 8.91886 1.1617 8.91886C1.1617 8.9479 1.1617 8.97694 1.1617 9.00598C1.19074 9.18024 1.24883 9.3545 1.27787 9.52875C1.51021 10.3129 1.82968 11.068 2.26532 11.765C3.1366 13.1881 4.2983 14.2627 5.75043 15.0759C6.6217 15.5696 7.55106 15.9181 8.53851 16.1214C9.11936 16.2376 9.67117 16.3247 10.2811 16.3537C11.617 16.4118 12.8949 16.2376 14.1728 15.8019C15.1021 15.4825 15.9734 15.0468 16.7576 14.466C17.716 13.769 18.5291 12.9267 19.1971 11.9393C19.7489 11.097 20.1265 10.1677 20.3588 9.18024C20.3588 9.12216 20.3588 9.03503 20.3879 8.9479ZM10.9781 9.84822C11.3556 9.84822 11.9655 9.81918 12.5754 9.79014C13.1272 9.76109 13.65 9.73205 14.2018 9.67396C14.6665 9.61588 15.1602 9.5578 15.6249 9.49971C16.0315 9.44163 16.4671 9.3545 16.8737 9.26737C17.3384 9.1512 17.774 9.03503 18.2387 8.91886C18.7615 8.77365 19.2843 8.57034 19.7489 8.27992C20.0103 8.13471 20.2427 7.96045 20.446 7.72811C20.6202 7.49577 20.6202 7.26343 20.4169 7.03109C20.3298 6.91492 20.2136 6.79875 20.0684 6.71162C19.6328 6.39216 19.1681 6.18886 18.6744 6.0146C18.2387 5.86939 17.774 5.75322 17.3384 5.60801C17.2513 5.57896 17.1932 5.60801 17.1351 5.69513C16.7285 6.39216 16.2929 7.11822 15.8863 7.81524C15.7701 8.01854 15.6539 8.22184 15.5087 8.39609C15.2183 8.7446 14.7827 8.86077 14.4051 8.68652C14.1437 8.57035 13.9695 8.33801 13.8533 8.10567C13.3596 7.08918 12.8949 6.10173 12.4012 5.08524C12.3721 5.02716 12.3431 4.96907 12.256 4.96907C11.7913 4.96907 11.2976 4.94003 10.8329 4.94003C10.7748 4.94003 10.7457 4.96907 10.7457 5.02716C10.8038 5.63705 10.8619 6.24694 10.92 6.85684C10.949 7.20535 10.9781 7.52482 10.9781 7.87333C10.949 8.25088 10.7457 8.54131 10.3972 8.68652C10.0778 8.80269 9.7583 8.71556 9.46787 8.57034C7.75436 7.64098 6.01181 6.74066 4.2983 5.8113C4.12404 5.72418 3.97883 5.69514 3.80457 5.78226C3.77553 5.78226 3.74649 5.8113 3.74649 5.8113C3.16564 5.98556 2.61383 6.15982 2.06202 6.45024C1.74255 6.6245 1.42308 6.79875 1.19074 7.11822C1.01649 7.35056 1.01649 7.5829 1.19074 7.81524C1.33596 8.01854 1.53926 8.16375 1.74255 8.27992C2.26532 8.59939 2.84617 8.80269 3.42702 9.00598C4.24021 9.26737 5.0534 9.44162 5.89564 9.55779C6.50553 9.64492 7.11543 9.70301 7.75436 9.79014C8.71277 9.79014 9.72925 9.81918 10.9781 9.84822ZM11.6461 1.07737C11.4428 1.07737 11.4428 1.07737 11.5008 1.25162C11.5008 1.28067 11.5299 1.30971 11.5299 1.30971C11.8203 1.9196 12.1107 2.55854 12.4302 3.16843C13.1563 4.6496 13.8823 6.15981 14.5794 7.64098C14.6084 7.69907 14.6665 7.75716 14.7246 7.81524C14.7827 7.75716 14.8407 7.69907 14.8698 7.64098C15.712 6.24694 16.5543 4.82386 17.3965 3.42982C17.5998 3.0813 17.8321 2.70375 18.0354 2.3262C18.1516 2.09386 18.0935 1.97769 17.8321 1.9196C17.716 1.89056 17.5998 1.89056 17.4546 1.86152C17.0189 1.80343 16.5543 1.74535 16.1186 1.65822C15.7701 1.60014 15.4216 1.57109 15.0731 1.51301C14.6084 1.45492 14.1728 1.39684 13.7081 1.30971C13.2724 1.25163 12.8078 1.19354 12.3721 1.13546C12.1398 1.13546 11.8784 1.10641 11.6461 1.07737ZM10.0487 7.5829C10.0197 7.20535 9.96159 6.79875 9.93255 6.39215C9.84542 5.57896 9.78734 4.76577 9.70021 3.95258C9.61308 3.11035 9.52596 2.23907 9.46787 1.39684C9.43883 1.13545 9.29362 1.04833 9.06128 1.1645C9.06128 1.1645 9.06127 1.1645 9.03223 1.1645C8.07383 1.68726 7.08638 2.21003 6.12798 2.7328C5.28574 3.19748 4.44351 3.63311 3.60128 4.09779C3.54319 4.12684 3.48511 4.18492 3.42702 4.24301C3.48511 4.30109 3.54319 4.33013 3.60128 4.38822C3.8917 4.53343 4.18213 4.70769 4.47255 4.8529C5.69234 5.49184 6.91213 6.15982 8.13191 6.79875C8.71276 7.11822 9.29362 7.40865 9.87447 7.72811C10.0197 7.81524 10.0487 7.7862 10.0487 7.5829Z" fill="#CC2128"/>
<path d="M10.7741 17.3411C10.4256 17.3411 10.077 17.3121 9.72853 17.283C9.00247 17.225 8.2764 17.0797 7.57938 16.8764C6.50481 16.557 5.48832 16.0923 4.55896 15.4824C3.51343 14.7854 2.61311 13.9431 1.88704 12.9267C1.33524 12.1716 0.899597 11.3293 0.580129 10.458C0.347789 9.76102 0.173534 9.064 0.0864067 8.33794C0.0573642 7.98943 0.0283203 7.61188 0.0283203 7.20528C0.0283203 6.9439 0.144492 6.68251 0.34779 6.39209C0.667258 5.95645 1.10289 5.69507 1.48045 5.49177C1.858 5.28847 2.23555 5.11422 2.78736 4.93996L2.75832 4.91092C2.35172 4.50432 2.35172 3.92347 2.75832 3.51688C2.93258 3.34262 3.10683 3.25549 3.31013 3.13932L3.39726 3.11028L5.43024 2.00667C6.47577 1.45486 7.5213 0.874006 8.56683 0.322197C8.94438 0.1189 9.26385 0.060815 9.58332 0.147943C10.019 0.264113 10.2803 0.554539 10.3965 0.990177C10.4546 1.25156 10.4836 1.51294 10.5127 1.77432L10.5417 1.97762C10.5998 2.52943 10.6579 3.08124 10.6869 3.60401L10.716 3.83634C10.716 3.86539 10.716 3.86539 10.716 3.86539H11.7906C11.7615 3.8073 11.7615 3.77826 11.7325 3.72017L11.413 3.02315C11.1807 2.52943 10.9483 2.03571 10.716 1.57103C10.5417 1.22252 10.5417 0.903049 10.6579 0.583581C10.8321 0.176985 11.2387 -0.0263127 11.7325 0.00272987C12.0229 0.0317724 12.3133 0.089858 12.6037 0.1189C12.7199 0.147943 12.8651 0.147942 12.9813 0.176985L15.3047 0.496452C15.7694 0.554537 16.2341 0.612624 16.6697 0.699751C16.8149 0.728794 16.9601 0.728793 17.1344 0.757836C17.4829 0.786878 17.8314 0.844963 18.1799 0.903048C18.5865 0.990176 18.906 1.22252 19.0512 1.57103C19.1964 1.8905 19.1674 2.29709 18.9931 2.67464C18.7898 3.0522 18.5575 3.42975 18.3251 3.8073C18.238 3.98156 18.1218 4.12677 18.0347 4.30103L17.9766 4.38815C17.9185 4.47528 17.8895 4.56241 17.8314 4.64954C18.4994 4.82379 19.0221 4.99805 19.4868 5.20135C19.9806 5.40464 20.5324 5.69507 21.0261 6.13071C21.3165 6.39209 21.4908 6.71156 21.5489 7.08911C21.5489 7.11815 21.5489 7.1472 21.5489 7.17624C21.5489 7.29241 21.5489 7.40858 21.5489 7.55379C21.5489 7.84421 21.5198 8.13464 21.4908 8.42507C21.4617 8.77358 21.3746 9.15113 21.2584 9.61581C21.0842 10.4 20.7647 11.2132 20.3 11.9683C19.2545 13.7689 17.7443 15.192 15.7984 16.1504C15.1304 16.4699 14.4334 16.7312 13.7074 16.9345C12.7199 17.225 11.7615 17.3411 10.7741 17.3411ZM9.26385 0.293155C9.06055 0.293155 8.85726 0.35124 8.62492 0.46741C7.57938 1.01922 6.53385 1.60007 5.48832 2.15188L3.36821 3.28454C3.16492 3.37166 2.99066 3.48784 2.84545 3.63305C2.49694 3.98156 2.49694 4.47528 2.84545 4.82379L3.0197 4.99805L2.90353 5.05613C2.87449 5.05613 2.84545 5.08518 2.81641 5.08518C2.29364 5.25943 1.88704 5.43369 1.53853 5.63698C1.19002 5.84028 0.754384 6.10166 0.463959 6.47922C0.260661 6.7406 0.173533 6.97294 0.173533 7.20528C0.173533 7.58283 0.173534 7.96039 0.231619 8.3089C0.318747 9.00592 0.463959 9.70294 0.6963 10.4C1.01577 11.2712 1.45141 12.0844 1.97417 12.8395C2.70024 13.827 3.57151 14.6692 4.61704 15.3372C5.51736 15.9471 6.53385 16.4118 7.57938 16.7022C8.24736 16.9055 8.97343 17.0217 9.69949 17.1088C11.0064 17.225 12.3133 17.1088 13.5621 16.7893C14.2882 16.6151 14.9852 16.3537 15.6242 16.0052C17.541 15.0468 19.0512 13.6527 20.0677 11.8811C20.5033 11.126 20.8228 10.3419 20.997 9.55773C21.1132 9.09305 21.1713 8.71549 21.2003 8.36698C21.2294 8.07656 21.2294 7.78613 21.2584 7.49571C21.2584 7.37953 21.2584 7.26336 21.2584 7.11815V7.08911C21.2003 6.76964 21.0261 6.47922 20.7647 6.21783C20.3 5.7822 19.7482 5.52081 19.2835 5.31751C18.8188 5.11422 18.2961 4.93996 17.6571 4.79475C17.6281 4.79475 17.57 4.76571 17.541 4.70762C17.5119 4.64954 17.541 4.59145 17.57 4.56241C17.6281 4.47528 17.6571 4.38815 17.7152 4.33007L17.7733 4.24294C17.8604 4.06869 17.9766 3.92347 18.0637 3.74922C18.2961 3.40071 18.4994 3.02315 18.7027 2.6456C18.8769 2.32613 18.906 1.97762 18.7608 1.6872C18.6156 1.39677 18.3542 1.19347 17.9766 1.10635C17.6281 1.04826 17.2796 0.990175 16.9601 0.961133C16.8149 0.93209 16.6697 0.932091 16.4954 0.903048C16.0308 0.844963 15.5661 0.786879 15.1304 0.699751L14.143 0.554539L12.807 0.380282C12.6909 0.351239 12.5457 0.35124 12.4295 0.322197C12.1391 0.293155 11.8486 0.235069 11.5582 0.206027C11.1516 0.147942 10.8031 0.351241 10.6289 0.699751C10.5127 0.961134 10.5127 1.25156 10.6579 1.54198C10.8902 2.03571 11.1226 2.52943 11.3549 2.99411L11.6744 3.69113C11.7034 3.74922 11.7325 3.8073 11.7615 3.83634L11.8196 3.98156L11.7034 4.0106C11.7034 4.0106 11.6744 4.0106 11.6453 4.0106H10.5417C10.4836 4.0106 10.3965 3.98156 10.3675 3.86539L10.3384 3.63305C10.2803 3.08124 10.2513 2.52943 10.1932 2.00667L10.1642 1.80337C10.1351 1.54198 10.1061 1.2806 10.048 1.01922C9.96087 0.641666 9.72853 0.380283 9.35098 0.264113C9.43811 0.322198 9.35098 0.293155 9.26385 0.293155ZM10.7741 16.4699C10.5998 16.4699 10.4256 16.4699 10.2803 16.4699C9.69949 16.4408 9.11864 16.3537 8.53779 16.2375C7.55034 16.0052 6.59194 15.6567 5.72066 15.192C4.23949 14.3788 3.07779 13.2461 2.20651 11.8521C1.77087 11.1551 1.45141 10.4 1.21907 9.58677C1.19002 9.44156 1.16098 9.32539 1.13194 9.18017L1.1029 9.03496C1.1029 9.00592 1.1029 8.97688 1.1029 8.97688V8.83166L1.24811 8.88975C1.27715 8.88975 1.27715 8.88975 1.30619 8.91879C1.82896 9.23826 2.38077 9.49964 3.04875 9.6739C3.68768 9.84815 4.23949 9.99336 4.76226 10.1095C5.34311 10.2257 5.953 10.3128 6.41768 10.3709C7.1147 10.458 7.7246 10.5161 8.30545 10.5742C9.52523 10.6613 10.4836 10.6904 11.3549 10.6613C12.3424 10.6323 13.2427 10.5742 14.0849 10.5161C14.7239 10.458 15.4209 10.3709 16.176 10.2547C17.3377 10.0514 18.2961 9.81911 19.1674 9.4706C19.603 9.29634 19.9806 9.12209 20.3 8.91879C20.3291 8.88975 20.3581 8.88975 20.3871 8.88975H20.4162L20.5324 8.91879V9.00592V9.09305C20.5324 9.15113 20.5033 9.20921 20.5033 9.29634C20.271 10.3128 19.8644 11.2422 19.3126 12.0844C18.6736 13.0719 17.8604 13.9432 16.873 14.6402C16.0889 15.221 15.2176 15.6567 14.2592 15.9761C13.0684 16.2666 11.9358 16.4699 10.7741 16.4699ZM1.24811 9.03496L1.27715 9.12209C1.30619 9.2673 1.33524 9.38347 1.36428 9.52868C1.59662 10.3419 1.91609 11.0679 2.32268 11.765C3.16492 13.13 4.32662 14.2336 5.77875 15.0468C6.62098 15.5114 7.55034 15.86 8.53779 16.0923C9.11864 16.2085 9.69949 16.2956 10.2513 16.3246C11.5873 16.3827 12.8651 16.2085 14.114 15.7728C15.0433 15.4534 15.9146 15.0177 16.6697 14.4659C17.6281 13.7689 18.4413 12.9267 19.0802 11.9392C19.632 11.097 20.0096 10.1967 20.2419 9.18017C20.2419 9.12209 20.271 9.09305 20.271 9.03496C19.9225 9.23826 19.574 9.41251 19.1383 9.58677C18.267 9.93528 17.3086 10.1676 16.1179 10.3709C15.3628 10.4871 14.6948 10.5742 14.0268 10.6323C13.1846 10.6904 12.3133 10.7485 11.2968 10.7775C10.3965 10.8066 9.46715 10.7775 8.21832 10.6904C7.66651 10.6613 7.02758 10.5742 6.33055 10.4871C5.86587 10.429 5.25598 10.3419 4.67513 10.2257C4.15236 10.1095 3.60055 9.96432 2.93258 9.79007C2.32268 9.61581 1.74183 9.35443 1.24811 9.03496ZM10.9774 9.90624C9.72853 9.90624 8.71204 9.87719 7.66651 9.76102H7.5213C6.96949 9.70294 6.38864 9.64486 5.83683 9.55773C4.93651 9.41251 4.12332 9.23826 3.36821 9.00592C2.84545 8.83166 2.23556 8.62836 1.68375 8.27985C1.50949 8.16368 1.27715 8.01847 1.1029 7.78613C0.899598 7.52475 0.899598 7.26337 1.1029 7.00198C1.33524 6.68251 1.68375 6.47922 2.00321 6.334C2.4679 6.10166 2.99066 5.89837 3.68768 5.69507C3.71673 5.69507 3.71672 5.69507 3.74577 5.66603C3.92002 5.60794 4.09428 5.60794 4.29758 5.72411C5.80779 6.5373 7.34704 7.35049 8.85725 8.16368L9.46715 8.48315C9.78662 8.65741 10.048 8.68645 10.3384 8.59932C10.6869 8.48315 10.8612 8.22177 10.8902 7.87326C10.8902 7.61188 10.8902 7.32145 10.8612 7.06007L10.8321 6.88581C10.8031 6.39209 10.745 5.86932 10.6869 5.3756L10.6579 5.05613C10.6579 5.02709 10.6579 4.96901 10.6869 4.93996C10.716 4.91092 10.745 4.91092 10.8031 4.91092C11.2678 4.91092 11.7615 4.93996 12.2262 4.93996C12.3424 4.93996 12.4004 5.02709 12.4295 5.08518C12.749 5.72411 13.0394 6.36305 13.3589 7.00198L13.8816 8.1056C14.0268 8.39603 14.172 8.57028 14.4044 8.65741C14.7529 8.83166 15.1595 8.71549 15.4209 8.39603C15.537 8.25081 15.6532 8.07656 15.7403 7.9023L15.7984 7.81518C16.2341 7.11815 16.6407 6.42113 17.0473 5.69507C17.1053 5.5789 17.2215 5.54986 17.3377 5.5789C17.5119 5.63698 17.6862 5.66603 17.8314 5.72411C18.0928 5.81124 18.3832 5.89837 18.6446 5.98549C19.2254 6.18879 19.6901 6.42113 20.0677 6.71156C20.1838 6.79869 20.3 6.91486 20.4162 7.03103C20.6195 7.26337 20.6195 7.55379 20.4452 7.81518C20.2419 8.07656 19.9806 8.25081 19.7482 8.39603C19.3126 8.65741 18.8188 8.86071 18.209 9.03496C17.7443 9.18017 17.2796 9.29634 16.844 9.38347C16.4954 9.4706 16.1179 9.52868 15.5951 9.61581C15.0433 9.70294 14.5786 9.76103 14.172 9.79007C13.6493 9.84815 13.0975 9.87719 12.5457 9.90624C12.11 9.93528 11.6744 9.93528 11.3259 9.93528C11.2097 9.90624 11.0935 9.90624 10.9774 9.90624ZM3.94906 5.72411C3.89098 5.72411 3.83289 5.72411 3.77481 5.75315C3.74577 5.75315 3.71673 5.7822 3.68768 5.7822C2.99066 5.98549 2.49694 6.15975 2.03226 6.42113C1.68375 6.59539 1.39332 6.79868 1.19002 7.06007C1.04481 7.26336 1.04481 7.46666 1.19002 7.66996C1.33523 7.87326 1.56758 8.01847 1.71279 8.13464C2.2646 8.48315 2.84545 8.68645 3.36821 8.83166C4.12332 9.064 4.90747 9.23826 5.83683 9.38347C6.38864 9.4706 6.96949 9.52868 7.5213 9.58677L7.66651 9.61581C8.71204 9.73198 9.72853 9.73198 10.9483 9.76102C11.0645 9.76102 11.1807 9.76102 11.3259 9.76102C11.6744 9.76102 12.11 9.73198 12.5457 9.73198C13.0975 9.70294 13.6493 9.6739 14.172 9.61581C14.5786 9.58677 15.0433 9.52868 15.5951 9.44156C16.0889 9.35443 16.4664 9.29635 16.8149 9.20922C17.2506 9.12209 17.7152 8.97687 18.1799 8.8607C18.7608 8.68645 19.2545 8.48315 19.6611 8.25081C19.8934 8.1056 20.1548 7.96038 20.3291 7.699C20.4743 7.4957 20.4743 7.29241 20.3 7.08911C20.2129 6.97294 20.0967 6.85677 19.9806 6.76964C19.603 6.47922 19.1674 6.27592 18.5865 6.07262C18.3251 5.98549 18.0347 5.89836 17.7733 5.81124C17.5991 5.75315 17.4248 5.72411 17.2506 5.66603C17.1925 5.63698 17.1634 5.66603 17.1344 5.72411C16.7278 6.42113 16.2921 7.14719 15.8856 7.84421L15.8275 7.9023C15.7113 8.07656 15.6242 8.25081 15.479 8.39603C15.1885 8.77358 14.6948 8.88975 14.2882 8.71549C14.0268 8.59932 13.8526 8.39602 13.7074 8.07656L13.1846 6.97294C12.8651 6.334 12.5747 5.69507 12.2552 5.05613C12.2262 4.99805 12.2262 4.99805 12.1971 4.99805C11.7325 4.99805 11.2387 4.969 10.7741 4.969L10.8031 5.28847C10.8612 5.7822 10.8902 6.30496 10.9483 6.79869L10.9774 6.97294C11.0064 7.23432 11.0354 7.52475 11.0064 7.81518C10.9774 8.22177 10.745 8.54124 10.3675 8.68645C10.077 8.80262 9.75758 8.74453 9.38002 8.57028L8.77013 8.25081C7.25992 7.43762 5.72066 6.62443 4.21045 5.81124C4.12332 5.75315 4.03619 5.72411 3.94906 5.72411ZM14.7239 7.93134L14.6658 7.87326C14.6658 7.84422 14.6367 7.84422 14.6077 7.81518C14.5786 7.78613 14.5206 7.72805 14.4915 7.66996C13.9107 6.45018 13.3008 5.23039 12.7199 4.0106L11.442 1.33869C11.442 1.30964 11.413 1.2806 11.413 1.2806C11.384 1.19347 11.3549 1.13539 11.384 1.0773C11.413 1.01922 11.5001 1.01922 11.6163 1.01922L16.0889 1.65815C16.5245 1.71624 16.9892 1.77433 17.4248 1.86145C17.541 1.8905 17.6862 1.89049 17.8024 1.91954C17.9476 1.94858 18.0637 2.00666 18.0928 2.09379C18.1218 2.18092 18.1218 2.29709 18.0347 2.41326C17.8604 2.70369 17.6862 3.02315 17.5119 3.31358L17.3958 3.51688C16.5535 4.91092 15.7113 6.334 14.8691 7.72805C14.84 7.78613 14.7819 7.81517 14.7529 7.87326C14.7239 7.9023 14.7239 7.9023 14.6948 7.93134H14.7239ZM11.5582 1.13539C11.5582 1.16443 11.5582 1.16443 11.5873 1.19347C11.5873 1.22252 11.6163 1.22252 11.6163 1.25156L12.8942 3.92347C13.475 5.14326 14.0849 6.36305 14.6658 7.58283C14.6948 7.61188 14.7239 7.64092 14.7529 7.699C14.7819 7.66996 14.811 7.64092 14.84 7.58283C15.6823 6.18879 16.5245 4.76571 17.3667 3.37166L17.4829 3.16837C17.6571 2.87794 17.8314 2.58752 18.0057 2.26805C18.0347 2.20996 18.0637 2.12284 18.0347 2.06475C18.0057 2.00666 17.9185 1.97762 17.8604 1.97762C17.7443 1.94858 17.6281 1.94858 17.4829 1.91954C17.0473 1.86145 16.5826 1.80337 16.1469 1.71624L11.6744 1.0773C11.6163 1.13539 11.5873 1.13539 11.5582 1.13539ZM9.98991 7.84421C9.93183 7.84421 9.87374 7.81517 9.8447 7.78613C9.32194 7.52475 8.79917 7.23432 8.2764 6.97294L4.18141 4.79475C3.97811 4.67858 3.77481 4.56241 3.57151 4.47528C3.51343 4.44624 3.48438 4.4172 3.45534 4.38815C3.4263 4.38815 3.4263 4.35911 3.39726 4.35911L3.33917 4.30103L3.39726 4.24294C3.4263 4.2139 3.4263 4.2139 3.45534 4.18486C3.48438 4.15581 3.54247 4.09773 3.60055 4.06869C4.23949 3.72018 4.90747 3.37167 5.5464 3.02315L9.06055 1.13539C9.20577 1.0773 9.32194 1.04826 9.40906 1.10635C9.49619 1.16443 9.55428 1.25156 9.58332 1.42581L9.69949 2.58752C9.75758 3.0522 9.78662 3.51688 9.8447 3.98156C9.87374 4.4172 9.93183 4.82379 9.96087 5.25943C9.98992 5.63698 10.019 6.04358 10.077 6.42113C10.1061 6.68251 10.1351 6.97294 10.1642 7.23432L10.1932 7.61188C10.1932 7.69901 10.1932 7.81517 10.1351 7.84421C10.019 7.84421 10.019 7.84421 9.98991 7.84421ZM3.54247 4.27198C3.57151 4.30103 3.60055 4.33007 3.6296 4.33007C3.83289 4.44624 4.03619 4.56241 4.23949 4.64954L8.33449 6.82773C8.85726 7.11815 9.38002 7.37953 9.90279 7.64092C9.93183 7.66996 9.96087 7.66996 9.96087 7.66996C9.96087 7.66996 9.96087 7.61187 9.96087 7.55379L9.93183 7.20528C9.90279 6.9439 9.87374 6.65347 9.8447 6.39209C9.81566 6.01453 9.78662 5.60794 9.72853 5.23039C9.69949 4.79475 9.64141 4.38815 9.61236 3.95252C9.58332 3.48783 9.52523 3.02315 9.46715 2.55847L9.35098 1.39677C9.35098 1.30964 9.32194 1.22252 9.26385 1.19347C9.20577 1.16443 9.11864 1.19347 9.03151 1.22252L8.97343 1.16443L9.00247 1.22252L5.48832 3.11028C4.84938 3.45879 4.18141 3.8073 3.54247 4.15581C3.60056 4.2139 3.57151 4.24294 3.54247 4.27198Z" fill="#CC2128"/>
<path d="M16.0623 3.42956C16.0623 3.63286 15.917 3.77808 15.7137 3.77808C15.5104 3.77808 15.3652 3.60382 15.3652 3.42956C15.3652 3.22627 15.5395 3.08105 15.7137 3.08105C15.917 3.08105 16.0623 3.22627 16.0623 3.42956Z" fill="#CC2128"/>
<path d="M15.7132 3.83614C15.5971 3.83614 15.4809 3.77805 15.4228 3.71997C15.3357 3.63284 15.3066 3.54571 15.3066 3.42954C15.3066 3.31337 15.3647 3.1972 15.4228 3.13912C15.5099 3.05199 15.6261 3.02295 15.7132 3.02295C15.9456 3.02295 16.1198 3.1972 16.1198 3.45859C16.1198 3.66189 15.9456 3.83614 15.7132 3.83614ZM15.7132 3.13912C15.6261 3.13912 15.568 3.16816 15.5099 3.22625C15.4519 3.28433 15.4228 3.34242 15.4228 3.42954C15.4228 3.51667 15.4519 3.57476 15.5099 3.63284C15.568 3.69093 15.6261 3.71997 15.7132 3.71997C15.8584 3.71997 15.9746 3.6038 15.9746 3.42954C15.9746 3.25529 15.8584 3.13912 15.7132 3.13912Z" fill="#CC2128"/>
<path d="M14.1454 3.08081C13.9421 3.08081 13.7969 2.90656 13.7969 2.7323C13.7969 2.529 13.9421 2.38379 14.1454 2.38379C14.3487 2.38379 14.4939 2.55805 14.4939 2.7323C14.4939 2.90656 14.3196 3.08081 14.1454 3.08081Z" fill="#CC2128"/>
<path d="M14.1449 3.13911C14.0287 3.13911 13.9125 3.08102 13.8545 3.02294C13.7673 2.93581 13.7383 2.81964 13.7383 2.70347C13.7383 2.47113 13.9416 2.29688 14.1739 2.29688C14.2901 2.29688 14.4063 2.35496 14.4643 2.44209C14.5515 2.52922 14.5805 2.64539 14.5805 2.73251C14.5805 2.93581 14.3772 3.13911 14.1449 3.13911ZM14.1449 2.44209C13.9997 2.44209 13.8545 2.55826 13.8545 2.70347C13.8545 2.7906 13.8835 2.84868 13.9416 2.90677C13.9997 2.96485 14.0577 2.99389 14.1449 2.99389C14.2901 2.99389 14.4353 2.87772 14.4353 2.70347C14.4353 2.64538 14.4063 2.55826 14.3482 2.50017C14.2901 2.47113 14.232 2.44209 14.1449 2.44209Z" fill="#CC2128"/>
<path d="M14.8126 4.73633C15.0159 4.73633 15.1611 4.88154 15.1611 5.08484C15.1611 5.28814 15.0159 5.43335 14.8126 5.43335C14.6384 5.43335 14.4641 5.2591 14.4641 5.08484C14.4351 4.88154 14.6093 4.73633 14.8126 4.73633Z" fill="#CC2128"/>
<path d="M14.7833 5.49165C14.551 5.49165 14.3477 5.28835 14.3477 5.05601C14.3477 4.93984 14.3767 4.82367 14.4638 4.76558C14.551 4.67846 14.6671 4.64941 14.7833 4.64941C15.0156 4.64941 15.1899 4.82367 15.1899 5.05601C15.1899 5.17218 15.1318 5.28835 15.0737 5.37548C15.0156 5.46261 14.8995 5.49165 14.7833 5.49165ZM14.7833 4.79463C14.6962 4.79463 14.6381 4.82367 14.58 4.88175C14.5219 4.93984 14.4929 4.99792 14.4929 5.08505C14.4929 5.23027 14.609 5.37548 14.7833 5.37548C14.8414 5.37548 14.9285 5.34643 14.9866 5.28835C15.0447 5.23026 15.0737 5.17218 15.0737 5.08505C15.0737 4.9108 14.9575 4.79463 14.7833 4.79463Z" fill="#CC2128"/>
<path d="M6.39045 3.80736C6.50662 3.80736 6.62279 3.77832 6.73896 3.77832C6.88417 3.77832 7.00034 3.86545 7.05843 3.98162C7.11651 4.12683 7.08747 4.243 7.00034 4.35917C6.91321 4.47534 6.768 4.50438 6.62279 4.47534C6.5647 4.47534 6.50662 4.47534 6.47758 4.47534C6.33236 4.50438 6.21619 4.47534 6.10002 4.35917C6.01289 4.243 5.98385 4.12683 6.04194 3.98162C6.12907 3.86545 6.24524 3.77832 6.39045 3.80736Z" fill="#CC2128"/>
<path d="M6.36181 4.56253C6.24564 4.56253 6.12947 4.50445 6.04234 4.41732C5.92617 4.27211 5.89713 4.1269 5.98425 3.95264C6.07138 3.80743 6.21659 3.69126 6.36181 3.7203H6.47798C6.56511 3.7203 6.65223 3.7203 6.73936 3.7203C6.91362 3.7203 7.02979 3.80743 7.11691 3.98168C7.20404 4.15594 7.175 4.30115 7.05883 4.44636C6.94266 4.56253 6.79745 4.62062 6.62319 4.56253C6.59415 4.56253 6.53606 4.56253 6.50702 4.56253C6.44893 4.56253 6.41989 4.56253 6.36181 4.56253ZM6.33277 3.86551C6.24564 3.86551 6.15851 3.9236 6.12947 4.01073C6.07138 4.1269 6.10042 4.21402 6.18755 4.30115C6.27468 4.38828 6.36181 4.41732 6.47798 4.38828C6.53606 4.35924 6.59415 4.35924 6.65223 4.38828C6.7684 4.41732 6.85553 4.38828 6.94266 4.30115C7.02979 4.21402 7.02978 4.09785 7.00074 4.01073C6.94266 3.89456 6.88457 3.83647 6.7684 3.83647C6.68128 3.83647 6.59415 3.83647 6.50702 3.83647H6.39085C6.36181 3.86551 6.36181 3.86551 6.33277 3.86551Z" fill="#CC2128"/>
<path d="M8.79858 5.43347C8.79858 5.63677 8.65337 5.78198 8.45007 5.78198C8.24677 5.78198 8.10156 5.63677 8.10156 5.43347C8.10156 5.25922 8.27582 5.08496 8.45007 5.08496C8.65337 5.08496 8.79858 5.23017 8.79858 5.43347Z" fill="#CC2128"/>
<path d="M8.45126 5.84028C8.33509 5.84028 8.21892 5.7822 8.1318 5.72411C8.04467 5.63699 8.01562 5.54986 8.01562 5.43369C8.01562 5.20134 8.21892 4.99805 8.45126 4.99805C8.56743 4.99805 8.65456 5.02709 8.74169 5.11422C8.82882 5.20135 8.85786 5.31751 8.85786 5.43369C8.8869 5.66603 8.71265 5.84028 8.45126 5.84028ZM8.45126 5.14326C8.30605 5.14326 8.16084 5.28847 8.16084 5.43369C8.16084 5.52081 8.18988 5.5789 8.24797 5.63698C8.30605 5.69507 8.36414 5.72411 8.45126 5.72411C8.59648 5.72411 8.71265 5.60794 8.71265 5.46273C8.71265 5.3756 8.68361 5.31752 8.62552 5.25943C8.59648 5.1723 8.53839 5.14326 8.45126 5.14326Z" fill="#CC2128"/>
<path d="M7.95703 3.40076C7.95703 3.19746 8.13129 3.05225 8.33459 3.05225C8.50884 3.05225 8.6831 3.2265 8.65405 3.4298C8.65405 3.6331 8.4798 3.77831 8.2765 3.77831C8.10224 3.77831 7.95703 3.60405 7.95703 3.40076Z" fill="#CC2128"/>
<path d="M8.30623 3.83637C8.04485 3.83637 7.8706 3.63308 7.89964 3.40074C7.89964 3.28457 7.95772 3.1684 8.04485 3.11031C8.13198 3.02318 8.24815 2.99414 8.36432 2.99414C8.48049 2.99414 8.56762 3.05223 8.65475 3.13935C8.74187 3.22648 8.77092 3.34265 8.77092 3.42978C8.71283 3.66212 8.53857 3.83637 8.30623 3.83637ZM8.33528 3.13935C8.24815 3.13935 8.19006 3.1684 8.13198 3.22648C8.07389 3.28457 8.04485 3.34265 8.04485 3.42978C8.04485 3.57499 8.16102 3.7202 8.30623 3.7202C8.45145 3.7202 8.59666 3.60404 8.59666 3.45882C8.59666 3.40074 8.56762 3.31361 8.50953 3.25552C8.48049 3.1684 8.39336 3.13935 8.33528 3.13935Z" fill="#CC2128"/>
</svg>
