<svg width="8" height="12" viewBox="0 0 8 12" fill="none" xmlns="http://www.w3.org/2000/svg">
<g clip-path="url(#clip0)">
<path d="M3.3609 8.45451L2.90783 8.35242C1.94341 8.26517 1.03124 7.91559 0.292425 7.3501C0.151043 7.25257 0.0496255 7.11545 0.00411259 6.96031C-0.0196319 6.83854 -0.0105083 6.71341 0.0307126 6.59549C0.0719335 6.47757 0.14404 6.37032 0.240941 6.28282C0.369277 6.15561 0.544745 6.07503 0.734362 6.05623C0.923978 6.03743 1.11468 6.08171 1.27063 6.18073C1.48686 6.2921 1.67221 6.43131 1.88844 6.54268C2.3704 6.76471 2.89432 6.90323 3.43297 6.95103C4.2343 7.04419 5.04867 6.94162 5.79096 6.65405C6.04306 6.54638 6.28424 6.41906 6.51174 6.27354C6.7152 6.13912 6.95972 6.06457 7.21193 6.06008C7.36467 6.06235 7.51333 6.10486 7.63958 6.18237C7.76583 6.25988 7.86415 6.369 7.92242 6.49627C7.97169 6.57414 8.00333 6.66005 8.01549 6.74902C8.02766 6.83799 8.02012 6.92826 7.9933 7.01458C7.96648 7.1009 7.92093 7.18157 7.85927 7.25191C7.79761 7.32225 7.72108 7.38086 7.6341 7.42435C7.25836 7.71891 6.83018 7.95423 6.36759 8.1204C5.91537 8.27251 5.44564 8.37836 4.96721 8.43595H4.6583L4.75098 8.53804L7.13985 10.6912C7.26441 10.791 7.34977 10.9245 7.38317 11.0717C7.41658 11.219 7.39624 11.372 7.3252 11.5079C7.25998 11.6476 7.15149 11.7674 7.01271 11.853C6.87392 11.9386 6.71073 11.9863 6.54263 11.9905C6.44592 11.9898 6.35037 11.9714 6.26184 11.9363C6.17331 11.9012 6.09367 11.8501 6.02779 11.7863L4.29791 10.255L4.12287 10.0601C4.07138 10.0044 4.03019 10.0044 3.96841 10.0601L3.0108 10.9232C2.6813 11.2202 2.3621 11.5172 1.98111 11.8049C1.84291 11.9251 1.65834 11.9923 1.46627 11.9923C1.2742 11.9923 1.08963 11.9251 0.951426 11.8049C0.803276 11.6892 0.701875 11.5325 0.663113 11.3594C0.640057 11.2549 0.645841 11.147 0.679957 11.045C0.714072 10.9431 0.775473 10.8502 0.858754 10.7747L2.14586 9.6146L3.27852 8.54732L3.3609 8.45451Z" fill="white"/>
<path d="M3.9995 1.38095e-05C4.66719 -0.00180126 5.32041 0.175346 5.87613 0.508942C6.43185 0.842538 6.86498 1.31752 7.12047 1.87352C7.37597 2.42952 7.4423 3.04143 7.31102 3.63149C7.17974 4.22154 6.85679 4.7631 6.38321 5.18733C5.90963 5.61155 5.3068 5.8993 4.65135 6.01398C3.99589 6.12867 3.3174 6.06513 2.70211 5.83143C2.08682 5.59773 1.56251 5.20443 1.19581 4.7015C0.829117 4.19858 0.636597 3.60875 0.64272 3.00697C0.64816 2.20778 1.00422 1.44298 1.63315 0.879596C2.26208 0.316209 3.11279 -1.23093e-06 3.9995 1.38095e-05ZM2.33141 3.01625C2.3274 3.31318 2.42103 3.60453 2.6005 3.85355C2.77997 4.10258 3.03724 4.29813 3.33985 4.41553C3.64247 4.53294 3.97689 4.56695 4.30092 4.51327C4.62495 4.45959 4.9241 4.32063 5.16062 4.11391C5.39714 3.90719 5.56044 3.64197 5.62994 3.3517C5.69944 3.06143 5.67201 2.75912 5.55112 2.48288C5.43023 2.20664 5.22129 1.96886 4.95065 1.79952C4.68001 1.63017 4.3598 1.53686 4.03039 1.53134C3.81047 1.52765 3.59192 1.5632 3.3873 1.63595C3.18268 1.70869 2.99605 1.8172 2.83814 1.95521C2.68023 2.09322 2.55417 2.25802 2.4672 2.44012C2.38024 2.62221 2.33409 2.81802 2.33141 3.01625Z" fill="white"/>
</g>
<defs>
<clipPath id="clip0">
<rect width="8" height="12" fill="white"/>
</clipPath>
</defs>
</svg>
