<svg width="11" height="11" viewBox="0 0 11 11" fill="none" xmlns="http://www.w3.org/2000/svg">
<path d="M6.79576 6.60396H4.21038V11H1.5007C1.21073 11 1.0655 10.8484 1.06526 10.5391C1.06526 8.91428 1.06526 7.28949 1.06526 5.66469V5.52015C1.04184 5.53199 1.01916 5.54545 0.997388 5.56045C0.71107 5.79442 0.351286 5.76478 0.138676 5.48688C-0.0787996 5.20299 -0.0367153 4.81096 0.238413 4.56243L2.6051 2.42108L5.06447 0.196806C5.35225 -0.063161 5.6427 -0.0665406 5.92902 0.192387C7.53455 1.64456 9.14007 3.097 10.7456 4.5497C11.0339 4.80966 11.0825 5.19077 10.8641 5.48142C10.6456 5.77206 10.2892 5.79702 9.98832 5.54927C9.97859 5.54147 9.96838 5.53445 9.9331 5.50871V5.66911C9.9331 7.2894 9.9331 8.90986 9.9331 10.5305C9.9331 10.6756 9.91243 10.8141 9.79761 10.9017C9.73217 10.9516 9.64435 10.9951 9.56627 10.9956C8.65817 11.0018 7.75008 10.9997 6.84174 10.9992C6.82571 10.9968 6.80992 10.9929 6.79455 10.9875L6.79576 6.60396Z" fill="#CC2128"/>
</svg>
