<svg width="14" height="15" viewBox="0 0 14 15" fill="none" xmlns="http://www.w3.org/2000/svg">
<g clip-path="url(#clip0)">
<path d="M10.2852 0.000353615C10.4111 0.024376 10.5373 0.0459255 10.6634 0.072774C11.4965 0.252942 12.1717 0.691349 12.6699 1.40071C13.2933 2.28848 13.4205 3.25149 13.0533 4.28198C12.8721 4.79104 12.5654 5.21285 12.1975 5.59155C10.5232 7.31409 8.84823 9.0364 7.17273 10.7585C6.69517 11.2509 6.12857 11.5328 5.45161 11.542C4.78427 11.5509 4.18363 11.3626 3.73736 10.8129C3.42793 10.4331 3.31207 9.9834 3.32135 9.49907C3.32788 9.15428 3.38667 8.81796 3.53898 8.50285C3.67651 8.22023 3.87145 7.98425 4.08496 7.76345C4.54337 7.28866 5.00488 6.81587 5.46948 6.34508C5.95884 5.84508 6.44866 5.34544 6.93893 4.84615C7.42508 4.3484 7.91295 3.85099 8.39429 3.3497C8.6267 3.10807 8.97877 3.08404 9.20981 3.30484C9.44085 3.52563 9.45907 3.8895 9.22528 4.14032C8.90588 4.48299 8.57376 4.81365 8.24679 5.14891C7.58209 5.83072 6.91681 6.51229 6.25097 7.19363C5.80034 7.65524 5.34926 8.11672 4.89772 8.57809C4.66428 8.81514 4.50647 9.0868 4.46177 9.42841C4.40642 9.84951 4.65809 10.213 5.06413 10.3261C5.56953 10.4674 5.99586 10.3148 6.35927 9.93995C6.89607 9.38649 7.43402 8.83421 7.97312 8.28311C8.46156 7.78124 8.94954 7.27912 9.43707 6.77677C9.92528 6.27478 10.418 5.77737 10.9014 5.27043C11.1967 4.96061 11.5099 4.66069 11.7609 4.31413C12.311 3.55107 12.2519 2.63998 11.6361 1.9338C11.0416 1.25305 10.2973 1.03579 9.43913 1.24598C9.03653 1.34419 8.70406 1.577 8.41285 1.87692C7.31839 3.00362 6.22346 4.12949 5.12808 5.25453C4.24953 6.15749 3.37132 7.0608 2.49345 7.96446C2.27685 8.18773 2.05647 8.40782 1.85568 8.64522C1.42454 9.15569 1.19522 9.75731 1.14262 10.4289C1.08104 11.1358 1.26069 11.8427 1.65077 12.4284C2.06609 13.0643 2.6327 13.5023 3.35436 13.7055C4.37926 13.9941 5.3213 13.8001 6.15023 13.1187C6.45141 12.8714 6.7103 12.5686 6.985 12.2874C7.52089 11.7382 8.0554 11.1876 8.58854 10.6355L10.3076 8.86424L12.0387 7.0767C12.3595 6.74639 12.6813 6.41714 13.0014 6.08401C13.1647 5.91338 13.3551 5.84202 13.5827 5.90031C13.6805 5.92235 13.77 5.97291 13.8405 6.04591C13.911 6.11891 13.9595 6.21125 13.9802 6.31187C14.0428 6.57046 13.9396 6.77536 13.7629 6.95659C12.9941 7.74485 12.227 8.53476 11.4614 9.32632C10.7573 10.0508 10.0526 10.7745 9.34733 11.4975C8.62361 12.2433 7.90607 12.9954 7.17788 13.7362C6.45588 14.471 5.58157 14.8797 4.57076 14.9811C4.54812 14.9851 4.52582 14.9909 4.50406 14.9984H3.89723C3.75215 14.974 3.60706 14.9507 3.46231 14.9249C2.59797 14.7713 1.85774 14.3668 1.23579 13.7372C0.881255 13.3779 0.593887 12.9547 0.387951 12.4888C0.00750749 11.6497 -0.0987412 10.7067 0.0850532 9.80041C0.256959 8.92359 0.672283 8.17961 1.28839 7.54831C3.41269 5.37029 5.53527 3.19085 7.65612 1.01C8.13505 0.5186 8.70544 0.197478 9.37518 0.0671216C9.4852 0.0459254 9.59488 0.0226093 9.7049 0L10.2852 0.000353615Z" fill="white"/>
</g>
<defs>
<clipPath id="clip0">
<rect width="14" height="15" fill="white"/>
</clipPath>
</defs>
</svg>
