<svg width="13" height="14" viewBox="0 0 13 14" fill="none" xmlns="http://www.w3.org/2000/svg">
<path d="M12.9998 6.50062C12.9998 7.43947 12.9998 8.37832 12.9998 9.31717C12.9933 10.0527 12.7643 10.769 12.3429 11.3719C11.9216 11.9747 11.3275 12.4359 10.639 12.6947C10.0533 12.9133 9.43105 13.0172 8.80612 13.0005C7.17773 13.0005 5.54935 13.0005 3.92097 13.0005C3.13297 13.0186 2.35803 12.7971 1.6985 12.3655C0.901624 11.8721 0.328611 11.0874 0.101287 10.1781C0.0359668 9.90035 0.00199229 9.61614 0 9.33081C0 7.48037 0 5.62994 0 3.76977C0 2.81533 0.266852 1.95829 0.946643 1.26681C1.58883 0.573655 2.46107 0.137538 3.4009 0.039681C3.98525 -0.0129103 4.5696 0.00267235 5.14226 0.000724523C6.38497 0.000724523 7.62963 0.000724523 8.87429 0.000724523C9.7177 0.000724523 10.528 0.137072 11.2487 0.60455C12.048 1.0819 12.6321 1.8495 12.879 2.74716C12.9536 3.05327 12.9922 3.36705 12.9939 3.68211C13.0076 4.62097 12.9939 5.55982 12.9939 6.49867L12.9998 6.50062ZM0.973912 6.50062C0.973912 7.44921 0.973912 8.39585 0.973912 9.34444C0.973912 10.445 1.55826 11.191 2.49322 11.7013C2.94781 11.9306 3.45305 12.0412 3.96188 12.0227C5.63895 12.0227 7.31603 12.0227 8.99311 12.0227C9.57587 12.0328 10.1505 11.8854 10.6566 11.5961C11.537 11.0858 12.02 10.3339 12.02 9.31133C12.0317 7.4122 12.0356 5.51307 12.02 3.61199C12.02 2.4881 11.3831 1.74598 10.4228 1.25318C9.99082 1.04823 9.51571 0.950669 9.03791 0.968794C7.37057 0.968794 5.70323 0.968794 4.03395 0.968794C3.4996 0.954793 2.96996 1.07182 2.49127 1.30966C1.55826 1.79467 0.995339 2.55043 0.973912 3.63147C0.950539 4.58785 0.973912 5.54423 0.973912 6.50062Z" fill="white"/>
<path d="M6.50559 9.27819C5.91136 9.26936 5.33301 9.085 4.84328 8.74831C4.35355 8.41162 3.97432 7.93764 3.75328 7.38598C3.53224 6.83431 3.47927 6.22961 3.60102 5.64791C3.72278 5.06622 4.01382 4.53352 4.43754 4.11681C4.86127 3.7001 5.39876 3.41799 5.9824 3.30597C6.56605 3.19395 7.16979 3.25701 7.71768 3.48723C8.26558 3.71745 8.73316 4.10454 9.06163 4.59982C9.39009 5.0951 9.56476 5.67645 9.56368 6.27075C9.55443 7.07429 9.22766 7.84153 8.65471 8.40499C8.08176 8.96845 7.30917 9.28236 6.50559 9.27819ZM4.42726 6.26491C4.41953 6.67869 4.53515 7.08541 4.75941 7.43323C4.98367 7.78106 5.30641 8.05424 5.68649 8.21798C6.06658 8.38172 6.48681 8.42859 6.89363 8.35262C7.30045 8.27666 7.67545 8.0813 7.97083 7.79143C8.26622 7.50157 8.46862 7.13032 8.55225 6.72501C8.63588 6.31969 8.59694 5.89865 8.4404 5.51554C8.28387 5.13244 8.01682 4.80461 7.67329 4.57382C7.32975 4.34304 6.92529 4.21976 6.51143 4.21969C5.96475 4.21758 5.4393 4.43115 5.0491 4.81405C4.65891 5.19695 4.43546 5.71828 4.42726 6.26491Z" fill="white"/>
<path d="M10.5586 2.9982C10.554 3.12402 10.5124 3.24569 10.4391 3.34803C10.3658 3.45037 10.264 3.52885 10.1463 3.57367C10.0287 3.61849 9.90041 3.62766 9.77759 3.60004C9.65476 3.57242 9.54278 3.50923 9.45564 3.41836C9.36851 3.32749 9.31007 3.21297 9.28762 3.08909C9.26517 2.96521 9.2797 2.83747 9.32941 2.7218C9.37912 2.60613 9.46179 2.50767 9.56712 2.4387C9.67245 2.36973 9.79575 2.33331 9.92165 2.33399C10.0932 2.34056 10.2555 2.41348 10.3743 2.5374C10.4932 2.66131 10.5592 2.82652 10.5586 2.9982Z" fill="#CC2128"/>
</svg>
