<svg width="10" height="10" viewBox="0 0 10 10" fill="none" xmlns="http://www.w3.org/2000/svg">
<g clip-path="url(#clip0)">
<path d="M2.61118 1.10993L2.61125 1.11L6.50164 4.99278L2.61118 8.88324C2.4481 9.04632 2.4481 9.31119 2.61118 9.47427C2.77426 9.63735 3.03913 9.63735 3.20221 9.47427L7.38051 5.29597C7.46162 5.21486 7.50282 5.11176 7.50282 5.00046C7.50282 4.8982 7.4625 4.78694 7.38051 4.70494L3.20321 0.527648C3.04 0.355505 2.77429 0.355782 2.61118 0.518894C2.4481 0.681978 2.4481 0.946845 2.61118 1.10993Z" fill="white" stroke="white" stroke-width="0.2"/>
</g>
<defs>
<clipPath id="clip0">
<rect width="10" height="10" fill="white" transform="matrix(4.37114e-08 1 1 -4.37114e-08 0 0)"/>
</clipPath>
</defs>
</svg>
