<svg width="28" height="28" viewBox="0 0 28 28" fill="none" xmlns="http://www.w3.org/2000/svg">
<g clip-path="url(#clip0)">
<path d="M14.0055 0.00329036H26.2702C27.0275 0.00329036 27.6566 0.428063 27.8911 1.12925C27.9665 1.37372 28.0028 1.62854 27.9989 1.88433C28.0054 4.81738 28.0066 7.75043 28.0024 10.6835C28.0024 15.8619 28.0024 21.0404 28.0024 26.2188C28.0024 26.8045 27.798 27.2888 27.3312 27.6485C27.0229 27.8842 26.6434 28.0076 26.2555 27.9984C23.9464 27.9951 21.6368 27.9951 19.3267 27.9984C13.5065 27.9984 7.68608 27.9998 1.86543 28.0026C1.25583 28.0026 0.745623 27.8255 0.36069 27.3392C0.120523 27.0327 -0.00565182 26.6522 0.00375189 26.2629C0.00375189 24.123 0.00375189 21.9828 0.00375189 19.8423C0.00375189 13.8129 0.0023523 7.78356 -0.00044721 1.75417C-0.00203447 1.52295 0.0423998 1.29372 0.130269 1.07984C0.218138 0.865962 0.347686 0.671698 0.511369 0.508362C0.675052 0.345025 0.869598 0.215881 1.08368 0.128449C1.29776 0.0410168 1.5271 -0.00295577 1.75835 -0.000908208C5.84074 0.00958864 9.92313 0.00329036 14.0055 0.00329036ZM26.8791 13.9991C26.8791 9.92351 26.8791 5.8477 26.8791 1.77166C26.8791 1.34479 26.6565 1.12295 26.2352 1.12295H1.81154C1.32932 1.12295 1.12356 1.33289 1.12356 1.81575V6.76606C1.12356 13.2331 1.12169 19.6993 1.11796 26.1649C1.11796 26.6191 1.37061 26.8808 1.82973 26.8801C6.54225 26.8708 11.2548 26.8692 15.9673 26.8752C19.3845 26.8752 22.8018 26.8752 26.2191 26.8752C26.312 26.8792 26.4048 26.8681 26.4941 26.8423C26.7664 26.7479 26.8812 26.5526 26.8812 26.2125L26.8791 13.9991Z" fill="#CC2128"/>
<path d="M14.5614 9.51378C14.5614 11.1289 14.5614 12.744 14.5649 14.3591C14.5649 14.5222 14.5166 14.5635 14.355 14.5628C11.1332 14.5609 7.90933 14.5611 4.68337 14.5635C4.5203 14.5635 4.479 14.5152 4.479 14.3535C4.4818 11.1252 4.4832 7.89587 4.4832 4.66563C4.4832 4.51868 4.5287 4.47949 4.67217 4.47949C7.9028 4.48276 11.1334 4.48276 14.3641 4.47949C14.5271 4.47949 14.5684 4.52778 14.5684 4.68943C14.5614 6.29545 14.5614 7.90427 14.5614 9.51378ZM9.52231 5.60265C8.28563 5.60265 7.04965 5.60265 5.81297 5.59846C5.6436 5.59846 5.59811 5.64534 5.59881 5.81399C5.6044 8.29218 5.6044 10.7699 5.59881 13.2472C5.59881 13.4032 5.6415 13.4438 5.79547 13.4438C8.27957 13.4391 10.7634 13.4391 13.2471 13.4438C13.4024 13.4438 13.4437 13.4004 13.4437 13.2465C13.4391 10.7627 13.4391 8.27889 13.4437 5.7951C13.4437 5.64114 13.401 5.59915 13.2464 5.59985C12.0062 5.60615 10.7639 5.60265 9.52231 5.60265Z" fill="#CC2128"/>
<path d="M14.0205 17.9189H22.7158C22.9614 17.9189 22.9614 17.9189 22.9614 18.1653C22.9614 18.3983 22.953 18.632 22.9614 18.865C22.9677 19.005 22.9159 19.0421 22.7809 19.0414C21.5792 19.0414 20.3782 19.0414 19.1772 19.0414H5.35811C5.30002 19.0414 5.24123 19.0372 5.18384 19.0414C5.07606 19.0505 5.04387 19.0029 5.04387 18.9014C5.04877 18.6334 5.05227 18.3647 5.04387 18.0974C5.03827 17.9574 5.08936 17.9203 5.22444 17.9203C6.61229 17.9245 8.00015 17.9203 9.38801 17.9203H14.024L14.0205 17.9189Z" fill="#CC2128"/>
<path d="M14.002 23.5172C11.0863 23.5172 8.17014 23.5172 5.25352 23.5172C5.08625 23.5172 5.02886 23.4745 5.03865 23.3073C5.0516 23.0686 5.0516 22.8294 5.03865 22.5907C5.03025 22.4353 5.08135 22.394 5.23532 22.394C6.5126 22.3996 7.78917 22.394 9.06645 22.394H22.7316C22.9604 22.394 22.9604 22.394 22.9604 22.6208C22.9604 22.8475 22.9506 23.0882 22.9604 23.3206C22.9688 23.4759 22.9177 23.5172 22.7638 23.5172C21.4865 23.5116 20.2099 23.5172 18.9326 23.5172H14.002Z" fill="#CC2128"/>
<path d="M20.7093 5.60239C20.0325 5.60239 19.3564 5.59749 18.6797 5.60659C18.5131 5.60659 18.4697 5.55341 18.4774 5.39665C18.4886 5.14613 18.4837 4.8949 18.4774 4.64437C18.4774 4.52891 18.504 4.47782 18.6328 4.47852C20.0199 4.48179 21.4073 4.48179 22.7949 4.47852C22.9286 4.47852 22.9657 4.52471 22.9615 4.65137C22.9538 4.91379 22.9538 5.17622 22.9615 5.43864C22.9664 5.573 22.9146 5.60589 22.7879 5.60449C22.0965 5.60239 21.4029 5.60239 20.7093 5.60239Z" fill="#CC2128"/>
<path d="M20.7206 10.081C20.0326 10.081 19.3446 10.0775 18.6573 10.081C18.5209 10.081 18.4719 10.0453 18.4775 9.90398C18.488 9.63666 18.4838 9.36794 18.4775 9.09992C18.4775 8.99495 18.5125 8.95996 18.6175 8.95996C20.0172 8.96276 21.417 8.96276 22.8167 8.95996C22.9385 8.95996 22.9623 9.01244 22.9567 9.11811C22.9518 9.38053 22.949 9.64296 22.9567 9.90468C22.9623 10.0446 22.9161 10.0852 22.7782 10.0845C22.0903 10.0782 21.4023 10.0845 20.715 10.0845L20.7206 10.081Z" fill="#CC2128"/>
<path d="M20.7201 14.5597C20.0321 14.5597 19.3442 14.5597 18.6569 14.5597C18.5246 14.5597 18.4679 14.5303 18.4735 14.3854C18.4847 14.1174 18.4805 13.8494 18.4735 13.5814C18.4735 13.4778 18.505 13.4365 18.6135 13.4365C20.0133 13.4393 21.413 13.4393 22.8128 13.4365C22.9331 13.4365 22.9604 13.4848 22.9583 13.5933C22.9534 13.8494 22.9485 14.1062 22.9583 14.363C22.9653 14.5142 22.9219 14.5639 22.7645 14.5618C22.087 14.5548 21.4046 14.5597 20.7201 14.5597Z" fill="#CC2128"/>
</g>
<defs>
<clipPath id="clip0">
<rect width="28" height="28" fill="white"/>
</clipPath>
</defs>
</svg>
