<svg width="16" height="17" viewBox="0 0 16 17" fill="none" xmlns="http://www.w3.org/2000/svg">
<path d="M15.158 16.9695C14.1763 16.9695 13.23 16.9667 12.2836 16.9695C8.92404 16.9801 5.56399 16.9971 2.20443 16.9999C1.56875 16.9999 0.933063 16.9432 0.29738 16.9146C0.114322 16.9063 -0.00373347 16.8505 9.01892e-05 16.6436C0.0297236 15.0059 0.261055 13.4133 1.24278 12.0208C1.8474 11.1639 2.69099 10.567 3.66794 10.1429C3.79798 10.0847 3.93996 10.0554 4.08334 10.0572C4.22672 10.059 4.36784 10.092 4.49624 10.1535C5.35656 10.5407 6.23361 10.9072 7.07721 11.334C7.46292 11.5294 7.75256 11.5299 8.13732 11.334C8.94985 10.9192 9.79774 10.5702 10.6256 10.1817C11.0404 9.98806 11.4214 10.0613 11.8066 10.2545C13.3729 11.0381 14.399 12.2301 14.8388 13.8987C15.1007 14.9003 15.1131 15.9139 15.158 16.9695Z" fill="white"/>
<path d="M7.58118 8.84176C10.1129 8.84176 12.1653 6.86247 12.1653 4.42088C12.1653 1.9793 10.1129 0 7.58118 0C5.04944 0 2.99707 1.9793 2.99707 4.42088C2.99707 6.86247 5.04944 8.84176 7.58118 8.84176Z" fill="white"/>
</svg>
