<svg width="98" height="76" viewBox="0 0 98 76" fill="none" xmlns="http://www.w3.org/2000/svg">
<path d="M98 16C90.7307 24.2505 87.8876 27.5013 87 39L73 41L73 16L98 16Z" fill="#CC2128"/>
<path d="M0 16C7.26925 23.6394 10.1124 26.6493 11 37.2963L25 39.1481L25 16L0 16Z" fill="#CC2128"/>
<circle cx="49" cy="38" r="34.5" fill="white" stroke="#CC2128" stroke-width="7"/>
<path d="M60.6993 31.849C60.5887 31.8412 60.5097 31.8334 60.4386 31.8334C57.508 31.8334 54.5774 31.8334 51.6546 31.8334C48.9531 31.8334 46.2436 31.8334 43.5421 31.8256C42.9891 31.8256 42.6416 31.5672 42.4915 31.0897C42.3651 30.6748 42.6653 30.0329 43.1866 29.9702C43.6053 29.9233 44.0397 29.9076 44.4663 29.9076C48.6213 29.9076 52.7763 29.9076 56.9235 29.9076C58.5981 29.9076 60.2806 29.9076 61.9553 29.9076C62.761 29.9076 63.1007 30.573 62.9743 31.0662C62.9032 31.3402 62.8163 31.6064 62.7294 31.8725C62.374 32.9685 62.0185 34.0645 61.663 35.1604C61.3076 36.2642 60.9442 37.3681 60.5887 38.464C60.2332 39.56 59.8857 40.656 59.5302 41.7519C59.3406 42.3391 59.1589 42.934 58.9536 43.5133C58.7956 43.983 58.4559 44.2101 57.9504 44.2101C57.0419 44.2179 56.1335 44.2101 55.2251 44.2101C52.0417 44.2101 48.8504 44.2101 45.667 44.2101C45.0824 44.2101 44.4979 44.2101 43.9133 44.2101C43.787 44.2101 43.6211 44.1474 43.5421 44.2101C43.4552 44.2727 43.4315 44.4371 43.392 44.5623C43.1708 45.1651 42.9496 45.7757 42.7285 46.3785C42.6574 46.5664 42.6811 46.5977 42.8864 46.5977C44.4979 46.5977 46.1093 46.5977 47.7208 46.5977C49.0874 46.5977 50.4618 46.5977 51.8284 46.5977C53.2266 46.5977 54.6169 46.5977 56.015 46.5977C56.647 46.5977 57.2789 46.5977 57.9109 46.5977C58.1952 46.5977 58.4638 46.6603 58.6455 46.903C58.843 47.1457 58.8904 47.4197 58.7561 47.7094C58.606 48.0381 58.3216 48.1869 57.9662 48.2025C57.7134 48.2104 57.4527 48.2025 57.1841 48.2025C58.2426 49.8308 58.1478 51.3182 56.5522 52.4768C55.4463 53.2832 54.0244 53.1031 52.9975 52.1715C52.4367 51.6627 52.1365 51.0129 52.1049 50.2536C52.0654 49.5021 52.3024 48.8445 52.8079 48.226C50.7067 48.226 48.6608 48.226 46.607 48.226C47.6418 49.8308 47.547 51.3182 45.9593 52.4847C44.9402 53.2362 43.5816 53.1344 42.6653 52.3829C41.2118 51.1852 41.1723 49.7604 42.1834 48.2104C41.9543 48.2104 41.7489 48.2104 41.5436 48.2104C41.196 48.2025 40.9353 48.0538 40.7773 47.7485C40.6667 47.5293 40.6825 47.3023 40.7615 47.0831C41.2197 45.7992 41.6857 44.5232 42.1676 43.2472C42.2308 43.0749 42.373 42.9184 42.5152 42.801C42.6337 42.6992 42.6574 42.6209 42.61 42.4878C42.3967 41.8772 42.1755 41.2588 41.9622 40.6481C41.5278 39.4034 41.0933 38.1665 40.6588 36.9218C40.2481 35.7554 39.8373 34.589 39.4345 33.4225C38.9447 32.0134 38.4549 30.6043 37.9573 29.203C37.8783 28.9839 37.8151 28.7568 37.7124 28.5455C37.6729 28.4593 37.5623 28.3889 37.4675 28.3498C36.1957 27.8487 34.924 27.3634 33.6601 26.8545C33.0044 26.5962 32.7991 25.9073 33.2177 25.3515C33.4705 25.0227 33.8892 24.8974 34.3947 25.0931C35.8482 25.649 37.3016 26.2204 38.7551 26.7919C39.079 26.9172 39.2765 27.1598 39.395 27.4886C39.7662 28.5689 40.1454 29.6414 40.5246 30.7139C40.9353 31.8882 41.3461 33.0624 41.7568 34.2367C42.1913 35.4814 42.6337 36.7261 43.076 37.9787C43.4789 39.1373 43.8817 40.288 44.2846 41.4466C44.3715 41.6893 44.4584 41.9242 44.5295 42.1669C44.5769 42.3156 44.6796 42.3391 44.8218 42.3391C46.1409 42.3391 47.468 42.3312 48.7872 42.3312C51.3703 42.3312 53.9612 42.3312 56.5443 42.3312C56.7418 42.3312 56.9392 42.3234 57.1367 42.3312C57.271 42.3391 57.3421 42.2764 57.3816 42.1512C57.5633 41.5954 57.745 41.0396 57.9267 40.4759C57.982 40.2959 57.9504 40.2567 57.7371 40.2567C55.707 40.2567 53.6847 40.2567 51.6546 40.2567C50.0195 40.2567 48.3922 40.2567 46.7571 40.2567C45.9909 40.2567 45.5327 39.6618 45.7618 38.9807C45.8882 38.6049 46.2673 38.3544 46.7334 38.3544C47.2705 38.3544 47.8156 38.3544 48.3527 38.3544C51.0543 38.3544 53.7479 38.3544 56.4495 38.3544C57.0972 38.3544 57.7529 38.3544 58.4006 38.3544C58.5507 38.3544 58.6218 38.3075 58.6613 38.1587C58.8746 37.4698 59.1037 36.7809 59.3327 36.0999C59.3959 35.9198 59.3643 35.8885 59.1431 35.8885C57.3974 35.8885 55.6517 35.8885 53.9138 35.8885C51.3545 35.8885 48.7951 35.8885 46.2357 35.8885C45.983 35.8885 45.7223 35.8807 45.4695 35.8728C44.9718 35.8572 44.5611 35.3875 44.5848 34.9021C44.6164 34.3854 45.0192 33.9862 45.5643 33.9784C46.133 33.9705 46.6939 33.9784 47.2626 33.9784C51.4177 33.9784 55.5727 33.9784 59.7198 33.9862C59.9331 33.9862 60.0437 33.9392 60.1069 33.7122C60.2727 33.1016 60.486 32.4988 60.6993 31.849ZM55.0118 51.3809C55.7228 51.3495 56.2678 50.7781 56.2362 50.0892C56.2046 49.3611 55.6122 48.821 54.8775 48.8601C54.214 48.8914 53.6374 49.5099 53.6768 50.1675C53.7163 50.8642 54.3088 51.4043 55.0118 51.3809ZM44.3952 48.8523C43.6764 48.8523 43.0918 49.4159 43.0918 50.1205C43.0918 50.8094 43.6685 51.3809 44.3557 51.3809C45.0745 51.373 45.6354 50.8329 45.6433 50.1205C45.6591 49.4473 45.0745 48.8523 44.3952 48.8523Z" fill="#CC2128"/>
</svg>
