<svg width="52" height="52" viewBox="0 0 52 52" fill="none" xmlns="http://www.w3.org/2000/svg">
<circle cx="26" cy="26" r="22.5" fill="white" stroke="#CC2128" stroke-width="7"/>
<path d="M33.5429 21.403C33.4729 21.3979 33.4228 21.3929 33.3778 21.3929C31.5217 21.3929 29.6657 21.3929 27.8146 21.3929C26.1036 21.3929 24.3876 21.3929 22.6766 21.3879C22.3264 21.3879 22.1063 21.2218 22.0113 20.9148C21.9312 20.6481 22.1213 20.2354 22.4515 20.1951C22.7167 20.165 22.9918 20.1549 23.262 20.1549C25.8935 20.1549 28.525 20.1549 31.1515 20.1549C32.2121 20.1549 33.2777 20.1549 34.3384 20.1549C34.8486 20.1549 35.0638 20.5827 34.9837 20.8997C34.9387 21.0758 34.8837 21.2469 34.8286 21.4181C34.6035 22.1226 34.3784 22.8272 34.1532 23.5317C33.9281 24.2413 33.698 24.9509 33.4729 25.6554C33.2477 26.36 33.0276 27.0646 32.8025 27.7691C32.6824 28.1465 32.5673 28.529 32.4373 28.9014C32.3372 29.2034 32.1221 29.3493 31.8019 29.3493C31.2266 29.3544 30.6512 29.3493 30.0759 29.3493C28.0597 29.3493 26.0386 29.3493 24.0224 29.3493C23.6522 29.3493 23.282 29.3493 22.9118 29.3493C22.8317 29.3493 22.7267 29.3091 22.6766 29.3493C22.6216 29.3896 22.6066 29.4953 22.5816 29.5758C22.4415 29.9633 22.3014 30.3558 22.1614 30.7433C22.1163 30.8641 22.1313 30.8842 22.2614 30.8842C23.282 30.8842 24.3026 30.8842 25.3232 30.8842C26.1887 30.8842 27.0592 30.8842 27.9247 30.8842C28.8102 30.8842 29.6907 30.8842 30.5762 30.8842C30.9764 30.8842 31.3766 30.8842 31.7769 30.8842C31.957 30.8842 32.1271 30.9245 32.2421 31.0805C32.3672 31.2365 32.3972 31.4127 32.3122 31.5989C32.2171 31.8102 32.037 31.9059 31.8119 31.9159C31.6518 31.9209 31.4867 31.9159 31.3166 31.9159C31.987 32.9627 31.927 33.9189 30.9164 34.6637C30.216 35.182 29.3155 35.0663 28.6651 34.4674C28.3099 34.1403 28.1198 33.7226 28.0998 33.2344C28.0747 32.7513 28.2248 32.3286 28.545 31.931C27.2143 31.931 25.9185 31.931 24.6178 31.931C25.2731 32.9627 25.2131 33.9189 24.2075 34.6687C23.5622 35.1518 22.7017 35.0864 22.1213 34.6033C21.2008 33.8333 21.1758 32.9174 21.8162 31.9209C21.6711 31.9209 21.541 31.9209 21.4109 31.9209C21.1908 31.9159 21.0257 31.8203 20.9256 31.624C20.8556 31.4831 20.8656 31.3372 20.9156 31.1963C21.2058 30.3709 21.501 29.5506 21.8061 28.7303C21.8462 28.6196 21.9362 28.519 22.0263 28.4435C22.1013 28.378 22.1163 28.3277 22.0863 28.2422C21.9512 27.8496 21.8112 27.4521 21.6761 27.0595C21.4009 26.2593 21.1258 25.4642 20.8506 24.664C20.5904 23.9142 20.3303 23.1643 20.0752 22.4145C19.765 21.5086 19.4548 20.6028 19.1396 19.702C19.0896 19.561 19.0496 19.4151 18.9845 19.2792C18.9595 19.2239 18.8895 19.1786 18.8294 19.1534C18.024 18.8313 17.2185 18.5193 16.4181 18.1922C16.0028 18.0261 15.8727 17.5833 16.1379 17.226C16.298 17.0146 16.5631 16.9341 16.8833 17.0599C17.8038 17.4172 18.7244 17.7846 19.6449 18.1519C19.85 18.2325 19.9751 18.3885 20.0501 18.5998C20.2853 19.2943 20.5254 19.9838 20.7656 20.6732C21.0257 21.4281 21.2858 22.183 21.546 22.9379C21.8212 23.738 22.1013 24.5382 22.3815 25.3434C22.6366 26.0882 22.8918 26.828 23.1469 27.5728C23.202 27.7288 23.257 27.8798 23.302 28.0358C23.332 28.1315 23.3971 28.1465 23.4871 28.1465C24.3226 28.1465 25.1631 28.1415 25.9986 28.1415C27.6345 28.1415 29.2754 28.1415 30.9114 28.1415C31.0365 28.1415 31.1615 28.1365 31.2866 28.1415C31.3716 28.1466 31.4167 28.1063 31.4417 28.0258C31.5568 27.6685 31.6718 27.3111 31.7869 26.9488C31.8219 26.8331 31.8019 26.8079 31.6668 26.8079C30.3811 26.8079 29.1003 26.8079 27.8146 26.8079C26.779 26.8079 25.7484 26.8079 24.7128 26.8079C24.2275 26.8079 23.9374 26.4254 24.0825 25.9876C24.1625 25.746 24.4026 25.585 24.6978 25.585C25.038 25.585 25.3832 25.585 25.7234 25.585C27.4344 25.585 29.1404 25.585 30.8513 25.585C31.2616 25.585 31.6768 25.585 32.0871 25.585C32.1821 25.585 32.2271 25.5548 32.2522 25.4592C32.3872 25.0163 32.5323 24.5735 32.6774 24.1356C32.7174 24.0199 32.6974 23.9997 32.5573 23.9997C31.4517 23.9997 30.3461 23.9997 29.2454 23.9997C27.6245 23.9997 26.0036 23.9997 24.3826 23.9997C24.2225 23.9997 24.0574 23.9947 23.8973 23.9897C23.5822 23.9796 23.322 23.6777 23.337 23.3656C23.357 23.0335 23.6122 22.7768 23.9574 22.7718C24.3176 22.7668 24.6728 22.7718 25.033 22.7718C27.6645 22.7718 30.296 22.7718 32.9225 22.7768C33.0576 22.7768 33.1277 22.7466 33.1677 22.6007C33.2727 22.2082 33.4078 21.8207 33.5429 21.403ZM29.9408 33.9591C30.3911 33.939 30.7363 33.5716 30.7163 33.1288C30.6963 32.6607 30.321 32.3135 29.8558 32.3386C29.4355 32.3588 29.0703 32.7563 29.0953 33.1791C29.1204 33.627 29.4956 33.9742 29.9408 33.9591ZM23.217 32.3336C22.7617 32.3336 22.3915 32.696 22.3915 33.1489C22.3915 33.5918 22.7567 33.9591 23.1919 33.9591C23.6472 33.9541 24.0024 33.6068 24.0074 33.1489C24.0174 32.7161 23.6472 32.3336 23.217 32.3336Z" fill="#CC2128"/>
</svg>
