<svg width="27" height="27" viewBox="0 0 27 27" fill="none" xmlns="http://www.w3.org/2000/svg">
<path d="M26.9995 13.499C26.9995 15.4485 26.9995 17.3981 26.9995 19.3477C26.9861 20.8751 26.5105 22.3625 25.6353 23.6144C24.7602 24.8663 23.5264 25.824 22.0964 26.3614C20.88 26.8154 19.5876 27.031 18.2896 26.9964C14.9076 26.9964 11.5256 26.9964 8.14356 26.9964C6.50694 27.0339 4.89744 26.5741 3.52766 25.6778C1.8726 24.6533 0.682499 23.0237 0.210365 21.1355C0.0747002 20.5587 0.00413784 19.9685 0 19.376C0 15.5335 0 11.6909 0 7.82817C0 5.84622 0.554231 4.06651 1.9661 2.63062C3.29988 1.19123 5.11144 0.285607 7.06341 0.0824002C8.27706 -0.026809 9.4907 0.00554931 10.6801 0.00150452C13.2611 0.00150452 15.8462 0.00150452 18.4312 0.00150452C20.1829 0.00150452 21.8658 0.28464 23.3627 1.25539C25.0228 2.24663 26.2359 3.84061 26.7487 5.70465C26.9036 6.34032 26.9837 6.9919 26.9874 7.64615C27.0157 9.59574 26.9874 11.5453 26.9874 13.4949L26.9995 13.499ZM2.02274 13.499C2.02274 15.4688 2.02274 17.4345 2.02274 19.4043C2.02274 21.6896 3.23639 23.2388 5.17822 24.2985C6.12237 24.7748 7.17171 25.0044 8.22851 24.9659C11.7117 24.9659 15.1948 24.9659 18.678 24.9659C19.8883 24.9868 21.0819 24.6808 22.1328 24.0801C23.9614 23.0204 24.9647 21.4591 24.9647 19.3356C24.9889 15.3919 24.997 11.4482 24.9647 7.50054C24.9647 5.1667 23.6418 3.62563 21.6474 2.6023C20.7502 2.17672 19.7634 1.97413 18.771 2.01176C15.3081 2.01176 11.8452 2.01176 8.37819 2.01176C7.26841 1.98269 6.16838 2.22571 5.17417 2.7196C3.23639 3.72675 2.06724 5.29613 2.02274 7.54099C1.9742 9.52698 2.02274 11.513 2.02274 13.499Z" fill="#CC2128"/>
<path d="M13.4034 18.9999C12.1215 18.9823 10.874 18.6152 9.81756 17.9448C8.76116 17.2743 7.94312 16.3305 7.46631 15.232C6.98951 14.1335 6.87524 12.9293 7.13787 11.771C7.4005 10.6127 8.02832 9.55195 8.94234 8.72217C9.85637 7.89239 11.0158 7.33063 12.2748 7.10756C13.5338 6.8845 14.8361 7.01007 16.018 7.4685C17.1998 7.92693 18.2085 8.69775 18.917 9.68399C19.6255 10.6702 20.0023 11.8279 20 13.0113C19.98 14.6113 19.2752 16.1391 18.0393 17.2611C16.8033 18.3831 15.1368 19.0082 13.4034 18.9999ZM8.92016 12.9996C8.90347 13.8236 9.1529 14.6335 9.63665 15.3261C10.1204 16.0187 10.8166 16.5627 11.6365 16.8887C12.4564 17.2148 13.3628 17.3081 14.2404 17.1569C15.118 17.0056 15.9269 16.6166 16.564 16.0394C17.2012 15.4622 17.6378 14.7229 17.8182 13.9158C17.9986 13.1087 17.9146 12.2703 17.577 11.5074C17.2393 10.7446 16.6632 10.0918 15.9222 9.63221C15.1812 9.17267 14.3087 8.92718 13.416 8.92703C12.2367 8.92283 11.1032 9.3481 10.2615 10.1106C9.41985 10.873 8.93785 11.9111 8.92016 12.9996Z" fill="#CC2128"/>
<path d="M22 6.03649C21.9892 6.23282 21.8919 6.42268 21.7203 6.58239C21.5486 6.74209 21.3101 6.86455 21.0347 6.93449C20.7592 7.00443 20.4589 7.01874 20.1713 6.97564C19.8837 6.93254 19.6215 6.83393 19.4175 6.69213C19.2135 6.55034 19.0766 6.37163 19.0241 6.17832C18.9715 5.98501 19.0055 5.78567 19.1219 5.60517C19.2383 5.42467 19.4319 5.27102 19.6785 5.1634C19.9251 5.05578 20.2138 4.99895 20.5086 5.00001C20.9103 5.01026 21.2903 5.12406 21.5686 5.31742C21.8468 5.51078 22.0015 5.76859 22 6.03649Z" fill="#CC2128"/>
</svg>
