<svg width="10" height="12" viewBox="0 0 10 12" fill="none" xmlns="http://www.w3.org/2000/svg">
<path d="M4.35604 9.06066V7.32769C4.35604 5.11548 4.35604 2.90275 4.35604 0.68949C4.35604 0.311502 4.58585 0.0381646 4.92655 0.00380217C5.32832 -0.036808 5.64009 0.252148 5.64089 0.666841C5.64089 1.7529 5.64089 2.83949 5.64089 3.92659V9.10673C5.72125 9.0341 5.77026 8.98881 5.81847 8.94195C6.67022 8.11413 7.52223 7.28604 8.37452 6.4577C8.5987 6.23981 8.86789 6.19061 9.12663 6.30775C9.24484 6.35671 9.34378 6.44126 9.40887 6.54894C9.47396 6.65663 9.50177 6.78178 9.48822 6.90597C9.4671 7.05865 9.40001 7.20184 9.29537 7.31754C8.02471 8.56709 6.7479 9.81064 5.46492 11.0482C5.18689 11.3184 4.81084 11.32 4.53442 11.0482C3.25412 9.80804 1.97597 8.56579 0.699955 7.32145C0.637044 7.26492 0.586558 7.1966 0.551539 7.1206C0.51652 7.0446 0.497693 6.9625 0.496191 6.87924C0.49469 6.79598 0.510545 6.71329 0.542802 6.63615C0.575059 6.559 0.62305 6.489 0.683884 6.43037C0.943426 6.17577 1.33796 6.17968 1.61598 6.44911C2.46559 7.27068 3.31278 8.09434 4.15757 8.92008C4.20582 8.9742 4.25038 9.03133 4.29095 9.09111L4.35604 9.06066Z" fill="white"/>
</svg>
