<svg width="17" height="17" viewBox="0 0 17 17" fill="none" xmlns="http://www.w3.org/2000/svg">
<path d="M8.62198 0.85C4.33638 0.85 0.85 4.33638 0.85 8.62198C0.85 12.9076 4.33638 16.394 8.62198 16.394C12.9076 16.394 16.394 12.9076 16.394 8.62198C16.394 4.33638 12.9076 0.85 8.62198 0.85ZM8.62198 15.5858C4.7823 15.5858 1.65813 12.4617 1.65813 8.62198C1.65813 4.7823 4.7823 1.65813 8.62198 1.65813C12.4617 1.65813 15.5858 4.7823 15.5858 8.62198C15.5858 12.4617 12.4617 15.5858 8.62198 15.5858Z" fill="#CC2128" stroke="#CC2128" stroke-width="0.3"/>
<path d="M8.62067 4.06826C8.39768 4.06826 8.21661 4.24889 8.21661 4.47233V8.47207H5.4025C5.17951 8.47207 4.99844 8.6527 4.99844 8.87614C4.99844 9.09958 5.17951 9.28021 5.4025 9.28021H8.62067C8.84366 9.28021 9.02474 9.09958 9.02474 8.87614V4.47233C9.02474 4.24889 8.84366 4.06826 8.62067 4.06826Z" fill="#CC2128" stroke="#CC2128" stroke-width="0.3"/>
</svg>
