<svg width="144" height="144" viewBox="0 0 144 144" fill="none" xmlns="http://www.w3.org/2000/svg">
<path fill-rule="evenodd" clip-rule="evenodd" d="M29.7081 140.977C14.9911 140.977 3.02246 129.009 3.02246 114.292V29.7083C3.02246 14.9913 14.9962 3.02264 29.7081 3.02264H114.292C129.009 3.02264 140.977 14.9964 140.977 29.7083V114.292C140.977 129.009 129.009 140.977 114.292 140.977H29.7081Z" fill="#FFF200"/>
<path d="M114.292 1.51385H29.7081C14.1986 1.51385 1.51367 14.2039 1.51367 29.7083V114.292C1.51367 129.796 14.1986 142.486 29.7081 142.486H114.292C129.796 142.486 142.486 129.796 142.486 114.292V29.7083C142.486 14.2039 129.801 1.51385 114.292 1.51385ZM114.292 4.53142C128.175 4.53142 139.468 15.8244 139.468 29.7083V114.292C139.468 128.176 128.175 139.469 114.292 139.469H29.7081C15.8243 139.469 4.53124 128.176 4.53124 114.292V29.7083C4.53124 15.8244 15.8243 4.53142 29.7081 4.53142H114.292Z" fill="#ED1C24"/>
<path fill-rule="evenodd" clip-rule="evenodd" d="M63.4396 42.2155L47.3866 112.92H28.3617L38.7504 62.1954H13.5177L8.68652 42.2155H63.4396ZM72.3399 82.0941H92.4266C94.9869 82.0941 97.0596 84.3598 97.0596 87.1488C97.0596 89.9428 94.9819 92.2085 92.4266 92.2085C89.8662 92.2085 87.7885 89.9428 87.7885 87.1488C87.7885 87.0319 87.7936 86.9202 87.7986 86.8084H76.9628C76.9679 86.9202 76.973 87.037 76.973 87.1488C76.973 89.9428 74.8952 92.2085 72.3349 92.2085C69.7745 92.2085 67.6968 89.9428 67.6968 87.1488C67.7018 84.3547 69.7796 82.0941 72.3399 82.0941ZM92.325 83.8518L92.6806 83.8721L93.021 83.9331L93.3308 84.0245L93.6915 84.1769L93.9455 84.3192L94.2351 84.5275L94.4891 84.751L94.8092 85.1218L95.0327 85.4622L95.241 85.8889L95.3781 86.3004L95.4645 86.7475L95.4899 87.1183L95.4696 87.5755L95.3984 87.9972L95.3121 88.302L95.1648 88.6677L94.9615 89.0386L94.6974 89.3993L94.4434 89.6685L94.1386 89.9225L93.7169 90.1816L93.3359 90.3442L92.8686 90.4661L92.3351 90.5118L91.7916 90.4661L91.4156 90.3746L90.9381 90.1765L90.6028 89.9784L90.232 89.6787L89.9932 89.4348L89.7697 89.1453L89.5716 88.8201L89.3887 88.4137L89.2515 87.9514L89.1855 87.5247L89.1703 87.0827L89.2363 86.5087L89.343 86.1023L89.4903 85.7314L89.6376 85.447L89.8256 85.1574L90.105 84.8272L90.3742 84.5783L90.6689 84.3598L91.0194 84.1617L91.3344 84.0296L91.7205 83.9229L91.9846 83.8823L92.325 83.8518ZM72.406 83.8823L72.7616 83.9026L73.102 83.9636L73.4118 84.055L73.7725 84.2125L74.0265 84.3547L74.3161 84.563L74.565 84.7865L74.8851 85.1574L75.1086 85.4927L75.3169 85.9194L75.454 86.3309L75.5404 86.7779L75.5658 87.1488L75.5455 87.606L75.4743 88.0327L75.388 88.3375L75.2407 88.7033L75.0375 89.0741L74.7733 89.4348L74.5193 89.7041L74.2145 89.9581L73.7928 90.2171L73.4118 90.3797L72.9394 90.5016L72.406 90.5474L71.8624 90.5016L71.4865 90.4102L71.009 90.2121L70.6737 90.0089L70.3028 89.7091L70.0641 89.4653L69.8405 89.1757L69.6424 88.8506L69.4595 88.4442L69.3224 87.9819L69.2563 87.5552L69.2411 87.1132L69.3071 86.5392L69.4138 86.1328L69.5611 85.7619L69.7085 85.4774L69.8964 85.1879L70.1758 84.8577L70.4451 84.6087L70.7448 84.3903L71.0953 84.1922L71.4103 84.0601L71.7964 83.9534L72.0605 83.9128L72.406 83.8823ZM109.587 40.158H132.056L135.318 31.0901H115.104C111.827 32.8224 110.415 36.3988 109.587 40.158ZM69.7389 42.2459L124.385 42.3374L109.587 73.712C108.845 75.2817 108.139 76.6838 107.098 77.5728C106.194 78.3501 105.289 78.8073 104.217 78.6854H64.9179C63.2771 78.6854 62.3169 77.2121 62.0731 75.7897C61.7581 73.9507 62.4897 71.9492 62.7843 70.7401L69.7389 42.2459ZM81.0218 48.9313L78.4106 60.1075L85.7514 60.1735L88.5048 48.9669L81.0218 48.9313ZM91.5528 48.9771L88.9467 60.0872L96.2366 60.1735L98.9545 49.0075L91.5528 48.9771ZM101.997 49.0177L99.239 60.1532L107.901 60.1989L105.904 63.7957L98.3906 63.8617L96.7599 70.5979H93.5696L95.0124 63.9938H87.9663L86.5235 70.5979H83.13L84.5829 63.9938L77.7096 63.9277L76.3685 70.5979H72.5431L74.0976 63.9277L69.1141 63.9481L67.712 69.9324C67.5393 70.8874 67.4072 71.5377 67.5139 72.2032C67.6409 72.9906 68.0981 73.7069 69.0887 73.7069L101.373 73.6967C103.943 73.6967 104.959 73.143 106.031 70.9179L116.542 49.0685L101.997 49.0177ZM70.0082 60.1583L75.2356 60.1227L77.8518 48.9161L72.6447 48.8958L70.0082 60.1583Z" fill="#ED1C29"/>
<path fill-rule="evenodd" clip-rule="evenodd" d="M61.4538 101.348C61.2913 101.266 61.1084 101.2 60.9103 101.144C60.7121 101.089 60.4734 101.063 60.1838 101.063C59.8079 101.063 59.4827 101.144 59.1983 101.307C58.9189 101.47 58.6953 101.693 58.5328 101.983C58.3702 102.272 58.2838 102.592 58.2635 102.948C58.2432 103.319 58.3448 103.608 58.5531 103.817C58.7665 104.025 59.0814 104.126 59.5031 104.126C59.691 104.126 59.8993 104.096 60.133 104.035C60.3667 103.974 60.5953 103.893 60.8188 103.786L60.3819 105.422C59.945 105.574 59.4675 105.656 58.9493 105.656C58.0806 105.656 57.4202 105.432 56.9732 104.98C56.5261 104.528 56.3179 103.908 56.3585 103.105C56.3941 102.394 56.5871 101.754 56.9376 101.195C57.2882 100.636 57.7555 100.215 58.3499 99.9354C58.9443 99.656 59.6301 99.5137 60.4073 99.5137C60.6562 99.5137 60.9204 99.534 61.1947 99.5747C61.4691 99.6153 61.7027 99.661 61.8907 99.7169L61.4538 101.348ZM66.2189 101.012H64.3139L64.0955 101.876H65.8786L65.5179 103.273H63.7348L63.5062 104.147H65.5382L65.1724 105.544H61.3573L62.8966 99.6102H66.5796L66.2189 101.012ZM73.1786 105.549H71.4209L72.3303 102.054L72.569 101.165H72.5335L72.1931 101.901L70.349 105.549H68.7133L68.6726 102.11C68.6675 101.876 68.6777 101.561 68.6929 101.165H68.6574C68.5456 101.774 68.4288 102.333 68.2967 102.836L67.5906 105.549H66.0107L67.5499 99.6153H70.0493L70.0798 103.166C70.0696 103.344 70.0544 103.532 70.029 103.725H70.0544C70.1103 103.593 70.1611 103.456 70.222 103.309C70.2779 103.166 70.3338 103.034 70.3948 102.917L72.0001 99.6153H74.7179L73.1786 105.549ZM80.0317 105.549H78.3857L79.0309 103.055C79.1223 102.709 79.2138 102.379 79.3154 102.069H79.3001C79.2544 102.125 79.2036 102.186 79.1427 102.247C79.0868 102.308 78.0301 103.41 75.9778 105.549H74.342L75.8813 99.6153H77.5272L76.8414 102.277C76.7957 102.486 76.7296 102.694 76.6483 102.907H76.6636C76.6941 102.867 76.7449 102.806 76.8211 102.719C76.8973 102.638 77.893 101.602 79.8082 99.6153H81.5709L80.0317 105.549ZM88.7694 105.549H81.195L82.7343 99.6153H84.5123L83.3693 104.035H84.4818L85.6249 99.6153H87.408L86.2649 104.035H87.3775L88.5256 99.6153H90.3036L88.7694 105.549ZM93.7682 105.549L93.7377 104.457H91.9648L91.3806 105.549H89.4248L93.0011 99.6153H95.216L95.592 105.549H93.7682ZM93.7123 101.373C93.7225 101.185 93.7377 101.053 93.753 100.967H93.7123L93.626 101.175L93.4482 101.536L92.6557 103.055H93.7123L93.7073 101.566L93.7123 101.373ZM101.261 101.012H99.2242L98.0507 105.549H96.2727L97.812 99.6153H101.627L101.261 101.012ZM107.119 102.115C107.088 102.765 106.915 103.375 106.601 103.933C106.291 104.492 105.874 104.919 105.356 105.214C104.838 105.508 104.228 105.656 103.532 105.656C103.004 105.656 102.557 105.549 102.186 105.33C101.815 105.112 101.541 104.807 101.358 104.411C101.175 104.015 101.099 103.568 101.124 103.055C101.155 102.399 101.332 101.79 101.647 101.236C101.962 100.677 102.384 100.25 102.902 99.9557C103.42 99.661 104.015 99.5137 104.685 99.5137C105.478 99.5137 106.093 99.7474 106.529 100.21C106.961 100.672 107.159 101.307 107.119 102.115ZM105.224 102.176C105.239 101.815 105.178 101.541 105.041 101.348C104.899 101.16 104.69 101.063 104.411 101.063C104.152 101.063 103.923 101.149 103.725 101.322C103.522 101.495 103.359 101.739 103.237 102.044C103.116 102.353 103.044 102.674 103.024 103.009C103.004 103.375 103.07 103.654 103.212 103.842C103.354 104.03 103.558 104.121 103.827 104.121C104.076 104.121 104.299 104.045 104.502 103.888C104.706 103.73 104.873 103.496 105.005 103.182C105.132 102.872 105.203 102.531 105.224 102.176ZM114.668 102.237C114.642 102.729 114.505 103.182 114.246 103.593C113.987 104.004 113.652 104.314 113.235 104.523C112.819 104.731 112.346 104.833 111.808 104.833H111.34L111.137 105.645H109.456L109.664 104.833H109.476C108.841 104.833 108.353 104.655 108.013 104.294C107.667 103.938 107.51 103.451 107.54 102.836C107.566 102.318 107.708 101.845 107.967 101.424C108.226 101.002 108.566 100.687 108.988 100.474C109.41 100.26 109.903 100.154 110.461 100.154H110.924L111.086 99.4985H112.717L112.559 100.154H112.747C113.382 100.154 113.87 100.332 114.21 100.692C114.551 101.063 114.703 101.576 114.668 102.237ZM110.456 101.444C110.238 101.444 110.045 101.505 109.877 101.622C109.71 101.739 109.572 101.901 109.471 102.105C109.369 102.308 109.313 102.521 109.303 102.74C109.293 102.983 109.344 103.182 109.466 103.329C109.583 103.481 109.75 103.557 109.958 103.557H110.009L110.563 101.444H110.456ZM111.777 103.557C111.996 103.557 112.189 103.496 112.356 103.38C112.524 103.258 112.661 103.1 112.758 102.897C112.859 102.694 112.915 102.486 112.925 102.262C112.935 102.013 112.885 101.815 112.763 101.668C112.641 101.52 112.478 101.449 112.27 101.449H112.219L111.67 103.563H111.777V103.557ZM122.059 102.237C122.034 102.729 121.897 103.182 121.638 103.593C121.378 104.004 121.043 104.314 120.627 104.523C120.21 104.731 119.738 104.833 119.199 104.833H118.732L118.534 105.645H116.852L117.06 104.833H116.872C116.237 104.833 115.75 104.655 115.409 104.294C115.064 103.938 114.906 103.451 114.937 102.836C114.962 102.318 115.105 101.845 115.364 101.424C115.623 101.002 115.963 100.687 116.385 100.474C116.806 100.26 117.299 100.154 117.853 100.154H118.315L118.473 99.4985H120.103L119.946 100.154H120.134C120.769 100.154 121.257 100.332 121.597 100.692C121.937 101.063 122.09 101.576 122.059 102.237ZM117.843 101.444C117.624 101.444 117.431 101.505 117.264 101.622C117.096 101.739 116.959 101.901 116.857 102.105C116.756 102.308 116.7 102.521 116.69 102.74C116.679 102.983 116.73 103.182 116.852 103.329C116.969 103.481 117.137 103.557 117.345 103.557H117.396L117.949 101.444H117.843ZM119.169 103.557C119.387 103.557 119.58 103.496 119.753 103.38C119.92 103.258 120.053 103.1 120.154 102.897C120.256 102.694 120.312 102.486 120.322 102.262C120.332 102.013 120.281 101.815 120.159 101.668C120.037 101.52 119.875 101.449 119.666 101.449H119.616L119.067 103.563H119.169V103.557Z" fill="#ED1C24"/>
<path fill-rule="evenodd" clip-rule="evenodd" d="M125.326 95.7189C126.509 95.7189 127.475 96.679 127.475 97.8678C127.475 99.0514 126.514 100.012 125.326 100.012C124.142 100.012 123.177 99.0514 123.177 97.8678C123.182 96.6841 124.142 95.7189 125.326 95.7189ZM124.564 98.9752V96.8568H125.376C125.58 96.8568 125.727 96.8772 125.818 96.9127C125.91 96.9483 125.986 97.0194 126.042 97.1159C126.098 97.2124 126.123 97.3242 126.123 97.4512C126.123 97.6087 126.083 97.7408 125.996 97.8475C125.91 97.9491 125.788 98.0151 125.62 98.0405C125.707 98.0964 125.773 98.1573 125.829 98.2183C125.884 98.2843 125.956 98.3961 126.047 98.5637L126.281 98.9803H125.818L125.539 98.518C125.437 98.3504 125.371 98.2488 125.336 98.2031C125.3 98.1624 125.26 98.1319 125.219 98.1167C125.178 98.1015 125.112 98.0913 125.026 98.0913H124.95V98.9752H124.564ZM124.95 97.7509H125.234C125.422 97.7509 125.534 97.7408 125.58 97.7255C125.625 97.7103 125.661 97.6798 125.686 97.6341C125.712 97.5935 125.727 97.5376 125.727 97.4766C125.727 97.4055 125.712 97.3496 125.676 97.3039C125.646 97.2582 125.595 97.2328 125.534 97.2226C125.503 97.2175 125.407 97.2175 125.255 97.2175H124.955V97.7509H124.95ZM125.326 95.9373C126.392 95.9373 127.256 96.801 127.256 97.8678C127.256 98.9346 126.392 99.7931 125.326 99.7931C124.259 99.7931 123.395 98.9295 123.395 97.8678C123.395 96.801 124.259 95.9373 125.326 95.9373Z" fill="#ED1C24"/>
<path d="M29.3121 0H114.688C122.75 0 130.075 3.29697 135.389 8.61074C140.703 13.9245 144 21.25 144 29.3121V114.688C144 122.75 140.703 130.075 135.389 135.389C130.075 140.703 122.75 144 114.688 144H29.3121C21.25 144 13.9194 140.703 8.61074 135.389C3.29697 130.081 0 122.75 0 114.688V29.3121C0 21.25 3.29697 13.9194 8.61074 8.61074C13.9245 3.29697 21.25 0 29.3121 0ZM114.688 1.70691H29.3121C21.7224 1.70691 14.8186 4.81084 9.81472 9.81472C4.81592 14.8237 1.70691 21.7224 1.70691 29.3121V114.688C1.70691 122.278 4.81084 129.181 9.81472 134.185C14.8237 139.189 21.7224 142.293 29.3121 142.293H114.688C122.278 142.293 129.181 139.189 134.185 134.185C139.189 129.181 142.293 122.283 142.293 114.688V29.3121C142.293 21.7224 139.189 14.8186 134.185 9.81472C129.181 4.81592 122.283 1.70691 114.688 1.70691Z" fill="#FFF200"/>
</svg>
