<svg width="42" height="50" viewBox="0 0 42 50" fill="none" xmlns="http://www.w3.org/2000/svg">
<path d="M21.3364 40.4294C19.6398 40.4301 17.981 39.9309 16.57 38.995C15.159 38.059 14.0591 36.7283 13.4095 35.1712C12.7598 33.6142 12.5897 31.9006 12.9205 30.2474C13.2513 28.5942 14.0682 27.0757 15.2679 25.8838C16.4676 24.692 17.9962 23.8804 19.6603 23.5517C21.3243 23.2231 23.0491 23.3921 24.6165 24.0375C26.1838 24.6829 27.5233 25.7756 28.4654 27.1774C29.4075 28.5792 29.91 30.2271 29.9092 31.9126C29.9071 34.1708 29.0033 36.3359 27.396 37.9326C25.7887 39.5294 23.6094 40.4273 21.3364 40.4294ZM21.3364 24.937C19.9475 24.9363 18.5896 25.3447 17.4344 26.1108C16.2792 26.8768 15.3787 27.966 14.8466 29.2405C14.3146 30.5151 14.175 31.9177 14.4455 33.2711C14.7159 34.6245 15.3844 35.8678 16.3662 36.8438C17.348 37.8197 18.5991 38.4844 19.9613 38.7539C21.3234 39.0234 22.7354 38.8855 24.0186 38.3576C25.3019 37.8298 26.3987 36.9357 27.1704 35.7885C27.9421 34.6413 28.354 33.2924 28.354 31.9126C28.352 30.0639 27.6121 28.2914 26.2966 26.9838C24.9811 25.6761 23.1973 24.9401 21.3364 24.937Z" fill="white"/>
<path d="M37.3383 13.2802C36.5398 13.281 35.7591 13.0464 35.0948 12.6061C34.4306 12.1659 33.9127 11.5398 33.6068 10.807C33.3008 10.0743 33.2206 9.26782 33.3762 8.48974C33.5318 7.71167 33.9162 6.99694 34.4808 6.436C35.0455 5.87507 35.7649 5.49314 36.5481 5.33857C37.3313 5.18399 38.143 5.26372 38.8806 5.56764C39.6182 5.87157 40.2484 6.38605 40.6916 7.04596C41.1347 7.70587 41.3708 8.48154 41.3701 9.27483C41.369 10.3368 40.9439 11.355 40.1881 12.1059C39.4322 12.8569 38.4073 13.2792 37.3383 13.2802ZM37.3383 6.81057C36.8476 6.80981 36.3676 6.95369 35.9592 7.224C35.5508 7.49431 35.2323 7.8789 35.0439 8.32912C34.8556 8.77933 34.8059 9.27493 34.9012 9.7532C34.9964 10.2315 35.2324 10.6709 35.5791 11.0159C35.9259 11.361 36.3678 11.5961 36.8491 11.6914C37.3304 11.7868 37.8293 11.7383 38.2828 11.5519C38.7363 11.3655 39.1239 11.0496 39.3966 10.6443C39.6693 10.239 39.8149 9.76237 39.8149 9.27483C39.8149 8.62193 39.5541 7.99572 39.0898 7.5337C38.6254 7.07167 37.9955 6.81159 37.3383 6.81057Z" fill="white"/>
<path d="M3.36302 20.0976C2.69788 20.0976 2.04767 19.9016 1.49463 19.5345C0.941582 19.1674 0.510536 18.6456 0.255998 18.0351C0.00145894 17.4246 -0.0651424 16.7528 0.0646203 16.1048C0.194383 15.4567 0.514681 14.8613 0.985007 14.3941C1.45533 13.9268 2.05456 13.6086 2.70693 13.4797C3.35929 13.3508 4.03548 13.417 4.64999 13.6699C5.2645 13.9227 5.78973 14.351 6.15926 14.9004C6.5288 15.4498 6.72603 16.0958 6.72603 16.7566C6.725 17.6423 6.37036 18.4915 5.73989 19.1179C5.10943 19.7442 4.25463 20.0965 3.36302 20.0976ZM3.36302 14.9605C3.00529 14.9605 2.65561 15.0659 2.35822 15.2635C2.06083 15.461 1.82912 15.7417 1.6924 16.0701C1.55568 16.3985 1.52011 16.7599 1.59018 17.1084C1.66025 17.4569 1.83282 17.7769 2.08605 18.0279C2.33927 18.2789 2.66176 18.4497 3.01271 18.5185C3.36366 18.5874 3.72728 18.5513 4.05756 18.4148C4.38783 18.2782 4.66991 18.0474 4.86809 17.7516C5.06628 17.4557 5.17165 17.1081 5.17088 16.7527C5.16985 16.277 4.97893 15.8212 4.64 15.4852C4.30107 15.1492 3.84182 14.9605 3.36302 14.9605Z" fill="white"/>
<path d="M26.3866 14.3078H15.6832C14.9467 14.2543 14.2578 13.9259 13.755 13.3885C13.2521 12.8511 12.9727 12.1446 12.9727 11.4109C12.9727 10.6772 13.2521 9.97071 13.755 9.43334C14.2578 8.89597 14.9467 8.56755 15.6832 8.51407H26.3866C26.7874 8.48497 27.19 8.53829 27.5691 8.67068C27.9483 8.80307 28.2959 9.0117 28.5903 9.28355C28.8846 9.55539 29.1194 9.8846 29.2799 10.2506C29.4405 10.6167 29.5233 11.0116 29.5233 11.4109C29.5233 11.8102 29.4405 12.2052 29.2799 12.5712C29.1194 12.9372 28.8846 13.2664 28.5903 13.5383C28.2959 13.8101 27.9483 14.0188 27.5691 14.1512C27.19 14.2835 26.7874 14.3369 26.3866 14.3078ZM15.6832 10.0591C15.3474 10.0948 15.0368 10.2526 14.811 10.5022C14.5853 10.7517 14.4604 11.0754 14.4604 11.4109C14.4604 11.7464 14.5853 12.0701 14.811 12.3197C15.0368 12.5692 15.3474 12.7271 15.6832 12.7628H26.3866C26.5775 12.7831 26.7706 12.7633 26.9533 12.7046C27.136 12.6459 27.3042 12.5497 27.447 12.4222C27.5898 12.2947 27.704 12.1387 27.7822 11.9645C27.8604 11.7903 27.9008 11.6017 27.9008 11.4109C27.9008 11.2202 27.8604 11.0315 27.7822 10.8573C27.704 10.6831 27.5898 10.5272 27.447 10.3997C27.3042 10.2722 27.136 10.176 26.9533 10.1173C26.7706 10.0586 26.5775 10.0388 26.3866 10.0591H15.6832Z" fill="white"/>
<path d="M36.7291 49.2438H6.2481C5.84727 49.2729 5.44471 49.2196 5.06555 49.0872C4.68639 48.9548 4.33878 48.7462 4.04442 48.4743C3.75006 48.2025 3.51528 47.8733 3.35473 47.5072C3.19419 47.1412 3.11133 46.7462 3.11133 46.3469C3.11133 45.9477 3.19419 45.5527 3.35473 45.1867C3.51528 44.8206 3.75006 44.4914 4.04442 44.2196C4.33878 43.9477 4.68639 43.7391 5.06555 43.6067C5.44471 43.4743 5.84727 43.421 6.2481 43.4501H36.7291C37.1299 43.421 37.5325 43.4743 37.9116 43.6067C38.2908 43.7391 38.6384 43.9477 38.9328 44.2196C39.2271 44.4914 39.4619 44.8206 39.6224 45.1867C39.783 45.5527 39.8659 45.9477 39.8659 46.3469C39.8659 46.7462 39.783 47.1412 39.6224 47.5072C39.4619 47.8733 39.2271 48.2025 38.9328 48.4743C38.6384 48.7462 38.2908 48.9548 37.9116 49.0872C37.5325 49.2196 37.1299 49.2729 36.7291 49.2438ZM6.2481 44.9951C6.05719 44.9748 5.86411 44.9946 5.68141 45.0533C5.49872 45.112 5.33049 45.2082 5.18768 45.3357C5.04487 45.4632 4.93065 45.6191 4.85247 45.7933C4.77429 45.9676 4.73389 46.1562 4.73389 46.3469C4.73389 46.5377 4.77429 46.7263 4.85247 46.9005C4.93065 47.0748 5.04487 47.2307 5.18768 47.3582C5.33049 47.4857 5.49872 47.5819 5.68141 47.6406C5.86411 47.6993 6.05719 47.7191 6.2481 47.6988H36.7291C36.92 47.7191 37.1131 47.6993 37.2958 47.6406C37.4785 47.5819 37.6467 47.4857 37.7895 47.3582C37.9323 47.2307 38.0465 47.0748 38.1247 46.9005C38.2029 46.7263 38.2433 46.5377 38.2433 46.3469C38.2433 46.1562 38.2029 45.9676 38.1247 45.7933C38.0465 45.6191 37.9323 45.4632 37.7895 45.3357C37.6467 45.2082 37.4785 45.112 37.2958 45.0533C37.1131 44.9946 36.92 44.9748 36.7291 44.9951H6.2481Z" fill="white"/>
<path d="M25.6554 9.50285L24.1703 9.04322L26.4291 1.82043L23.9681 3.21864C23.7189 3.35365 23.4321 3.40407 23.1513 3.36224C22.8706 3.32041 22.6113 3.1886 22.4129 2.98689L21.3593 1.91699L20.0724 3.24953C19.8781 3.44918 19.6242 3.58138 19.3483 3.62659C19.0724 3.67181 18.7893 3.62762 18.5406 3.50059L16.134 2.26847L17.798 9.07798L16.2895 9.44492L14.4894 2.10625C14.4319 1.86592 14.4448 1.61424 14.5267 1.38097C14.6085 1.1477 14.7559 0.942584 14.9513 0.789853C15.1467 0.637122 15.3821 0.543168 15.6296 0.519087C15.8771 0.495006 16.1263 0.541803 16.3479 0.653957L19.0694 2.05217L20.4068 0.669411C20.5281 0.546967 20.6728 0.449754 20.8323 0.383439C20.9918 0.317124 21.1631 0.283035 21.336 0.283165C21.5089 0.283462 21.68 0.317738 21.8395 0.384028C21.9989 0.450319 22.1436 0.547313 22.2652 0.669411L23.3616 1.78952L26.2153 0.167296C26.4422 0.0399972 26.7022 -0.0167852 26.9619 0.00430084C27.2216 0.0253868 27.469 0.123363 27.672 0.285569C27.875 0.447776 28.0245 0.66676 28.1009 0.914209C28.1774 1.16166 28.1774 1.4262 28.1009 1.67365L25.6554 9.50285Z" fill="white"/>
<path d="M6.68339 44.2493C5.81251 27.2893 8.62734 17.0306 15.2717 12.8823L16.0998 14.1917C10.0542 17.9615 7.40654 28.0463 8.23466 44.1721L6.68339 44.2493Z" fill="white"/>
<path d="M35.2426 44.2493L33.6875 44.1721C34.5156 28.0463 31.8718 17.9615 25.8262 14.1917L26.6504 12.8823C33.3181 17.0306 36.1291 27.2893 35.2426 44.2493Z" fill="white"/>
</svg>
