<svg width="85" height="33" viewBox="0 0 85 33" fill="none" xmlns="http://www.w3.org/2000/svg">
<rect width="85" height="33" rx="5" fill="#61686F"/>
<path fill-rule="evenodd" clip-rule="evenodd" d="M25.3968 22.1159C25.2009 22.8398 24.9214 23.216 24.0197 23.4241C22.0227 23.8052 20.0256 23.9033 18.0284 23.9032C16.0315 23.9033 14.0344 23.8052 12.0373 23.4241C11.1358 23.216 10.8562 22.8398 10.6602 22.116C10.2652 20.0888 10.1641 18.0614 10.1645 16.0341C10.164 14.0068 10.2652 11.9795 10.6603 9.95222C10.8562 9.22825 11.1358 8.85212 12.0374 8.64399C14.0345 8.26296 16.0315 8.16487 18.0285 8.16487C20.0257 8.16476 22.0228 8.26296 24.0198 8.64399C24.9215 8.85212 25.2009 9.22846 25.3969 9.95222C25.7921 11.9795 25.8931 14.0068 25.8926 16.0341C25.8932 18.0614 25.7921 20.0888 25.3968 22.1159ZM28.0571 16.025H28.0568C28.0558 13.8742 27.8647 11.7232 27.4783 9.57247C27.2355 8.15089 26.1165 6.9115 24.5733 6.59514C22.3965 6.19863 20.2197 6.00203 18.0428 6.00032V6C18.0379 6 18.0332 6.00011 18.0284 6.00011C18.0237 6.00011 18.019 6 18.0143 6V6.00032C15.8376 6.00203 13.6606 6.19852 11.4838 6.59514C9.94062 6.9115 8.82163 8.15099 8.57881 9.57247C8.19233 11.7232 8.00128 13.8742 8.00032 16.025H8C8 16.028 8.00011 16.0311 8.00011 16.0341C8.00011 16.0371 8 16.0403 8 16.0432H8.00032C8.00128 18.1939 8.19233 20.3449 8.57881 22.4957C8.82163 23.9171 9.94062 25.1567 11.4838 25.4731C13.6606 25.8694 15.8374 26.0662 18.0143 26.068V26.0681C18.019 26.0681 18.0237 26.0681 18.0284 26.0681C18.0333 26.068 18.038 26.0682 18.0428 26.0682V26.0676C20.2197 26.0662 22.3965 25.8696 24.5733 25.473C26.1165 25.1565 27.2356 23.917 27.4783 22.4956C27.8647 20.3446 28.0558 18.1938 28.0568 16.0431H28.0571C28.0571 16.04 28.057 16.037 28.057 16.034C28.0571 16.031 28.0571 16.028 28.0571 16.025Z" fill="#E6E6E6"/>
<path fill-rule="evenodd" clip-rule="evenodd" d="M23.1258 19.3817L19.8113 16.0426L21.298 14.5447C21.4104 14.4636 21.5091 14.3652 21.5887 14.2517L22.8277 13.0035C23.1395 12.7047 23.3869 12.4037 23.3869 11.9717C23.3869 11.2905 22.8347 10.7385 22.1538 10.7385C21.7662 10.7385 21.4505 10.9322 21.1899 11.1724L21.1824 11.1843L19.6135 12.7646L19.6078 12.7588L18.0799 14.2982L16.5521 12.7589L16.5461 12.7647L14.9777 11.1844L14.97 11.1773C14.6652 10.888 14.3937 10.7385 14.0061 10.7385C13.3251 10.7385 12.7731 11.2905 12.7731 11.9717C12.7731 12.4037 13.0451 12.6948 13.3322 13.0035L14.5711 14.2517C14.6508 14.3651 14.7495 14.4636 14.862 14.5447L16.3486 16.0426L13.0342 19.3817L13.0318 19.3748C12.8606 19.5865 12.7725 19.8756 12.7725 20.1691C12.7725 20.85 13.3245 21.4023 14.0055 21.4023C14.4407 21.4021 14.7581 21.1567 15.0417 20.8359L16.2285 19.6403C16.3837 19.5436 16.5172 19.4152 16.6162 19.2615L18.0799 17.7869L19.5436 19.2615C19.6428 19.4153 19.7762 19.5436 19.9314 19.6405L21.1182 20.8361C21.3919 21.1075 21.7193 21.4024 22.1544 21.4024C22.8354 21.4022 23.3875 20.8503 23.3875 20.1692C23.3875 19.8757 23.3041 19.5965 23.1328 19.3848L23.1258 19.3817ZM76.9771 20.6734C76.9616 20.5527 76.9383 20.4554 76.9074 20.3809C76.8765 20.3069 76.8378 20.2528 76.7912 20.2186C76.7448 20.1846 76.6941 20.1675 76.6381 20.1675H71.5249V16.779H75.9421C75.9979 16.779 76.0488 16.7637 76.0952 16.7326C76.1418 16.7017 76.1803 16.6507 76.2113 16.5794C76.2424 16.5082 76.2656 16.4139 76.2809 16.2962C76.2964 16.1786 76.3043 16.0302 76.3043 15.8505C76.3043 15.6773 76.2965 15.5303 76.2809 15.4096C76.2656 15.2888 76.2422 15.1931 76.2113 15.1219C76.1805 15.0507 76.1415 14.9981 76.0952 14.9639C76.0488 14.9299 75.9979 14.913 75.9421 14.913H71.5249V11.9795H76.601C76.6569 11.9795 76.7061 11.9626 76.7498 11.9286C76.7929 11.8946 76.8299 11.8404 76.8609 11.7661C76.892 11.6918 76.9151 11.5943 76.9305 11.4736C76.946 11.3529 76.9539 11.2061 76.9539 11.0327C76.9539 10.847 76.9461 10.6938 76.9305 10.5731C76.9151 10.4523 76.892 10.3536 76.8609 10.276C76.8301 10.1987 76.7929 10.1446 76.7498 10.1136C76.7061 10.0826 76.6569 10.0671 76.601 10.0671H69.8169C69.6129 10.0671 69.4408 10.1276 69.3015 10.2483C69.1623 10.3689 69.0927 10.5655 69.0927 10.8377V21.3094C69.0927 21.5818 69.1623 21.7782 69.3015 21.8989C69.4408 22.0196 69.6128 22.0799 69.8169 22.0799H76.6381C76.694 22.0799 76.7448 22.0631 76.7912 22.0288C76.8378 21.995 76.8765 21.9405 76.9074 21.8662C76.9384 21.7922 76.9616 21.6946 76.9771 21.5739C76.9926 21.4531 77.0002 21.3032 77.0002 21.1236C77.0003 20.9443 76.9926 20.7941 76.9771 20.6734ZM65.1388 10.9948C65.0575 10.9106 64.9149 10.8115 64.7103 10.6973C64.5056 10.5829 64.2486 10.4763 63.9388 10.3773C63.6293 10.278 63.2672 10.1937 62.8524 10.1246C62.4372 10.0556 61.9777 10.021 61.4724 10.021C60.5523 10.021 59.7185 10.1622 58.9699 10.4447C58.2214 10.7275 57.582 11.1347 57.0536 11.6667C56.5244 12.1988 56.1153 12.8452 55.8267 13.6057C55.538 14.3663 55.3937 15.2246 55.3937 16.1807C55.3938 17.1065 55.5292 17.9346 55.7996 18.6651C56.0706 19.3958 56.4608 20.0151 56.9723 20.523C57.4832 21.0312 58.1068 21.419 58.8433 21.6864C59.5798 21.954 60.4142 22.0878 61.3464 22.0878C61.6649 22.0878 61.9821 22.0728 62.2979 22.0427C62.6135 22.0126 62.9259 21.9674 63.2356 21.9074C63.5453 21.8475 63.8444 21.7753 64.133 21.691C64.4215 21.6068 64.6637 21.5257 64.859 21.4474C65.0541 21.3694 65.1835 21.2627 65.2471 21.1274C65.31 20.992 65.3415 20.8342 65.3415 20.654V15.8518C65.3415 15.7314 65.3261 15.6247 65.2962 15.5316C65.2664 15.4383 65.2227 15.3587 65.1656 15.2927C65.1083 15.2265 65.0425 15.177 64.9672 15.1438C64.892 15.1107 64.8063 15.0942 64.7102 15.0942H60.7691C60.7149 15.0942 60.6667 15.1109 60.6247 15.1438C60.5827 15.177 60.5461 15.2281 60.5162 15.2972C60.4865 15.3663 60.4637 15.4581 60.4488 15.5723C60.4339 15.6864 60.426 15.8278 60.426 15.996C60.4262 16.3206 60.456 16.5507 60.5161 16.6859C60.5764 16.8212 60.6604 16.8888 60.769 16.8888H62.9784V19.7519C62.7561 19.8723 62.5156 19.9625 62.2567 20.0225C61.9985 20.0825 61.737 20.1126 61.4721 20.1126C60.9314 20.1126 60.4365 20.0255 59.9887 19.851C59.5409 19.6767 59.1576 19.4181 58.8386 19.0755C58.5201 18.7328 58.2718 18.3075 58.0949 17.7993C57.9175 17.2913 57.8285 16.7036 57.8285 16.0363C57.8285 15.429 57.9158 14.8743 58.0899 14.3723C58.2646 13.8702 58.514 13.4404 58.8386 13.0825C59.1638 12.7249 59.554 12.4482 60.0113 12.2528C60.4682 12.0575 60.9789 11.9597 61.5446 11.9597C62.0733 11.9597 62.5381 12.0138 62.9379 12.122C63.3377 12.2303 63.6816 12.3476 63.9701 12.4737C64.2588 12.6001 64.4904 12.7173 64.6646 12.8254C64.8394 12.9336 64.9654 12.9878 65.0439 12.9878C65.0976 12.9878 65.1441 12.9728 65.1833 12.9428C65.2226 12.9127 65.2556 12.8602 65.2827 12.7849C65.3098 12.7098 65.3309 12.6091 65.3457 12.4828C65.3607 12.3564 65.3684 12.2064 65.3684 12.0318C65.3684 11.7313 65.3503 11.5042 65.3142 11.3509C65.2787 11.1976 65.2201 11.0791 65.1388 10.9948ZM45.8065 17.4652L47.4922 12.3974H47.5016L49.188 17.4652H45.8065ZM49.2891 10.5729C49.2522 10.4564 49.2079 10.3641 49.1554 10.2966C49.1034 10.2289 49.0172 10.1782 48.8978 10.1446C48.7777 10.1108 48.6101 10.0893 48.3952 10.08C48.1801 10.0707 47.8915 10.0663 47.5293 10.0663C47.2158 10.0661 46.9642 10.0708 46.7735 10.08C46.5832 10.0893 46.434 10.1108 46.3267 10.1446C46.2195 10.1783 46.141 10.2275 46.0918 10.2919C46.0426 10.3564 45.9995 10.4409 45.963 10.5453L42.2862 21.1233C42.2126 21.3384 42.1666 21.5104 42.1478 21.6393C42.1296 21.7684 42.1512 21.8684 42.2125 21.9388C42.2739 22.0095 42.3844 22.054 42.5443 22.0723C42.7042 22.0908 42.9253 22.1001 43.2077 22.1001C43.4715 22.1 43.6855 22.0938 43.8479 22.0816C44.0106 22.0692 44.1366 22.0462 44.2257 22.0125C44.3147 21.9787 44.3794 21.9327 44.4192 21.8742C44.4595 21.816 44.4915 21.7438 44.5159 21.6577L45.2717 19.3265H49.7496L50.5513 21.7223C50.5757 21.8022 50.6066 21.8668 50.6436 21.9158C50.6808 21.965 50.7449 22.0033 50.8372 22.0309C50.9291 22.0585 51.0628 22.077 51.2381 22.0861C51.4129 22.0954 51.6573 22.1001 51.9707 22.1001C52.2715 22.1 52.5082 22.0923 52.6801 22.077C52.852 22.0616 52.9715 22.0218 53.0395 21.9572C53.107 21.8928 53.1318 21.7959 53.113 21.6669C53.0949 21.5379 53.0484 21.3628 52.9748 21.1416L49.2891 10.5729ZM38.0762 14.7507C37.9893 15.0139 37.8628 15.2396 37.6952 15.4283C37.5283 15.6172 37.3133 15.7641 37.0505 15.8693C36.7873 15.9745 36.4606 16.027 36.0708 16.027H34.4242V11.9516H36.0149C36.2688 11.9516 36.5147 11.9688 36.7531 12.0028C36.9914 12.0369 37.2185 12.1188 37.4353 12.2487C37.6521 12.3786 37.8345 12.5799 37.9833 12.8521C38.132 13.1245 38.2061 13.4713 38.2061 13.8919C38.2062 14.2014 38.1631 14.4877 38.0762 14.7507ZM39.9606 11.3622C39.7007 11.0684 39.3867 10.8253 39.0184 10.6335C38.6502 10.4417 38.2863 10.3102 37.9275 10.2388C37.5688 10.1679 37.2607 10.1214 37.0042 10.0997C36.747 10.078 36.4762 10.067 36.1919 10.067H32.8093C32.5616 10.067 32.3619 10.1399 32.2106 10.2853C32.0586 10.4305 31.9827 10.6489 31.9827 10.9398V21.7456C31.9827 21.8074 32.0015 21.8631 32.0387 21.9127C32.0757 21.9622 32.1409 22.0024 32.2338 22.0334C32.3267 22.0644 32.4516 22.089 32.6098 22.1077C32.7673 22.1261 32.9637 22.1355 33.1991 22.1355C33.4403 22.1354 33.6387 22.1261 33.7936 22.1077C33.9478 22.089 34.0716 22.0644 34.1646 22.0334C34.2575 22.0025 34.3238 21.9622 34.364 21.9127C34.4045 21.8631 34.4244 21.8075 34.4244 21.7456V17.9116H35.978C36.7702 17.9116 37.4586 17.8186 38.0437 17.633C38.6286 17.4472 39.1218 17.1766 39.5243 16.8206C39.9269 16.4649 40.2332 16.0268 40.4431 15.507C40.6539 14.9873 40.759 14.3899 40.759 13.7155C40.759 13.2266 40.691 12.7856 40.5549 12.3925C40.4184 11.9997 40.2205 11.6561 39.9606 11.3622Z" fill="#E6E6E6"/>
</svg>
