<svg width="22" height="24" viewBox="0 0 22 24" fill="none" xmlns="http://www.w3.org/2000/svg">
<path d="M9.30762 4.24013C9.45283 3.13651 9.80134 2.09098 10.3822 1.16162C10.5855 0.842154 10.8178 0.522687 11.0502 0.232261C11.2535 -0.0291218 11.5729 -0.0581652 11.7762 0.145133C11.9795 0.34843 11.9795 0.609813 11.7762 0.871196C11.0211 1.74247 10.5855 2.788 10.3531 3.92066C10.3531 3.97875 10.3531 4.00779 10.3531 4.06588C10.7307 3.97875 11.1083 3.86258 11.4858 3.80449C12.6475 3.63024 13.7802 3.83354 14.8257 4.29822C15.2033 4.47247 15.5518 4.64673 15.9293 4.87907C16.0455 4.93715 16.1036 5.11141 16.2197 5.22758C16.2778 5.31471 16.3359 5.40183 16.423 5.43088C18.3108 6.56353 19.7629 8.10279 20.5471 10.1939C21.7959 13.5047 21.2441 16.5832 19.0078 19.2842C17.1781 21.4624 14.7967 22.6531 11.9795 22.9726C8.87198 23.3211 6.05485 22.566 3.61528 20.5911C1.7856 19.1099 0.594857 17.2222 0.246346 14.8987C-0.218335 12.0235 0.623898 9.52588 2.54071 7.37673C3.00539 6.85396 3.58624 6.41832 4.109 5.95364C4.19613 5.86651 4.25422 5.80843 4.22517 5.66322C4.16709 5.43088 4.25422 5.25662 4.45752 5.14045C5.73539 4.41439 7.07134 3.94971 8.55251 4.06588C8.69772 4.06588 8.84294 4.09492 8.98815 4.12396C9.01719 4.18205 9.16241 4.21109 9.30762 4.24013ZM4.57368 6.76683C3.93475 7.20247 3.23773 7.87045 2.71496 8.56747C1.32092 10.4262 0.740069 12.4882 1.11762 14.8116C1.52422 17.0769 2.74401 18.8776 4.60273 20.2135C6.89709 21.8399 9.45283 22.3917 12.2119 21.9851C14.7676 21.6076 16.8877 20.4168 18.4851 18.3839C19.9081 16.5542 20.46 14.4631 20.0534 12.1687C19.5306 9.32258 17.8461 7.34768 15.3485 6.01173C15.2904 5.98268 15.2033 5.95364 15.1742 5.98268C14.8547 6.09885 14.5643 6.30215 14.3029 6.56354C14.332 6.59258 14.361 6.62162 14.3901 6.62162C15.4646 7.2896 16.2488 8.21896 16.9458 9.23545C17.062 9.43875 17.091 9.613 16.9748 9.8163C16.8296 9.99056 16.6554 10.0486 16.4521 9.99056C15.7841 9.87439 15.1161 9.78726 14.4191 9.72917C13.9544 9.70013 13.4607 9.75821 12.996 9.78726C12.9379 9.78726 12.8508 9.90343 12.8508 9.96151C12.7927 11.5008 12.0957 12.7206 11.0211 13.7951C10.8469 13.9694 10.6436 14.0275 10.4112 13.9113C10.2079 13.8242 10.0046 13.737 9.83039 13.6209C9.10432 13.1852 8.46538 12.6625 8.05879 11.8783C7.97166 11.7331 7.91358 11.5589 7.85549 11.3846C7.71028 11.4136 7.59411 11.4717 7.47794 11.5008C6.51953 11.7912 5.53209 11.9655 4.54464 11.7041C4.22517 11.6169 4.07996 11.4136 4.13805 11.0942C4.3123 10.0196 4.7189 9.03215 5.38688 8.16088C5.44496 8.07375 5.53209 7.98662 5.59017 7.89949C5.24166 7.4929 4.92219 7.14439 4.57368 6.76683ZM10.5274 12.8948C11.3696 12.1397 11.9505 10.7747 11.8634 9.67109C11.8343 9.38066 11.9505 9.17736 12.2119 9.06119C12.3861 8.97407 12.5894 8.91598 12.7927 8.8579C13.4607 8.71268 14.1287 8.74173 14.7967 8.79981C15 8.82886 15.2323 8.82885 15.4937 8.8579C14.8838 8.16088 14.3029 7.58003 13.4897 7.23151C13.0541 7.02822 12.967 6.76683 13.2284 6.38928C13.5188 5.89556 13.9254 5.54705 14.4772 5.22758C14.2158 5.14045 13.9835 5.05332 13.7802 4.9662C12.6475 4.61768 11.5149 4.61768 10.4403 5.14045C10.266 5.22758 10.2079 5.31471 10.237 5.48896C10.2951 6.01173 10.3531 6.53449 10.4403 7.05726C10.4984 7.37673 10.3531 7.60907 10.0918 7.66715C9.83038 7.72524 9.569 7.55098 9.51092 7.23151C9.42379 6.67971 9.33666 6.1279 9.30762 5.57609C9.27858 5.31471 9.22049 5.19853 8.95911 5.14045C8.90102 5.14045 8.87198 5.11141 8.8139 5.11141C7.53603 4.85002 6.37432 5.25662 5.24166 5.77939C5.53209 6.44737 5.96772 6.94109 6.57762 7.26056C6.98421 7.46385 7.0423 7.84141 6.69379 8.13183C5.93868 8.82885 5.50305 9.67109 5.24166 10.6585C5.24166 10.7166 5.24166 10.7457 5.21262 10.8037C6.20007 10.8909 7.12943 10.6295 8.02974 10.2519C8.46538 10.0777 8.75581 10.2519 8.78485 10.7166C8.8139 11.0651 8.90102 11.3556 9.10432 11.646C9.42379 12.1978 9.94655 12.5753 10.5274 12.8948Z" fill="#CC2128"/>
<path d="M10.4981 23.1179C7.91327 23.1179 5.56082 22.2756 3.52784 20.6493C1.64008 19.11 0.478377 17.1932 0.129866 14.9279C-0.334815 12.1107 0.449334 9.555 2.45327 7.34776C2.80178 6.97021 3.20838 6.6217 3.58593 6.30223C3.73114 6.18606 3.87636 6.04085 4.02157 5.92468C4.1087 5.83755 4.13774 5.80851 4.10869 5.72138C4.02157 5.46 4.13774 5.22766 4.37008 5.11149C5.85125 4.26925 7.15816 3.92074 8.49412 4.03691C8.63933 4.03691 8.78454 4.06596 8.92976 4.095C9.01689 4.12404 9.13306 4.12404 9.22018 4.15308L9.27827 4.18213C9.45252 3.04947 9.80103 2.06202 10.3528 1.1617C10.5852 0.813191 10.8175 0.464682 11.0208 0.232341C11.137 0.0871285 11.2822 0 11.4565 0C11.6017 0 11.7469 0.0290425 11.8631 0.145213C12.0954 0.377553 12.0954 0.667979 11.8631 0.958405C11.166 1.7716 10.7014 2.75904 10.44 3.97883V4.00787C10.5271 3.97883 10.6142 3.94979 10.7014 3.94979C10.9627 3.8917 11.2241 3.80457 11.4855 3.77553C12.5891 3.60128 13.7218 3.77553 14.8835 4.2983C15.232 4.44351 15.5805 4.64681 15.9871 4.87915C16.0742 4.93723 16.1323 5.02436 16.1904 5.11149C16.2194 5.16957 16.2485 5.19862 16.2775 5.22766L16.3066 5.2567C16.3646 5.31479 16.4227 5.37287 16.4808 5.43095C18.4848 6.65074 19.8788 8.24808 20.6339 10.223C21.8827 13.5338 21.36 16.6123 19.0656 19.3714C17.294 21.4915 14.9125 22.7403 11.9792 23.0888C11.4565 23.0888 10.9627 23.1179 10.4981 23.1179ZM8.02944 4.15308C6.86774 4.15308 5.70603 4.50159 4.39912 5.22766C4.22486 5.34383 4.13774 5.48904 4.19582 5.69234C4.25391 5.89564 4.16678 5.95372 4.07965 6.04085C3.93444 6.15702 3.78923 6.30223 3.64402 6.4184C3.26646 6.73787 2.85987 7.08638 2.5404 7.43489C0.594548 9.61308 -0.189602 12.1398 0.275079 14.8988C0.623589 17.1351 1.75625 19.0229 3.61497 20.5331C5.99646 22.4499 8.78455 23.234 11.9211 22.8855C14.7964 22.5661 17.1488 21.3172 18.8914 19.2262C21.1567 16.4962 21.6794 13.4757 20.4306 10.223C19.7045 8.30617 18.3395 6.70883 16.3356 5.51808C16.2485 5.46 16.1904 5.40191 16.1323 5.31479L16.1033 5.28574C16.0742 5.2567 16.0452 5.19861 16.0161 5.14053C15.9581 5.0534 15.929 4.99532 15.8419 4.93723C15.4643 4.70489 15.1158 4.53064 14.7673 4.35638C13.6347 3.86266 12.531 3.6884 11.4565 3.86266C11.1951 3.8917 10.9627 3.97883 10.7014 4.03691C10.5852 4.06596 10.469 4.095 10.3528 4.12404L10.2657 4.15308V4.00787C10.2657 3.97883 10.2657 3.92074 10.2657 3.8917C10.5271 2.67191 10.9918 1.65543 11.7178 0.813192C11.9211 0.580852 11.9211 0.34851 11.7178 0.203297C11.6307 0.116169 11.5145 0.0871285 11.4274 0.0871285C11.3112 0.0871285 11.1951 0.174255 11.1079 0.290425C10.9047 0.522766 10.6433 0.871275 10.44 1.21979C9.88816 2.1201 9.53965 3.10755 9.39444 4.26925V4.35638L9.1621 4.2983C9.07497 4.26926 8.9588 4.24021 8.87167 4.24021C8.72646 4.21117 8.61029 4.18213 8.46508 4.18213C8.31986 4.15308 8.17465 4.15308 8.02944 4.15308ZM10.4981 22.1885C8.34891 22.1885 6.37401 21.5496 4.57338 20.2717C2.62753 18.8777 1.43678 17.048 1.05923 14.8407C0.681673 12.6045 1.20444 10.4844 2.65657 8.53851C3.17933 7.84149 3.87635 7.17351 4.54433 6.70883L4.60242 6.67979L5.70603 7.87053L5.61891 7.9867C5.56082 8.04478 5.53178 8.10287 5.4737 8.16095C4.83476 9.00319 4.42816 9.96159 4.22487 11.0652C4.16678 11.3556 4.28295 11.5299 4.57338 11.588C5.41561 11.7913 6.31593 11.7332 7.47763 11.3847C7.56476 11.3556 7.65188 11.3266 7.73901 11.2976L7.91327 11.2395L7.94231 11.2976C7.97136 11.3556 8.0004 11.4137 8.0004 11.4718C8.05848 11.588 8.08752 11.7041 8.14561 11.7913C8.46508 12.4593 9.01689 13.0111 9.88816 13.5048C10.0624 13.5919 10.2367 13.679 10.4109 13.7662L10.469 13.7952C10.6723 13.8823 10.8466 13.8533 10.9918 13.679C12.1535 12.5173 12.7343 11.2975 12.7924 9.90351C12.7924 9.81638 12.9086 9.67117 12.9957 9.67117C13.1119 9.67117 13.199 9.64212 13.3152 9.64212C13.6927 9.61308 14.0703 9.58404 14.4478 9.61308C15.0287 9.64212 15.6095 9.72925 16.1614 9.81638L16.4808 9.87446C16.7132 9.90351 16.8293 9.87446 16.9455 9.72925C17.0617 9.58404 17.0617 9.40979 16.9165 9.23553C16.1033 8.04479 15.3191 7.23159 14.3898 6.65074C14.3607 6.65074 14.3607 6.6217 14.3317 6.6217L14.2155 6.53457L14.2736 6.47649C14.5059 6.18606 14.7964 6.01181 15.1739 5.86659C15.261 5.83755 15.3772 5.89564 15.4062 5.89564C18.0491 7.31872 19.6465 9.40979 20.1402 12.0817C20.5468 14.347 20.024 16.4671 18.5428 18.3549C17.0036 20.3588 14.8544 21.6077 12.2406 21.9852C11.6307 22.1304 11.0499 22.1885 10.4981 22.1885ZM4.57338 6.88308C3.93444 7.31872 3.26646 7.9867 2.77274 8.62564C1.34965 10.5134 0.826886 12.6045 1.20444 14.8117C1.58199 16.9899 2.7437 18.7905 4.6605 20.1555C6.89678 21.7529 9.42348 22.3337 12.2116 21.8981C14.7964 21.4915 16.8874 20.3007 18.4267 18.2968C19.8498 16.4381 20.3725 14.3761 19.995 12.1398C19.5303 9.49691 17.962 7.43489 15.3482 6.04085C15.2901 6.01181 15.232 6.01181 15.232 6.01181C14.9125 6.12798 14.6802 6.27319 14.4478 6.50553C14.4478 6.50553 14.4478 6.50553 14.4769 6.50553C15.4353 7.08638 16.2485 7.92861 17.0617 9.1484C17.2069 9.38074 17.2359 9.61308 17.0907 9.81638C16.9455 10.0197 16.7712 10.0778 16.4808 10.0197L16.1614 9.96159C15.6095 9.87447 15.0287 9.78734 14.4478 9.7583C14.0993 9.72925 13.7218 9.75829 13.3442 9.78734C13.2281 9.78734 13.1409 9.81638 13.0248 9.81638C12.9957 9.81638 12.9376 9.87446 12.9376 9.90351C12.8795 11.3266 12.2696 12.6045 11.0789 13.7662C10.8756 13.9695 10.6433 14.0275 10.3819 13.9114L10.3238 13.8823C10.1495 13.7952 9.94625 13.7081 9.77199 13.621C8.90071 13.0982 8.31986 12.5464 7.97135 11.8494C7.91327 11.7332 7.88423 11.617 7.82614 11.5008C7.82614 11.4718 7.7971 11.4428 7.7971 11.4137L7.73901 11.4428C7.65188 11.4718 7.56476 11.5008 7.47763 11.5299C6.28689 11.8784 5.38657 11.9655 4.48625 11.7332C4.13774 11.6461 3.96348 11.3847 4.02157 11.0362C4.22487 9.90351 4.63146 8.91606 5.29944 8.07383C5.35752 8.01574 5.41561 7.92861 5.44465 7.87053L4.57338 6.88308ZM10.5271 12.982L10.469 12.953C9.97529 12.6916 9.39444 12.314 8.9588 11.6751C8.7555 11.3847 8.66838 11.0652 8.63933 10.7167C8.63933 10.5134 8.55221 10.3682 8.43604 10.3101C8.31987 10.252 8.14561 10.252 7.97135 10.3101C6.92582 10.7748 6.0255 10.949 5.12518 10.891H5.03806V10.8038C5.03806 10.7748 5.03806 10.7748 5.03806 10.7457C5.03806 10.7167 5.03806 10.6586 5.0671 10.6296C5.35752 9.555 5.85125 8.74181 6.54827 8.07383C6.69348 7.92862 6.75157 7.7834 6.75157 7.66723C6.72252 7.52202 6.6354 7.40585 6.46114 7.31872C5.85125 6.99925 5.38657 6.50553 5.09614 5.80851L5.0671 5.75042L5.12518 5.72138C6.17071 5.22766 7.3905 4.73394 8.7555 5.02436C8.78454 5.02436 8.81359 5.02436 8.84263 5.0534C8.87167 5.0534 8.90071 5.08245 8.92976 5.08245C9.22018 5.14053 9.30731 5.31479 9.33635 5.57617C9.36539 6.12798 9.45253 6.70883 9.53965 7.23159C9.5687 7.37681 9.62678 7.46393 9.71391 7.55106C9.80103 7.60915 9.91721 7.63819 10.0334 7.60915C10.2657 7.55106 10.3819 7.34776 10.3528 7.05734C10.3238 6.76691 10.2657 6.47649 10.2367 6.18606C10.2076 5.95372 10.1786 5.72138 10.1495 5.46C10.1205 5.2567 10.2076 5.14053 10.3819 5.02436C11.4274 4.53064 12.531 4.47255 13.7799 4.8501C13.9251 4.90819 14.0703 4.96628 14.2445 5.02436C14.3317 5.0534 14.3898 5.08245 14.4769 5.11149L14.6221 5.16957L14.4769 5.2567C13.9541 5.54713 13.5475 5.92468 13.2571 6.38936C13.1409 6.56362 13.1119 6.70883 13.1409 6.825C13.17 6.94117 13.2861 7.05734 13.4894 7.14447C14.2736 7.49298 14.8544 8.04479 15.5224 8.79989L15.6386 8.9451L15.2029 8.91606C15.0287 8.88702 14.8835 8.88702 14.7383 8.88702C14.0703 8.82893 13.4023 8.79989 12.7343 8.9451C12.531 8.97415 12.3568 9.06127 12.1825 9.1484C11.9502 9.23553 11.8631 9.40979 11.8921 9.70021C11.9792 10.8329 11.3984 12.2269 10.5271 12.982ZM8.29082 10.1068C8.37795 10.1068 8.49412 10.1358 8.5522 10.1939C8.69742 10.2811 8.81359 10.4844 8.81359 10.7167C8.84263 11.0362 8.92976 11.3266 9.10401 11.617C9.39444 12.0817 9.83008 12.4593 10.4981 12.8078C11.3112 12.0527 11.8631 10.7457 11.7759 9.67117C11.7469 9.32266 11.8921 9.11936 12.1535 8.97415C12.3277 8.88702 12.531 8.82893 12.7343 8.77085C13.4023 8.62564 14.0703 8.65468 14.7673 8.71276C14.9125 8.71276 15.0577 8.74181 15.232 8.74181H15.2901C14.7092 8.07383 14.1574 7.5801 13.4314 7.26064C13.199 7.14447 13.0538 7.0283 12.9957 6.85404C12.9376 6.67978 12.9957 6.50553 13.1119 6.30223C13.3733 5.86659 13.7508 5.48904 14.2445 5.19862C14.2155 5.19862 14.1865 5.16957 14.1574 5.16957C14.0122 5.11149 13.8379 5.0534 13.6927 4.99532C12.502 4.61776 11.3984 4.67585 10.3819 5.16957C10.2367 5.22766 10.2076 5.31479 10.2076 5.43095C10.2367 5.6633 10.2657 5.89564 10.2948 6.15702C10.3238 6.44744 10.3528 6.73787 10.4109 7.0283C10.469 7.40585 10.2948 7.66723 10.0043 7.72532C9.85912 7.75436 9.71391 7.72532 9.59774 7.63819C9.48157 7.55106 9.39444 7.40585 9.3654 7.23159C9.27827 6.67979 9.19114 6.12798 9.1621 5.54713C9.13306 5.31479 9.07497 5.22766 8.90071 5.19862C8.87167 5.19862 8.84263 5.19862 8.81359 5.16957C8.78455 5.16957 8.78454 5.16957 8.7555 5.14053C7.44859 4.87915 6.28688 5.31479 5.2704 5.77947C5.56082 6.4184 5.96742 6.85404 6.54827 7.17351C6.78061 7.28968 6.89678 7.46393 6.92582 7.63819C6.95487 7.81245 6.86774 8.01574 6.69348 8.19C6.0255 8.82893 5.56082 9.64212 5.2704 10.6586C5.2704 10.6877 5.2704 10.6877 5.2704 10.7167C6.11263 10.7748 6.98391 10.6005 7.97135 10.1649C8.05848 10.1358 8.17465 10.1068 8.29082 10.1068Z" fill="#CC2128"/>
</svg>
