<svg width="19" height="19" viewBox="0 0 19 19" fill="none" xmlns="http://www.w3.org/2000/svg">
<g clip-path="url(#clip0)">
<path d="M18.9994 9.49616C18.9994 14.702 14.7771 18.9476 9.64386 19.0029C4.35028 19.0605 0.00613849 14.7821 -0.000635125 9.55709C-0.0113148 8.29928 0.228641 7.05194 0.705243 5.88776C1.18184 4.72359 1.88556 3.66588 2.77536 2.77629C3.66516 1.8867 4.72325 1.18303 5.88795 0.706296C7.05264 0.229564 8.30064 -0.0106927 9.55919 -0.000464859C14.7692 0.00291994 18.996 4.25197 18.9994 9.49616ZM6.33947 13.4586V7.70447L9.50049 10.4349L12.6728 7.69093V13.4789C13.0612 13.4789 13.4168 13.4631 13.7713 13.4846C14.0388 13.5015 14.1246 13.4225 14.1235 13.1461C14.1122 10.937 14.1167 8.72781 14.1178 6.51979V5.06546C13.7374 4.98535 13.4529 5.04289 13.1797 5.29111C12.5452 5.88571 11.8825 6.43856 11.23 7.01397L9.505 8.52133C9.39211 8.42543 9.29954 8.34871 9.20809 8.26973C8.06787 7.27347 6.91861 6.2885 5.79419 5.27531C5.5176 5.02596 5.2444 5.01017 4.91136 5.0632V13.4643L6.33947 13.4586Z" fill="#CC2128"/>
<path d="M6.34034 13.4591H4.91223V5.05801C5.25091 5.00498 5.51847 5.02077 5.79506 5.27012C6.924 6.28556 8.06874 7.26828 9.20896 8.26453C9.30041 8.34351 9.39298 8.42024 9.50587 8.51614L11.2309 7.01442C11.8834 6.44464 12.5461 5.88615 13.1806 5.30171C13.4538 5.04898 13.7383 4.99144 14.1187 5.07606V6.51798C14.1187 8.726 14.1187 10.9351 14.1244 13.1443C14.1244 13.423 14.0397 13.5019 13.7721 13.4828C13.4176 13.4613 13.062 13.4771 12.6737 13.4771V7.69138L9.50249 10.4331L6.34146 7.70266L6.34034 13.4591Z" fill="white"/>
</g>
<defs>
<clipPath id="clip0">
<rect width="19" height="19" fill="white"/>
</clipPath>
</defs>
</svg>
