<svg width="21" height="21" viewBox="0 0 21 21" fill="none" xmlns="http://www.w3.org/2000/svg">
<path d="M19.8698 18.9957L15.2854 14.4113C16.5133 12.9833 17.2556 11.1277 17.2556 9.10133C17.2556 4.60385 13.5975 0.95 9.10426 0.95C4.60678 0.95 0.95293 4.6081 0.95293 9.10133C0.95293 13.5946 4.61101 17.2527 9.10426 17.2527C11.1307 17.2527 12.9862 16.5104 14.4142 15.2824L18.9986 19.8668C19.1175 19.9857 19.2776 20.05 19.4342 20.05C19.5898 20.05 19.7504 19.9906 19.8701 19.8665C20.1084 19.6279 20.1083 19.2342 19.8698 18.9957ZM2.18619 9.10133C2.18619 5.28684 5.28973 2.18747 9.10005 2.18747C12.9145 2.18747 16.0139 5.29101 16.0139 9.10133C16.0139 12.9117 12.9145 16.0194 9.10005 16.0194C5.28977 16.0194 2.18619 12.9159 2.18619 9.10133Z" fill="white" stroke="white" stroke-width="0.1"/>
</svg>
