<svg width="14" height="8" viewBox="0 0 14 8" fill="none" xmlns="http://www.w3.org/2000/svg">
<path d="M8.23898 1.96713C8.23898 2.31799 8.22481 2.64868 8.22279 2.97534C8.2184 3.15352 8.23952 3.33141 8.28552 3.50364C8.31341 3.61359 8.3758 3.71178 8.4636 3.78393C8.4853 3.80092 8.51075 3.81252 8.53785 3.81778C8.56494 3.82304 8.5929 3.8218 8.61942 3.81417C8.71396 3.78409 8.80043 3.73307 8.87237 3.66496C9.04538 3.50605 9.20136 3.32968 9.33781 3.13867C9.8217 2.47115 10.2207 1.74644 10.5257 0.981107C10.5803 0.852056 10.6329 0.725022 10.6835 0.593955C10.7197 0.493781 10.7918 0.410474 10.8859 0.360051C10.9448 0.338443 11.0073 0.328179 11.07 0.329804C11.0984 0.329804 11.1287 0.329804 11.1591 0.329804H13.1827C13.3203 0.329804 13.4579 0.329804 13.5874 0.329804C13.657 0.338738 13.7251 0.357053 13.7898 0.384248C13.8422 0.399506 13.8881 0.431814 13.92 0.476028C13.9519 0.520242 13.968 0.573821 13.9658 0.628234C13.9658 0.766668 13.9383 0.903732 13.8849 1.03152C13.7492 1.35887 13.5782 1.67055 13.3749 1.96109C12.9965 2.53778 12.5655 3.07616 12.1608 3.62664C12.0252 3.81014 11.8977 3.99968 11.7763 4.19124C11.7044 4.29725 11.6715 4.42477 11.6832 4.55218C11.7004 4.67559 11.7572 4.79016 11.8451 4.87884C11.9928 5.03612 12.1425 5.19138 12.3004 5.33858C12.7233 5.71471 13.1201 6.11892 13.4883 6.54843C13.6599 6.75233 13.8079 6.97487 13.9294 7.21183C13.9593 7.27579 13.9797 7.3437 13.9901 7.41347C14.0084 7.49062 14.0012 7.57161 13.9694 7.6443C13.9377 7.717 13.8832 7.7775 13.8141 7.81676C13.6788 7.90191 13.5228 7.94862 13.3628 7.95186C12.7658 7.96799 12.1689 7.96396 11.5739 7.99823C11.1913 8.0168 10.816 7.88833 10.5257 7.63931C10.3064 7.45969 10.1032 7.26132 9.91859 7.04649C9.71622 6.8267 9.52803 6.60489 9.3115 6.39518C9.2195 6.30517 9.11528 6.22847 9.00188 6.16733C8.92917 6.12298 8.84297 6.10592 8.75877 6.11922C8.67457 6.13253 8.59789 6.17533 8.54252 6.23992C8.4423 6.36027 8.37224 6.50265 8.33814 6.6553C8.27322 6.88797 8.2372 7.1277 8.23088 7.36911C8.22782 7.4292 8.22174 7.48909 8.21267 7.54857C8.20129 7.62484 8.16873 7.69642 8.11866 7.75521C8.0686 7.814 8.00303 7.85767 7.92936 7.88128C7.83128 7.92218 7.72607 7.94342 7.61975 7.94379C7.35263 7.94379 7.08551 7.94379 6.8103 7.94379C6.3388 7.93836 5.87208 7.8489 5.43221 7.67964C4.63791 7.38148 3.9272 6.89738 3.36002 6.26815C2.79718 5.65116 2.29568 4.98126 1.86254 4.26786C1.17649 3.15957 0.567961 2.00546 0.0412767 0.813744C0.00690089 0.735136 -0.00634977 0.648966 0.00282788 0.563709C0.00477103 0.531832 0.0154097 0.501089 0.0335968 0.474794C0.0517838 0.448499 0.0768293 0.42765 0.106033 0.414494C0.205816 0.364288 0.316006 0.338047 0.427789 0.33787H2.43927C2.55855 0.34592 2.67292 0.388317 2.76848 0.459909C2.86404 0.531501 2.93667 0.629207 2.97756 0.741153C3.1513 1.19884 3.36036 1.64244 3.60286 2.06796C3.86539 2.54166 4.16089 2.99646 4.48718 3.42904C4.59786 3.58904 4.73466 3.72945 4.8919 3.84442C4.94198 3.88613 5.00348 3.91189 5.06843 3.91836C5.13338 3.92483 5.19878 3.91172 5.25616 3.88071C5.3189 3.8433 5.36786 3.78673 5.39579 3.7194C5.46928 3.55115 5.51441 3.37197 5.52935 3.18908C5.57352 2.76305 5.58232 2.33411 5.55565 1.90664C5.55072 1.65149 5.52432 1.3972 5.47673 1.14645C5.46459 1.08394 5.44233 1.02345 5.43019 0.960943C5.41559 0.902812 5.38848 0.848538 5.35075 0.801883C5.31301 0.755227 5.26554 0.717305 5.21164 0.690743C5.07274 0.604708 4.91527 0.552868 4.75227 0.539512C4.70573 0.539512 4.68954 0.515315 4.70978 0.474986C4.72711 0.434844 4.75029 0.397473 4.77858 0.364083C4.92658 0.203707 5.1264 0.100223 5.34317 0.0717031C5.65722 0.0179997 5.97571 -0.00563291 6.29428 0.00112857C6.64841 0.00112857 7.00457 0.00112857 7.36073 0.0233091C7.51527 0.0330731 7.66846 0.0580642 7.81806 0.0979165C7.93719 0.121508 8.04482 0.184554 8.12344 0.276806C8.20206 0.369058 8.24706 0.485093 8.25112 0.606053C8.26834 0.80047 8.27442 0.995707 8.26933 1.19081C8.26528 1.45496 8.2491 1.72113 8.23898 1.96713Z" fill="white"/>
</svg>
