<svg width="27" height="16" viewBox="0 0 27 16" fill="none" xmlns="http://www.w3.org/2000/svg">
<path d="M15.8895 3.93427C15.8895 4.63598 15.8621 5.29737 15.8582 5.95068C15.8498 6.30704 15.8905 6.66282 15.9792 7.00729C16.033 7.22717 16.1533 7.42356 16.3227 7.56785C16.3645 7.60184 16.4136 7.62505 16.4658 7.63557C16.5181 7.64608 16.572 7.64361 16.6232 7.62834C16.8055 7.56817 16.9723 7.46615 17.111 7.32991C17.4447 7.0121 17.7455 6.65935 18.0086 6.27734C18.9419 4.9423 19.7114 3.49287 20.2995 1.96221C20.4049 1.70411 20.5064 1.45004 20.6039 1.18791C20.6737 0.987563 20.8127 0.820948 20.9942 0.720101C21.1078 0.676886 21.2283 0.656359 21.3493 0.659609C21.404 0.659609 21.4625 0.659609 21.5211 0.659609H25.4238C25.6891 0.659609 25.9545 0.659609 26.2043 0.659609C26.3386 0.677475 26.4699 0.714106 26.5946 0.768495C26.6958 0.799012 26.7841 0.863628 26.8457 0.952056C26.9072 1.04048 26.9383 1.14764 26.9341 1.25647C26.9341 1.53334 26.8811 1.80746 26.778 2.06303C26.5163 2.71774 26.1866 3.34111 25.7945 3.92217C25.0647 5.07556 24.2334 6.15233 23.4529 7.25329C23.1914 7.62028 22.9455 7.99936 22.7114 8.38248C22.5727 8.5945 22.5093 8.84954 22.5319 9.10436C22.5652 9.35119 22.6747 9.58032 22.8441 9.75768C23.129 10.0722 23.4178 10.3828 23.7222 10.6772C24.5377 11.4294 25.3031 12.2378 26.0131 13.0969C26.344 13.5047 26.6294 13.9497 26.8639 14.4237C26.9214 14.5516 26.9609 14.6874 26.9809 14.8269C27.0163 14.9812 27.0023 15.1432 26.941 15.2886C26.8798 15.434 26.7747 15.555 26.6414 15.6335C26.3805 15.8038 26.0796 15.8972 25.7711 15.9037C24.6198 15.936 23.4685 15.9279 22.3211 15.9965C21.5831 16.0336 20.8595 15.7767 20.2995 15.2786C19.8766 14.9194 19.4848 14.5226 19.1287 14.093C18.7384 13.6534 18.3755 13.2098 17.9579 12.7904C17.7805 12.6103 17.5795 12.4569 17.3608 12.3347C17.2206 12.246 17.0543 12.2118 16.8919 12.2384C16.7295 12.2651 16.5816 12.3507 16.4749 12.4798C16.2816 12.7205 16.1465 13.0053 16.0807 13.3106C15.9555 13.7759 15.886 14.2554 15.8738 14.7382C15.8679 14.8584 15.8562 14.9782 15.8387 15.0971C15.8168 15.2497 15.754 15.3928 15.6574 15.5104C15.5609 15.628 15.4344 15.7153 15.2923 15.7626C15.1032 15.8444 14.9003 15.8868 14.6952 15.8876C14.1801 15.8876 13.6649 15.8876 13.1341 15.8876C12.2248 15.8767 11.3247 15.6978 10.4764 15.3593C8.94454 14.763 7.57389 13.7948 6.48004 12.5363C5.39457 11.3023 4.42738 9.96253 3.59204 8.53573C2.26895 6.31915 1.09535 4.01093 0.0796051 1.62749C0.0133089 1.47027 -0.012246 1.29793 0.00545376 1.12742C0.00920127 1.06366 0.0297187 1.00218 0.0647937 0.949588C0.0998688 0.896998 0.148171 0.855299 0.204492 0.828988C0.396931 0.728576 0.609441 0.676094 0.825022 0.67574H4.70431C4.93435 0.691841 5.15492 0.776635 5.33921 0.919819C5.5235 1.063 5.66358 1.25841 5.74243 1.48231C6.07751 2.39769 6.48069 3.28487 6.94836 4.13591C7.45469 5.08331 8.02457 5.99292 8.65385 6.85807C8.86731 7.17809 9.13114 7.45889 9.43439 7.68883C9.53097 7.77226 9.64958 7.82378 9.77483 7.83672C9.90009 7.84966 10.0262 7.82343 10.1369 7.76143C10.2579 7.6866 10.3523 7.57347 10.4062 7.4388C10.5479 7.10231 10.6349 6.74395 10.6637 6.37816C10.7489 5.5261 10.7659 4.66823 10.7145 3.81328C10.705 3.30298 10.6541 2.79441 10.5623 2.29291C10.5389 2.16789 10.4959 2.0469 10.4725 1.92189C10.4444 1.80562 10.3921 1.69708 10.3193 1.60377C10.2465 1.51045 10.155 1.43461 10.051 1.38149C9.78313 1.20942 9.47945 1.10574 9.1651 1.07902C9.07534 1.07902 9.04412 1.03063 9.08314 0.949973C9.11656 0.869688 9.16127 0.794945 9.21584 0.728167C9.50126 0.407413 9.88664 0.200447 10.3047 0.143406C10.9104 0.0359993 11.5246 -0.0112658 12.139 0.00225713C12.8219 0.00225713 13.5088 0.00225713 14.1957 0.0466183C14.4937 0.0661462 14.7892 0.116128 15.0777 0.195833C15.3074 0.243017 15.515 0.369107 15.6666 0.553611C15.8183 0.738115 15.905 0.970187 15.9129 1.21211C15.9461 1.60094 15.9578 1.99141 15.948 2.38163C15.9402 2.90993 15.909 3.44226 15.8895 3.93427Z" fill="#CC2128"/>
</svg>
