<svg width="10" height="14" viewBox="0 0 10 14" fill="none" xmlns="http://www.w3.org/2000/svg">
<path d="M5.00029 7.21656C3.75317 7.21656 2.74109 6.20869 2.74109 4.96532C2.74109 3.72078 3.75317 2.71349 5.00029 2.71349C6.24742 2.71349 7.2595 3.72136 7.2595 4.96532C7.2595 6.2081 6.24742 7.21656 5.00029 7.21656ZM5.00029 0C2.23859 0 0 2.23084 0 4.98339C0 7.58321 2.26451 10.9368 3.77673 12.5695C4.34168 13.1787 4.99971 14 4.99971 14C4.99971 14 5.70663 13.174 6.31281 12.5468C7.82386 10.9822 10 7.84086 10 4.98339C10 2.23084 7.76141 0 5.00029 0Z" fill="#000"/>
</svg>
