<svg width="31" height="31" viewBox="0 0 31 31" fill="none" xmlns="http://www.w3.org/2000/svg">
<g clip-path="url(#clip0)">
<path d="M5.70288 25.3712C6.30317 25.5505 6.89816 25.7457 7.50268 25.9061C10.3036 26.6538 13.2165 26.894 16.1026 26.6151C16.6404 26.5634 17.175 26.4843 17.7129 26.4284C17.8653 26.4125 17.9172 26.3229 17.9733 26.2047C19.4117 23.2694 20.8519 20.3344 22.2939 17.3998C24.3499 13.2111 26.407 9.02197 28.4651 4.83251C28.6292 4.49909 28.8886 4.33555 29.1861 4.37354C29.3301 4.38483 29.4659 4.44471 29.5712 4.54331C29.6765 4.6419 29.7449 4.77331 29.7652 4.91586C29.7781 5.10139 29.7416 5.28703 29.6593 5.45396C28.9584 6.90262 28.2438 8.34495 27.5345 9.78938C24.695 15.5735 21.857 21.3582 19.0204 27.1437C18.9555 27.3005 18.8497 27.4371 18.714 27.5393C18.5783 27.6415 18.4176 27.7057 18.2486 27.7251C15.7868 28.136 13.2787 28.1936 10.8006 27.896C10.7173 27.882 10.6318 27.8904 10.5528 27.9203C10.8355 28.0079 11.1161 28.0986 11.3998 28.182C13.6566 28.8439 15.9739 29.2808 18.3174 29.4861C19.1908 29.5599 20.0685 29.5779 20.944 29.6285C21.0071 29.639 21.0718 29.627 21.1268 29.5946C21.1819 29.5622 21.2236 29.5114 21.2447 29.4512C23.8392 24.1546 26.4366 18.8598 29.0368 13.5667C29.2591 13.1151 29.4783 12.6635 29.7027 12.214C29.8943 11.8289 30.2818 11.6865 30.6323 11.8574C30.9827 12.0283 31.1002 12.4229 30.9086 12.807C29.1744 16.3437 27.4388 19.8797 25.7019 23.415C24.55 25.7615 23.3928 28.106 22.2505 30.4568C22.0641 30.8408 21.8069 30.9991 21.376 30.9959C17.2113 30.9829 13.0786 30.2695 9.15215 28.8857C6.33069 27.8897 3.66593 26.5792 1.21185 24.8573C0.883648 24.6273 0.567094 24.3794 0.259011 24.1261C0.132573 24.0301 0.0453172 23.8917 0.0133954 23.7365C-0.0185265 23.5813 0.00704756 23.4199 0.0853826 23.2821L6.57526 10.356C7.75183 8.01294 8.92629 5.66885 10.0986 3.32371C10.2839 2.9502 10.5433 2.78772 10.9604 2.79088C12.963 2.80772 14.9647 2.70448 16.9548 2.48174C19.4491 2.20108 21.9127 1.76532 24.2684 0.865317C24.8242 0.654296 25.3557 0.370473 25.8892 0.103532C26.1963 -0.0494579 26.4917 -0.0441826 26.7235 0.162618C26.9554 0.369418 27.0178 0.679619 26.8601 1.00037C26.1684 2.41351 25.4753 3.82523 24.7808 5.23556C22.0126 10.8761 19.2437 16.5167 16.4742 22.1573C16.2053 22.706 15.9311 23.2536 15.6674 23.8054C15.5684 24.0175 15.3937 24.1853 15.1773 24.276C13.9491 24.8242 12.6449 25.1842 11.3087 25.3437C9.44224 25.5875 7.57679 25.5326 5.71241 25.3184L5.70288 25.3712Z" fill="#CC2126"/>
</g>
<defs>
<clipPath id="clip0">
<rect width="31" height="31" fill="white"/>
</clipPath>
</defs>
</svg>
