<svg width="31" height="26" viewBox="0 0 31 26" fill="none" xmlns="http://www.w3.org/2000/svg">
<path d="M0 18.2063V3.9527C0.00978437 3.90687 0.0240163 3.86282 0.0293533 3.81609C0.143718 2.83554 0.609571 1.93128 1.33888 1.27418C2.06819 0.617074 3.01044 0.252648 3.98758 0.249767C11.6621 0.246172 19.3366 0.246172 27.0111 0.249767C28.0626 0.250456 29.0711 0.671219 29.8168 1.42029C30.5625 2.16936 30.9847 3.18597 30.9916 4.2484C31.0028 8.80217 31.0028 13.3559 30.9916 17.9097C30.9857 18.9696 30.5659 19.9844 29.8235 20.7332C29.0811 21.482 28.0761 21.9043 27.0271 21.9083C19.3419 21.9155 11.6567 21.9155 3.97157 21.9083C3.14053 21.9048 2.3315 21.6381 1.65831 21.1458C0.98513 20.6534 0.481682 19.9601 0.218814 19.1635C0.130002 18.8484 0.0569717 18.5289 0 18.2063ZM15.5056 19.4286H27.0796C27.9691 19.4286 28.5214 18.8669 28.5214 17.9735C28.5214 13.388 28.5214 8.80427 28.5214 4.22233C28.5214 3.34064 27.9593 2.77532 27.0867 2.77532H3.90663C3.04383 2.77532 2.48345 3.33974 2.48345 4.21335C2.48345 4.58095 2.48345 4.94854 2.48345 5.31524C2.48345 9.52747 2.48345 13.74 2.48345 17.9529C2.46897 18.2233 2.52738 18.4926 2.65245 18.7321C2.93976 19.2237 3.37294 19.4277 3.93154 19.4277C7.79014 19.4259 11.6481 19.4262 15.5056 19.4286Z" fill="#CC2128"/>
<path d="M6.70862 25.9088C6.50179 25.7975 6.26977 25.7207 6.09171 25.5691C5.90313 25.3989 5.76797 25.1684 5.70522 24.9098C5.64248 24.6512 5.6553 24.3776 5.74188 24.1274C5.82335 23.8756 5.97255 23.6567 6.16984 23.4996C6.36712 23.3425 6.60325 23.2544 6.84711 23.2471C6.90107 23.2471 6.95413 23.2471 7.00719 23.2471C12.671 23.2471 18.3344 23.2471 23.9976 23.2471C24.3969 23.2471 24.7458 23.3554 25.0183 23.6853C25.1582 23.8546 25.256 24.0606 25.3023 24.2832C25.3486 24.5059 25.3419 24.7379 25.2827 24.9569C25.2236 25.1759 25.114 25.3745 24.9646 25.5338C24.8151 25.6931 24.6308 25.8077 24.4293 25.8665C24.3843 25.8803 24.3393 25.898 24.2962 25.9137L6.70862 25.9088Z" fill="#CC2128"/>
<path d="M19.5093 11.4631L20.7944 8.89855C20.9715 8.54736 21.1432 8.19347 21.3255 7.84589C21.4281 7.63322 21.5972 7.46119 21.8062 7.35674C22.0152 7.25229 22.2524 7.22132 22.4806 7.26868C22.7001 7.31293 22.9003 7.42661 23.0526 7.5935C23.2048 7.76038 23.3014 7.97194 23.3285 8.19797C23.3537 8.44361 23.301 8.69101 23.178 8.90395C22.4941 10.2643 21.8108 11.6258 21.1281 12.9885C20.9157 13.4099 20.7015 13.8314 20.4926 14.2555C20.2837 14.6796 19.9616 14.9137 19.4969 14.9137C19.0322 14.9137 18.7083 14.676 18.4994 14.2564C17.6043 12.4626 16.7062 10.6692 15.8052 8.87604C15.437 8.13944 15.8423 7.35063 16.6336 7.25518C16.8492 7.23499 17.0657 7.2823 17.2541 7.39077C17.4425 7.49925 17.5938 7.66369 17.6878 7.8621C18.0684 8.60949 18.4419 9.36049 18.8189 10.1133L19.4128 11.2938C19.4385 11.337 19.4668 11.3857 19.5093 11.4631Z" fill="#CC2128"/>
<path d="M12.2892 9.32788V9.53812C12.2892 10.9634 12.2892 12.388 12.2892 13.8121C12.3065 14.0816 12.2128 14.3469 12.0278 14.5518C11.8428 14.7566 11.5812 14.8849 11.2985 14.9094C11.0157 14.934 10.734 14.8528 10.5131 14.6832C10.2922 14.5135 10.1495 14.2688 10.1152 14.0007C10.1023 13.9041 10.0962 13.8066 10.097 13.7092C10.097 12.3249 10.097 10.9406 10.097 9.55629V9.33654C10.0333 9.33654 9.97688 9.32875 9.92046 9.32875C9.43544 9.32875 8.95041 9.33394 8.46447 9.32875C7.97853 9.32356 7.60908 9.11245 7.42708 8.67899C7.24508 8.27063 7.33608 7.89341 7.64639 7.56896C7.74137 7.46666 7.85838 7.38497 7.98948 7.32944C8.12058 7.27391 8.26271 7.24583 8.40623 7.24711C10.2663 7.24711 12.1254 7.24711 13.9854 7.24711C14.2549 7.26517 14.5078 7.37757 14.6952 7.56259C14.8826 7.74761 14.9912 7.99211 15.0001 8.24884C15.0089 8.50558 14.9173 8.7563 14.743 8.95257C14.5687 9.14883 14.3241 9.27669 14.0564 9.31144C13.5404 9.3374 13.0217 9.32269 12.5048 9.32615L12.2892 9.32788Z" fill="#CC2128"/>
</svg>
