<svg width="85" height="85" viewBox="0 0 85 85" fill="none" xmlns="http://www.w3.org/2000/svg">
<path fill-rule="evenodd" clip-rule="evenodd" d="M17.5361 83.2158C8.84902 83.2158 1.78418 76.151 1.78418 67.4638V17.5361C1.78418 8.84902 8.85202 1.78418 17.5361 1.78418H67.4638C76.1509 1.78418 83.2158 8.85202 83.2158 17.5361V67.4638C83.2158 76.151 76.1509 83.2158 67.4638 83.2158H17.5361V83.2158Z" fill="#FAFAFA"/>
<path d="M67.4638 0.893555H17.5361C8.38121 0.893555 0.893555 8.38421 0.893555 17.5361V67.4638C0.893555 76.6157 8.38121 84.1063 17.5361 84.1063H67.4638C76.6157 84.1063 84.1064 76.6157 84.1064 67.4638V17.5361C84.1064 8.38421 76.6187 0.893555 67.4638 0.893555ZM67.4638 2.67476C75.6591 2.67476 82.3252 9.34078 82.3252 17.5361V67.4638C82.3252 75.6591 75.6591 82.3251 67.4638 82.3251H17.5361C9.34078 82.3251 2.67476 75.6591 2.67476 67.4638V17.5361C2.67476 9.34078 9.34078 2.67476 17.5361 2.67476H67.4638V2.67476Z" fill="#E5E5E5"/>
<path fill-rule="evenodd" clip-rule="evenodd" d="M37.4475 24.9186L27.9717 66.654H16.7417L22.874 36.7123H7.97965L5.12793 24.9186H37.4475ZM42.7011 48.4581H54.5578C56.0691 48.4581 57.2926 49.7955 57.2926 51.4418C57.2926 53.091 56.0662 54.4284 54.5578 54.4284C53.0465 54.4284 51.82 53.091 51.82 51.4418C51.82 51.3728 51.823 51.3068 51.826 51.2408H45.4299C45.4329 51.3068 45.4359 51.3758 45.4359 51.4418C45.4359 53.091 44.2095 54.4284 42.6981 54.4284C41.1868 54.4284 39.9604 53.091 39.9604 51.4418C39.9634 49.7925 41.1898 48.4581 42.7011 48.4581ZM54.4979 49.4956L54.7078 49.5076L54.9087 49.5436L55.0916 49.5976L55.3045 49.6875L55.4544 49.7715L55.6253 49.8945L55.7753 50.0264L55.9642 50.2453L56.0961 50.4462L56.2191 50.6981L56.3 50.941L56.351 51.2049L56.366 51.4238L56.354 51.6936L56.312 51.9425L56.2611 52.1225L56.1741 52.3384L56.0542 52.5573L55.8982 52.7702L55.7483 52.9291L55.5684 53.079L55.3195 53.232L55.0946 53.3279L54.8187 53.3999L54.5038 53.4269L54.183 53.3999L53.9611 53.3459L53.6792 53.229L53.4813 53.112L53.2624 52.9351L53.1215 52.7912L52.9895 52.6202L52.8726 52.4283L52.7646 52.1884L52.6837 51.9155L52.6447 51.6637L52.6357 51.4028L52.6747 51.0639L52.7376 50.824L52.8246 50.6051L52.9116 50.4372L53.0225 50.2663L53.1874 50.0714L53.3464 49.9244L53.5203 49.7955L53.7272 49.6785L53.9131 49.6006L54.141 49.5376L54.2969 49.5136L54.4979 49.4956ZM42.7401 49.5136L42.95 49.5256L43.1509 49.5616L43.3338 49.6156L43.5467 49.7085L43.6967 49.7925L43.8676 49.9154L44.0145 50.0474L44.2035 50.2663L44.3354 50.4642L44.4583 50.7161L44.5393 50.959L44.5903 51.2229L44.6053 51.4418L44.5933 51.7116L44.5513 51.9635L44.5003 52.1434L44.4134 52.3593L44.2934 52.5783L44.1375 52.7912L43.9876 52.9501L43.8076 53.1L43.5587 53.2529L43.3338 53.3489L43.055 53.4209L42.7401 53.4479L42.4193 53.4209L42.1974 53.3669L41.9155 53.25L41.7176 53.13L41.4987 52.9531L41.3577 52.8091L41.2258 52.6382L41.1088 52.4463L41.0009 52.2064L40.9199 51.9335L40.8809 51.6817L40.8719 51.4208L40.9109 51.0819L40.9739 50.842L41.0609 50.6231L41.1478 50.4552L41.2588 50.2843L41.4237 50.0894L41.5826 49.9424L41.7595 49.8135L41.9665 49.6965L42.1524 49.6186L42.3803 49.5556L42.5362 49.5316L42.7401 49.5136ZM64.6873 23.7042H77.9504L79.8755 18.3516H67.9438C66.0097 19.3741 65.1761 21.4852 64.6873 23.7042ZM41.1658 24.9366L73.4224 24.9906L64.6873 43.5103C64.2495 44.4369 63.8327 45.2645 63.218 45.7893C62.6842 46.2481 62.1504 46.518 61.5177 46.446H38.3201C37.3515 46.446 36.7848 45.5764 36.6408 44.7368C36.4549 43.6512 36.8867 42.4698 37.0607 41.7561L41.1658 24.9366ZM47.8258 28.8829L46.2845 35.4799L50.6176 35.5189L52.2429 28.9038L47.8258 28.8829ZM54.0421 28.9098L52.5037 35.4679L56.8068 35.5189L58.4111 28.9278L54.0421 28.9098ZM60.2073 28.9338L58.579 35.5069L63.6917 35.5339L62.5133 37.6569L58.0783 37.6959L57.1157 41.6721H55.2325L56.0841 37.7739H51.925L51.0734 41.6721H49.0703L49.9279 37.7739L45.8707 37.7349L45.0791 41.6721H42.8211L43.7387 37.7349L40.797 37.7469L39.9693 41.2793C39.8674 41.8431 39.7894 42.2269 39.8524 42.6197C39.9274 43.0845 40.1972 43.5073 40.782 43.5073L59.8385 43.5013C61.3558 43.5013 61.9555 43.1745 62.5882 41.861L68.7925 28.9638L60.2073 28.9338ZM41.3247 35.5099L44.4104 35.4889L45.9547 28.8739L42.881 28.8619L41.3247 35.5099Z" fill="#E5E5E5"/>
<path fill-rule="evenodd" clip-rule="evenodd" d="M36.2748 59.823C36.1788 59.775 36.0708 59.736 35.9539 59.703C35.837 59.67 35.696 59.655 35.5251 59.655C35.3032 59.655 35.1113 59.703 34.9434 59.799C34.7784 59.8949 34.6465 60.0269 34.5505 60.1978C34.4546 60.3687 34.4036 60.5576 34.3916 60.7675C34.3796 60.9864 34.4396 61.1574 34.5625 61.2803C34.6885 61.4032 34.8744 61.4632 35.1233 61.4632C35.2342 61.4632 35.3572 61.4452 35.4951 61.4092C35.633 61.3733 35.768 61.3253 35.8999 61.2623L35.642 62.2279C35.3842 62.3178 35.1023 62.3658 34.7964 62.3658C34.2836 62.3658 33.8938 62.2339 33.6299 61.967C33.3661 61.7001 33.2431 61.3343 33.2671 60.8605C33.2881 60.4407 33.402 60.0628 33.6089 59.733C33.8159 59.4031 34.0917 59.1543 34.4426 58.9893C34.7934 58.8244 35.1982 58.7404 35.657 58.7404C35.804 58.7404 35.9599 58.7524 36.1218 58.7764C36.2838 58.8004 36.4217 58.8274 36.5326 58.8604L36.2748 59.823ZM39.0875 59.625H37.963L37.8341 60.1348H38.8866L38.6737 60.9594H37.6212L37.4862 61.4752H38.6857L38.4698 62.2998H36.2178L37.1264 58.7974H39.3004L39.0875 59.625ZM43.1957 62.3028H42.1581L42.6949 60.2398L42.8358 59.715H42.8148L42.6139 60.1498L41.5254 62.3028H40.5598L40.5359 60.2728C40.5329 60.1348 40.5388 59.9489 40.5478 59.715H40.5269C40.4609 60.0748 40.3919 60.4047 40.314 60.7016L39.8971 62.3028H38.9646L39.8731 58.8004H41.3485L41.3665 60.8965C41.3605 61.0014 41.3515 61.1124 41.3365 61.2263H41.3515C41.3845 61.1484 41.4145 61.0674 41.4504 60.9804C41.4834 60.8965 41.5164 60.8185 41.5524 60.7495L42.5 58.8004H44.1043L43.1957 62.3028ZM47.2409 62.3028H46.2693L46.6501 60.8305C46.7041 60.6266 46.7581 60.4317 46.818 60.2488H46.809C46.7821 60.2817 46.7521 60.3177 46.7161 60.3537C46.6831 60.3897 46.0594 61.0404 44.8479 62.3028H43.8824L44.7909 58.8004H45.7625L45.3577 60.3717C45.3307 60.4947 45.2917 60.6176 45.2437 60.7435H45.2527C45.2707 60.7195 45.3007 60.6836 45.3457 60.6326C45.3907 60.5846 45.9784 59.9729 47.1089 58.8004H48.1494L47.2409 62.3028ZM52.3986 62.3028H47.9276L48.8361 58.8004H49.8857L49.211 61.4092H49.8677L50.5424 58.8004H51.5949L50.9202 61.4092H51.5769L52.2546 58.8004H53.3041L52.3986 62.3028ZM55.3492 62.3028L55.3312 61.6581H54.2847L53.9399 62.3028H52.7854L54.8964 58.8004H56.2039L56.4257 62.3028H55.3492ZM55.3162 59.8379C55.3222 59.727 55.3312 59.649 55.3402 59.5981H55.3162L55.2653 59.721L55.1603 59.9339L54.6925 60.8305H55.3162L55.3132 59.9519L55.3162 59.8379ZM59.7723 59.625H58.5698L57.8771 62.3028H56.8276L57.7362 58.8004H59.9882L59.7723 59.625ZM63.2297 60.2757C63.2117 60.6596 63.1098 61.0194 62.9238 61.3493C62.7409 61.6791 62.495 61.931 62.1892 62.1049C61.8833 62.2789 61.5235 62.3658 61.1127 62.3658C60.8008 62.3658 60.5369 62.3028 60.318 62.1739C60.0991 62.045 59.9372 61.865 59.8292 61.6311C59.7213 61.3972 59.6763 61.1334 59.6913 60.8305C59.7093 60.4437 59.8142 60.0838 60.0002 59.757C60.1861 59.4271 60.435 59.1752 60.7408 59.0013C61.0467 58.8274 61.3975 58.7404 61.7934 58.7404C62.2611 58.7404 62.624 58.8784 62.8819 59.1513C63.1368 59.4241 63.2537 59.799 63.2297 60.2757ZM62.1112 60.3117C62.1202 60.0988 62.0842 59.9369 62.0033 59.823C61.9193 59.712 61.7964 59.655 61.6314 59.655C61.4785 59.655 61.3436 59.706 61.2266 59.808C61.1067 59.9099 61.0107 60.0538 60.9387 60.2338C60.8668 60.4167 60.8248 60.6056 60.8128 60.8035C60.8008 61.0194 60.8398 61.1843 60.9237 61.2953C61.0077 61.4062 61.1277 61.4602 61.2866 61.4602C61.4335 61.4602 61.5655 61.4152 61.6854 61.3223C61.8054 61.2293 61.9043 61.0914 61.9823 60.9055C62.0572 60.7225 62.0992 60.5216 62.1112 60.3117ZM67.6857 60.3477C67.6707 60.6386 67.5898 60.9055 67.4368 61.1484C67.2839 61.3912 67.086 61.5742 66.8401 61.6971C66.5942 61.8201 66.3153 61.88 65.9975 61.88H65.7216L65.6016 62.3598H64.6091L64.732 61.88H64.6211C64.2463 61.88 63.9584 61.7751 63.7575 61.5622C63.5536 61.3523 63.4606 61.0644 63.4786 60.7016C63.4936 60.3957 63.5776 60.1168 63.7305 59.8679C63.8834 59.619 64.0843 59.4331 64.3332 59.3072C64.5821 59.1812 64.873 59.1183 65.2028 59.1183H65.4757L65.5717 58.7314H66.5342L66.4413 59.1183H66.5522C66.9271 59.1183 67.2149 59.2232 67.4158 59.4361C67.6167 59.655 67.7067 59.9579 67.6857 60.3477ZM65.1998 59.8799C65.0709 59.8799 64.9569 59.9159 64.858 59.9849C64.759 60.0539 64.6781 60.1498 64.6181 60.2698C64.5581 60.3897 64.5251 60.5156 64.5191 60.6446C64.5131 60.7885 64.5431 60.9055 64.6151 60.9924C64.6841 61.0824 64.783 61.1274 64.906 61.1274H64.9359L65.2628 59.8799H65.1998ZM65.9795 61.1274C66.1084 61.1274 66.2224 61.0914 66.3213 61.0224C66.4203 60.9504 66.5012 60.8575 66.5582 60.7375C66.6182 60.6176 66.6512 60.4947 66.6572 60.3627C66.6632 60.2158 66.6332 60.0988 66.5612 60.0119C66.4893 59.9249 66.3933 59.8829 66.2704 59.8829H66.2404L65.9165 61.1304H65.9795V61.1274ZM72.0488 60.3477C72.0338 60.6386 71.9528 60.9055 71.7999 61.1484C71.6469 61.3912 71.449 61.5742 71.2031 61.6971C70.9573 61.8201 70.6784 61.88 70.3605 61.88H70.0846L69.9677 62.3598H68.9751L69.0981 61.88H68.9871C68.6123 61.88 68.3244 61.7751 68.1235 61.5622C67.9196 61.3523 67.8267 61.0644 67.8446 60.7016C67.8596 60.3957 67.9436 60.1168 68.0965 59.8679C68.2495 59.619 68.4504 59.4331 68.6993 59.3072C68.9482 59.1812 69.239 59.1183 69.5659 59.1183H69.8388L69.9317 58.7314H70.8943L70.8013 59.1183H70.9123C71.2871 59.1183 71.575 59.2232 71.7759 59.4361C71.9768 59.655 72.0668 59.9579 72.0488 60.3477ZM69.5599 59.8799C69.4309 59.8799 69.317 59.9159 69.218 59.9849C69.1191 60.0539 69.0381 60.1498 68.9781 60.2698C68.9182 60.3897 68.8852 60.5156 68.8792 60.6446C68.8732 60.7885 68.9032 60.9055 68.9751 60.9924C69.0441 61.0824 69.1431 61.1274 69.266 61.1274H69.296L69.6229 59.8799H69.5599ZM70.3425 61.1274C70.4715 61.1274 70.5854 61.0914 70.6874 61.0224C70.7863 60.9504 70.8643 60.8575 70.9243 60.7375C70.9842 60.6176 71.0172 60.4947 71.0232 60.3627C71.0292 60.2158 70.9992 60.0988 70.9273 60.0119C70.8553 59.9249 70.7593 59.8829 70.6364 59.8829H70.6064L70.2826 61.1304H70.3425V61.1274Z" fill="#E5E5E5"/>
<path fill-rule="evenodd" clip-rule="evenodd" d="M73.9769 56.501C74.6756 56.501 75.2454 57.0677 75.2454 57.7694C75.2454 58.4681 74.6786 59.0348 73.9769 59.0348C73.2782 59.0348 72.7085 58.4681 72.7085 57.7694C72.7115 57.0707 73.2782 56.501 73.9769 56.501ZM73.5271 58.4231V57.1727H74.0069C74.1269 57.1727 74.2138 57.1847 74.2678 57.2057C74.3218 57.2266 74.3668 57.2686 74.3997 57.3256C74.4327 57.3826 74.4477 57.4486 74.4477 57.5235C74.4477 57.6165 74.4237 57.6944 74.3727 57.7574C74.3218 57.8174 74.2498 57.8564 74.1509 57.8714C74.2018 57.9043 74.2408 57.9403 74.2738 57.9763C74.3068 58.0153 74.3488 58.0813 74.4027 58.1802L74.5407 58.4261H74.2678L74.1029 58.1532C74.0429 58.0543 74.0039 57.9943 73.9829 57.9673C73.9619 57.9433 73.9379 57.9253 73.914 57.9163C73.89 57.9073 73.851 57.9013 73.8 57.9013H73.755V58.4231H73.5271V58.4231ZM73.755 57.7004H73.923C74.0339 57.7004 74.0999 57.6944 74.1269 57.6854C74.1538 57.6764 74.1748 57.6585 74.1898 57.6315C74.2048 57.6075 74.2138 57.5745 74.2138 57.5385C74.2138 57.4965 74.2048 57.4635 74.1838 57.4366C74.1658 57.4096 74.1359 57.3946 74.0999 57.3886C74.0819 57.3856 74.0249 57.3856 73.935 57.3856H73.758V57.7004H73.755ZM73.9769 56.6299C74.6066 56.6299 75.1164 57.1397 75.1164 57.7694C75.1164 58.3991 74.6066 58.9059 73.9769 58.9059C73.3472 58.9059 72.8374 58.3961 72.8374 57.7694C72.8374 57.1397 73.3472 56.6299 73.9769 56.6299Z" fill="#E5E5E5"/>
<path d="M17.3023 0H67.6977C72.4566 0 76.7807 1.94613 79.9173 5.08273C83.0539 8.21933 85 12.5434 85 17.3023V67.6977C85 72.4566 83.0539 76.7807 79.9173 79.9173C76.7807 83.0539 72.4566 85 67.6977 85H17.3023C12.5434 85 8.21633 83.0539 5.08273 79.9173C1.94613 76.7837 0 72.4566 0 67.6977V17.3023C0 12.5434 1.94613 8.21633 5.08273 5.08273C8.21933 1.94613 12.5434 0 17.3023 0ZM67.6977 1.00755H17.3023C12.8223 1.00755 8.74709 2.83973 5.79341 5.79341C2.84273 8.75009 1.00755 12.8223 1.00755 17.3023V67.6977C1.00755 72.1777 2.83973 76.2529 5.79341 79.2066C8.75009 82.1603 12.8223 83.9924 17.3023 83.9924H67.6977C72.1777 83.9924 76.2529 82.1603 79.2066 79.2066C82.1603 76.2529 83.9924 72.1807 83.9924 67.6977V17.3023C83.9924 12.8223 82.1603 8.74709 79.2066 5.79341C76.2529 2.84273 72.1807 1.00755 67.6977 1.00755Z" fill="#E5E5E5"/>
</svg>
